<svg preserveAspectRatio="none" width="100%" height="100%" overflow="visible" style="display: block;" viewBox="0 0 16.508 18.167" fill="none" xmlns="http://www.w3.org/2000/svg">
<path id="vector" d="M7.33301 17.417C7.33283 17.8311 6.99711 18.167 6.58301 18.167C6.16907 18.1668 5.83318 17.8309 5.83301 17.417V15.1426C5.24414 15.2961 4.71202 15.334 4.22266 15.2695C3.45124 15.1679 2.87034 14.8263 2.41309 14.46C2.18871 14.2802 1.98874 14.0898 1.81543 13.9219C1.63376 13.7459 1.49066 13.6038 1.3457 13.4785C1.05696 13.2289 0.892614 13.167 0.75 13.167C0.335895 13.167 0.000176213 12.8311 0 12.417C0 12.0028 0.335786 11.667 0.75 11.667C1.44047 11.667 1.95225 12.0206 2.32617 12.3438C2.51257 12.5049 2.69834 12.6887 2.85938 12.8447C3.02864 13.0087 3.18604 13.1574 3.35156 13.29C3.67438 13.5486 4.0049 13.7277 4.41895 13.7822C4.75698 13.8267 5.20381 13.793 5.80957 13.582C5.81377 13.1623 5.87129 12.7429 5.98633 12.3369C6.039 12.1511 6.10467 11.9698 6.17969 11.793C3.83523 11.3269 1.69152 9.54494 1.66797 6.63184C1.59641 5.5357 1.87094 4.44789 2.44727 3.51953C2.24621 2.54071 2.27114 1.53142 2.52441 0.560547L2.56641 0.441406C2.68595 0.176274 2.95151 1.2201e-05 3.25 0V0.75C3.25 0.0295029 3.25044 0.00111432 3.25098 0H3.27051C3.27787 0.000176053 3.28601 0.000558851 3.29492 0.000976562C3.31312 0.00182951 3.33478 0.00355395 3.35938 0.00585938C3.40854 0.0104772 3.4707 0.0183095 3.54492 0.0322266C3.69374 0.0601538 3.89193 0.111575 4.13867 0.204102C4.5811 0.370046 5.17828 0.66935 5.93164 1.20508C8.01537 0.848205 10.1506 0.848284 12.2344 1.20508C12.9881 0.669046 13.5858 0.370063 14.0283 0.204102C14.2752 0.111523 14.4732 0.0601434 14.6221 0.0322266C14.6964 0.0182849 14.7584 0.010473 14.8076 0.00585938C14.8322 0.00355393 14.8539 0.0018295 14.8721 0.000976562C14.881 0.0005607 14.8891 0.000173967 14.8965 0H14.916C14.9164 0.0014308 14.9168 0.0239742 14.917 0.375977V0C15.2626 0.000133831 15.5636 0.236451 15.6455 0.572266C15.8806 1.53796 15.9022 2.54128 15.7148 3.51465C16.2863 4.43274 16.5595 5.49951 16.5 6.58301C16.5 9.52715 14.3411 11.3271 11.9814 11.7939C12.2889 12.5218 12.4137 13.3202 12.333 14.1191V17.417C12.3328 17.8311 11.9971 18.167 11.583 18.167C11.1691 18.1668 10.8332 17.8309 10.833 17.417V14.083C10.833 14.0556 10.8349 14.0282 10.8379 14.001C10.9321 13.1529 10.6891 12.3012 10.1611 11.6309C9.98337 11.4052 9.94977 11.0973 10.0752 10.8389C10.2007 10.5806 10.4628 10.417 10.75 10.417C12.9696 10.417 15 8.96323 15 6.58301C15 6.56714 15.0009 6.55099 15.002 6.53516C15.0575 5.66562 14.8138 4.81222 14.3066 4.10352C14.1796 3.92597 14.1359 3.7014 14.1875 3.48926C14.3297 2.90523 14.3715 2.30379 14.3164 1.70898C13.9737 1.86404 13.4896 2.13207 12.8662 2.59961C12.6977 2.72591 12.4842 2.77641 12.2773 2.7373C10.1696 2.3381 7.99743 2.3381 5.88965 2.7373C5.68263 2.77651 5.46836 2.72603 5.2998 2.59961C4.67039 2.12758 4.18304 1.85936 3.83984 1.70508C3.78 2.29711 3.82386 2.89594 3.97559 3.47754C4.03178 3.69313 3.98917 3.92243 3.85938 4.10352C3.35375 4.80899 3.10848 5.66807 3.16504 6.53418C3.1661 6.55036 3.16699 6.5668 3.16699 6.58301C3.16699 8.96323 5.19736 10.417 7.41699 10.417C7.70474 10.4171 7.96672 10.5817 8.0918 10.8408C8.21684 11.1002 8.18313 11.4085 8.00391 11.6338C7.73947 11.966 7.5437 12.3437 7.42969 12.7461C7.31498 13.151 7.28156 13.5778 7.3291 13.999C7.33224 14.0269 7.333 14.055 7.33301 14.083V17.417Z" fill="var(--fill-0, white)"/>
</svg>
