<svg preserveAspectRatio="none" width="100%" height="100%" overflow="visible" style="display: block;" viewBox="0 0 16.499 16.499" fill="none" xmlns="http://www.w3.org/2000/svg">
<path id="vector" d="M13.333 7.41699C13.333 4.14942 10.6845 1.50018 7.41699 1.5C4.14931 1.5 1.5 4.14931 1.5 7.41699C1.50018 10.6845 4.14942 13.333 7.41699 13.333C10.6844 13.3328 13.3328 10.6844 13.333 7.41699ZM14.833 7.41699C14.8329 9.1948 14.2071 10.826 13.1641 12.1035L16.2793 15.2188C16.5722 15.5116 16.5722 15.9864 16.2793 16.2793C15.9864 16.5722 15.5116 16.5722 15.2188 16.2793L12.1035 13.1641C10.826 14.2071 9.1948 14.8329 7.41699 14.833C3.32099 14.833 0.000175747 11.513 0 7.41699C0 3.32088 3.32088 0 7.41699 0C11.513 0.000175751 14.833 3.32099 14.833 7.41699Z" fill="var(--fill-0, white)"/>
</svg>
