<svg preserveAspectRatio="none" width="100%" height="100%" overflow="visible" style="display: block;" viewBox="0 0 16.667 15" fill="none" xmlns="http://www.w3.org/2000/svg">
<g id="vector">
<path d="M5.6123 4.16699C6.41218 4.16709 7.05979 4.81515 7.06055 5.61426V5.61621C7.06034 6.41595 6.41206 7.06436 5.6123 7.06445C4.81246 7.06445 4.16427 6.41601 4.16406 5.61621C4.16406 4.81626 4.81234 4.16699 5.6123 4.16699Z" fill="var(--fill-0, white)"/>
<path fill-rule="evenodd" clip-rule="evenodd" d="M13.333 0C15.1738 0 16.6668 1.49221 16.667 3.33301V11.667C16.6668 13.5078 15.1738 15 13.333 15H3.33301C1.49232 14.9998 0.000176245 13.5077 0 11.667V3.33301C0.000175988 1.49232 1.49232 0.000175859 3.33301 0H13.333ZM3.33301 1.25C2.18267 1.25018 1.25018 2.18267 1.25 3.33301V11.667C1.25005 11.98 1.32162 12.2757 1.44531 12.542C1.55658 12.3835 1.69384 12.1932 1.85156 11.9883C2.27308 11.4406 2.86964 10.7436 3.50684 10.2695C4.3457 9.64559 5.23402 9.86921 5.89844 10.1006C6.06853 10.1598 6.24161 10.2268 6.40137 10.2871C6.56522 10.349 6.72097 10.4059 6.875 10.4561C7.18457 10.5569 7.45968 10.6181 7.71973 10.6182C7.84889 10.6181 8.02375 10.553 8.27734 10.3242C8.53215 10.0942 8.78328 9.77719 9.08008 9.40137C9.35931 9.04778 9.68298 8.63693 10.042 8.32031C10.4038 8.00128 10.876 7.71012 11.4619 7.70996C12.3794 7.70998 13.2122 8.11625 13.8672 8.55664C14.5236 8.99802 15.0743 9.52441 15.417 9.8418V3.33301C15.4168 2.18256 14.4835 1.25 13.333 1.25H3.33301Z" fill="var(--fill-0, white)"/>
</g>
</svg>
