<svg preserveAspectRatio="none" width="100%" height="100%" overflow="visible" style="display: block;" viewBox="0 0 16.433 16.4326" fill="none" xmlns="http://www.w3.org/2000/svg">
<path id="vector" fill-rule="evenodd" clip-rule="evenodd" d="M5.2855 3.19685e-09C5.56859 -1.89788e-05 5.84598 0.0844945 6.08042 0.243164C6.31485 0.401859 6.49575 0.627791 6.60093 0.890625L7.80698 3.90527C7.92774 4.20698 7.94135 4.54118 7.84507 4.85156C7.74671 5.16847 7.54276 5.41876 7.27768 5.61035L5.62827 6.70898C5.67214 6.89872 5.7175 7.08733 5.77866 7.27246C5.96119 7.82271 6.33392 8.57575 7.09604 9.33789C7.85797 10.0997 8.61026 10.4727 9.15952 10.6553C9.32897 10.7113 9.502 10.7533 9.67515 10.7959L10.0531 10.0391C10.1886 9.76826 10.4072 9.54754 10.6771 9.41016C10.9471 9.27276 11.2543 9.22556 11.5531 9.27539L15.2494 9.8916C15.5801 9.94675 15.8813 10.1172 16.098 10.373C16.3147 10.6289 16.433 10.9537 16.433 11.2891V14.9326C16.4329 15.5789 15.9859 16.1747 15.2982 16.2793C13.4546 16.558 8.0398 16.9311 3.77085 12.6621C-0.498142 8.39285 -0.125833 2.9778 0.15366 1.13477C0.257535 0.447525 0.854869 5.30282e-05 1.50132 3.19685e-09H5.2855ZM1.32749 1.16699L1.29722 1.38086C1.03838 3.16569 0.778325 8.02012 4.59604 11.8379C8.41345 15.6551 13.2662 15.3947 15.0521 15.1367L15.2669 15.1055V11.0771L15.058 11.043L11.3617 10.4258L11.1791 10.3955L11.096 10.5605L10.5384 11.6777C10.49 11.7745 10.4156 11.8562 10.3236 11.9131C10.122 12.0377 9.8715 11.9944 9.64878 11.9688C9.43395 11.9371 9.13991 11.878 8.79038 11.7617C8.09009 11.5275 7.17523 11.0665 6.27085 10.1621C5.47965 9.37082 5.02736 8.57203 4.76987 7.91504C4.65658 7.60208 4.55442 7.28818 4.4935 6.95996C4.46365 6.77672 4.44449 6.59457 4.43296 6.40918C4.43413 6.31581 4.45826 6.22402 4.50229 6.1416C4.54749 6.0571 4.61306 5.9849 4.69272 5.93164L6.63022 4.63965L6.79917 4.52734L5.51792 1.32422L5.45542 1.16699H1.32749Z" fill="var(--fill-0, white)"/>
</svg>
