<svg width="24" height="24" viewBox="0 0 24 24" fill="none" xmlns="http://www.w3.org/2000/svg">
<path d="M18.7471 2H4.81901C2.70982 2 1 3.70983 1 5.81899V19.208C1 21.3172 2.70982 23.027 4.81901 23.027H18.7471C20.8562 23.027 22.5661 21.3172 22.5661 19.208V5.81899C22.5661 3.70983 20.8562 2 18.7471 2Z" fill="#00005B"/>
<path d="M9.66362 14.5794H6.32143L5.64137 16.6957C5.63249 16.7344 5.61021 16.7688 5.57849 16.7926C5.54676 16.8165 5.50764 16.8284 5.46799 16.8262H3.7771C3.68073 16.8262 3.64706 16.7727 3.6761 16.6667L6.56969 8.36798C6.59829 8.2813 6.62733 8.19629 6.65637 8.08565C6.69429 7.8925 6.71359 7.69623 6.71402 7.49943C6.71081 7.47595 6.717 7.4521 6.73125 7.43318C6.74556 7.41427 6.76673 7.40174 6.7902 7.39843C6.7986 7.39714 6.80709 7.39714 6.81545 7.39843H9.1157C9.18305 7.39843 9.22173 7.42238 9.23143 7.47082L12.5139 16.6814C12.5419 16.7779 12.513 16.8262 12.4272 16.8262H10.5461C10.5137 16.8297 10.4813 16.8213 10.4547 16.8026C10.428 16.784 10.4091 16.7563 10.4013 16.7248L9.66362 14.5794ZM6.8441 12.7951H9.13001C9.07193 12.6024 9.00434 12.3853 8.92716 12.1441C8.85002 11.9028 8.76809 11.6448 8.6814 11.3702L8.4209 10.5454C8.33421 10.2707 8.25468 10.0055 8.18229 9.74957C8.10991 9.49373 8.04429 9.25987 7.98535 9.04805H7.97061C7.8894 9.43882 7.78797 9.82507 7.66677 10.2053C7.53185 10.6396 7.39437 11.0833 7.25441 11.5364C7.11439 11.9895 6.97706 12.4091 6.84237 12.7951H6.8441Z" fill="#9999FF"/>
<path d="M17.8386 13.7572H14.9884C15.0232 14.0392 15.1168 14.3107 15.2632 14.5543C15.425 14.7954 15.6537 14.9839 15.9213 15.0967C16.2842 15.2537 16.6766 15.3307 17.0718 15.3223C17.3853 15.3163 17.6976 15.2819 18.0048 15.2196C18.2797 15.1821 18.549 15.1115 18.807 15.0092C18.8552 14.971 18.8793 14.9952 18.8793 15.0816V16.456C18.8837 16.4903 18.8778 16.5251 18.8623 16.556C18.8469 16.587 18.8226 16.6126 18.7926 16.6298C18.5064 16.7564 18.2052 16.8461 17.8962 16.8966C17.4767 16.9756 17.0502 17.012 16.6232 17.0052C15.9381 17.0052 15.3643 16.8991 14.9017 16.687C14.4642 16.4942 14.0777 16.202 13.773 15.8336C13.4889 15.4864 13.2774 15.0857 13.151 14.6553C13.0262 14.23 12.9628 13.7889 12.9629 13.3457C12.9617 12.8618 13.0374 12.3808 13.1872 11.9207C13.3318 11.4719 13.5603 11.0547 13.8606 10.6911C14.1566 10.3317 14.5268 10.0406 14.9458 9.83768C15.3701 9.63017 15.8717 9.55568 16.4503 9.55568C16.9303 9.54387 17.407 9.63781 17.8466 9.83091C18.2161 9.98835 18.5414 10.234 18.7939 10.5463C19.0311 10.8522 19.2123 11.1975 19.3292 11.5664C19.4432 11.9218 19.5018 12.2927 19.503 12.666C19.503 12.8781 19.4957 13.071 19.4811 13.2447C19.4668 13.418 19.4546 13.5435 19.4453 13.6209C19.4414 13.6528 19.426 13.6821 19.402 13.7034C19.378 13.7247 19.347 13.7365 19.3149 13.7366C19.2571 13.7366 19.1582 13.7438 19.0182 13.7581C18.8785 13.7728 18.7047 13.7821 18.4976 13.7871C18.2906 13.7922 18.0701 13.7572 17.8386 13.7572ZM14.9884 12.4392H16.8821C17.1135 12.4392 17.2847 12.4368 17.3955 12.432C17.4699 12.4246 17.5417 12.4009 17.6059 12.3626V12.2755C17.6028 12.1625 17.5832 12.0504 17.5478 11.9431C17.4698 11.6961 17.3129 11.4817 17.1011 11.3327C16.8894 11.1836 16.6346 11.1083 16.3758 11.1182C16.1323 11.1036 15.8899 11.1601 15.678 11.2809C15.4661 11.4016 15.2939 11.5814 15.1824 11.7983C15.0838 12.0002 15.0183 12.2166 14.9884 12.4392Z" fill="#9999FF"/>
</svg>
