<svg width="24" height="24" viewBox="0 0 24 24" fill="none" xmlns="http://www.w3.org/2000/svg">
<path d="M11.9992 2C6.4587 1.99975 1.96705 6.47644 1.9668 11.999C1.96596 17.5223 6.45795 22.0003 11.9992 22C17.5404 22.0003 22.0323 17.5223 22.0315 11.999C22.0313 6.47644 17.5396 1.99967 11.9992 2Z" fill="white"/>
<path d="M11.9992 2C6.4587 1.99975 1.96705 6.47644 1.9668 11.999C1.96596 17.5223 6.45795 22.0003 11.9992 22C17.5404 22.0003 22.0323 17.5223 22.0315 11.999C22.0313 6.47644 17.5396 1.99967 11.9992 2ZM11.3061 6.52743H17.6181L11.2806 10.9821H15.6136L6.3802 17.4706C8.02249 13.8231 9.66445 10.1754 11.3061 6.52743Z" fill="#009688"/>
</svg>
