<svg width="24" height="24" viewBox="0 0 24 24" fill="none" xmlns="http://www.w3.org/2000/svg">
<mask id="mask0_534_3017" style="mask-type:luminance" maskUnits="userSpaceOnUse" x="5" y="1" width="14" height="22">
<path d="M18.7145 1.91992H5.2793V22.0736H18.7145V1.91992Z" fill="white"/>
</mask>
<g mask="url(#mask0_534_3017)">
<path d="M11.9961 11.9966C11.9961 10.1605 13.4846 8.67188 15.3207 8.67188C17.1568 8.67188 18.6453 10.1605 18.6453 11.9966C18.6453 13.8329 17.1568 15.3214 15.3207 15.3214C13.4846 15.3214 11.9961 13.8329 11.9961 11.9966Z" fill="#1ABCFE"/>
<path d="M5.34766 18.6461C5.34766 16.8099 6.83609 15.3213 8.67223 15.3213H11.9969V18.6461C11.9969 20.4823 10.5084 21.9708 8.67223 21.9708C6.83609 21.9708 5.34766 20.4823 5.34766 18.6461Z" fill="#0ACF83"/>
<path d="M11.9961 2.02246V8.67197H15.3207C17.1569 8.67197 18.6453 7.18344 18.6453 5.3472C18.6453 3.51101 17.1569 2.02246 15.3207 2.02246H11.9961Z" fill="#FF7262"/>
<path d="M5.34766 5.3472C5.34766 7.18344 6.83609 8.67197 8.67223 8.67197H11.9969V2.02246H8.67223C6.83609 2.02246 5.34766 3.511 5.34766 5.3472Z" fill="#F24E1E"/>
<path d="M5.34766 11.9966C5.34766 13.8329 6.83609 15.3214 8.67223 15.3214H11.9969V8.67188H8.67223C6.83609 8.67188 5.34766 10.1605 5.34766 11.9966Z" fill="#A259FF"/>
</g>
</svg>
