<svg width="24" height="24" viewBox="0 0 24 24" fill="none" xmlns="http://www.w3.org/2000/svg">
<path fill-rule="evenodd" clip-rule="evenodd" d="M11.9999 1.99902C6.47768 1.99902 2 6.58946 2 12.2523C2 16.7823 4.86545 20.6256 8.8384 21.9814C9.33836 22.0764 9.52197 21.759 9.52197 21.4883C9.52197 21.2438 9.5127 20.436 9.5082 19.5792C6.72621 20.1995 6.13934 18.3696 6.13934 18.3696C5.68428 17.1846 5.02893 16.8693 5.02893 16.8693C4.12147 16.233 5.09728 16.2459 5.09728 16.2459C6.10145 16.3184 6.63003 17.3026 6.63003 17.3026C7.52212 18.8701 8.96955 18.417 9.54026 18.155C9.63007 17.4924 9.88906 17.0398 10.1751 16.7839C7.95399 16.525 5.61924 15.6456 5.61924 11.7168C5.61924 10.5976 6.00978 9.68275 6.64937 8.96488C6.54564 8.70653 6.20332 7.66361 6.74647 6.25137C6.74647 6.25137 7.58611 5.97563 9.49667 7.3023C10.2946 7.07519 11.15 6.96136 11.9998 6.95729C12.8496 6.96136 13.7058 7.07519 14.5049 7.3023C16.4136 5.97577 17.2522 6.25124 17.2522 6.25124C17.7964 7.66334 17.4542 8.70626 17.3502 8.96448C17.9914 9.68248 18.3793 10.5972 18.3793 11.7164C18.3793 15.6549 16.04 16.5217 13.8134 16.7756C14.172 17.094 14.4917 17.7179 14.4917 18.6745C14.4917 20.0464 14.4803 21.1508 14.4803 21.4883C14.4803 21.7613 14.66 22.0808 15.1669 21.9803C19.1385 20.623 22 16.781 22 12.2524C22 6.58946 17.5222 1.99902 11.9999 1.99902Z" fill="#FEFEFE"/>
<path d="M5.78744 16.7206C5.76532 16.7717 5.68716 16.7872 5.61602 16.7519C5.54316 16.7185 5.50275 16.6489 5.5262 16.5978C5.54779 16.5455 5.62595 16.531 5.69842 16.5659C5.77102 16.5995 5.81235 16.6696 5.78744 16.7206ZM6.19137 17.1841C6.14368 17.2295 6.05028 17.2085 5.98735 17.1368C5.92164 17.0652 5.90959 16.9695 5.95794 16.9236C6.00696 16.8783 6.09757 16.8995 6.16288 16.9711C6.22846 17.0434 6.24131 17.1382 6.19137 17.1841ZM6.58562 17.775C6.52428 17.8188 6.424 17.778 6.362 17.6867C6.30066 17.5954 6.30066 17.486 6.36332 17.4422C6.42559 17.3984 6.52428 17.4381 6.58721 17.5283C6.64815 17.6211 6.64815 17.7303 6.58562 17.775ZM7.12706 18.3456C7.07221 18.4075 6.9555 18.3908 6.87005 18.3062C6.78261 18.2236 6.75824 18.1063 6.81308 18.0443C6.86872 17.9822 6.9861 17.9995 7.07221 18.0837C7.15898 18.166 7.18535 18.2842 7.12706 18.3456ZM7.87224 18.6766C7.84787 18.7568 7.73579 18.7934 7.62239 18.7591C7.50912 18.724 7.43507 18.63 7.45812 18.5489C7.48143 18.4681 7.59457 18.4301 7.7085 18.4666C7.8215 18.5015 7.89582 18.595 7.87224 18.6766ZM8.69029 18.7378C8.69294 18.8224 8.59703 18.8926 8.47833 18.894C8.35857 18.8967 8.26173 18.8282 8.2604 18.7451C8.2604 18.6595 8.35446 18.5902 8.47369 18.5882C8.59292 18.5855 8.69029 18.6538 8.69029 18.7376M9.45204 18.6053C9.46621 18.6876 9.38368 18.7724 9.26551 18.7949C9.14946 18.8169 9.04202 18.7659 9.02731 18.6842C9.01274 18.5996 9.09686 18.515 9.21278 18.4931C9.33108 18.4719 9.43693 18.5215 9.45204 18.6053Z" fill="#FEFEFE"/>
</svg>
