<svg width="24" height="24" viewBox="0 0 24 24" fill="none" xmlns="http://www.w3.org/2000/svg">
<mask id="mask0_534_3191" style="mask-type:luminance" maskUnits="userSpaceOnUse" x="2" y="2" width="21" height="20">
<path d="M22.5097 2H2V21.9968H22.5097V2Z" fill="white"/>
</mask>
<g mask="url(#mask0_534_3191)">
<path d="M18.8778 2H5.63197C3.62608 2 2 3.62608 2 5.63197V18.3648C2 20.3707 3.62608 21.9968 5.63197 21.9968H18.8778C20.8836 21.9968 22.5097 20.3707 22.5097 18.3648V5.63197C22.5097 3.62608 20.8836 2 18.8778 2Z" fill="#330000"/>
<path d="M11.9381 14.0018H8.75965L8.11324 16.0104C8.10469 16.0472 8.08343 16.0798 8.05324 16.1025C8.023 16.1251 7.98575 16.1364 7.94802 16.1343H6.33834C6.24637 16.1343 6.21431 16.0838 6.2421 15.9827L8.99384 8.05635C9.02058 7.97374 9.04813 7.88019 9.07645 7.77565C9.11216 7.592 9.1306 7.40537 9.13141 7.21827C9.12973 7.20718 9.13031 7.1959 9.13309 7.18505C9.13583 7.17421 9.14068 7.16403 9.1474 7.15505C9.15412 7.14613 9.16252 7.13859 9.17216 7.13293C9.18181 7.12726 9.19252 7.12352 9.20356 7.12203C9.21157 7.12078 9.21968 7.12078 9.22765 7.12203H11.4152C11.4793 7.12203 11.5158 7.14488 11.5254 7.19057L14.6485 15.9964C14.6762 16.0878 14.6485 16.1339 14.5659 16.1339H12.7774C12.7467 16.1373 12.7158 16.1295 12.6905 16.1118C12.6652 16.094 12.6472 16.0677 12.6398 16.0377L11.9381 14.0018ZM9.2553 12.267H11.4288C11.374 12.0833 11.3098 11.8769 11.2363 11.6478C11.1628 11.4187 11.0849 11.1733 11.0025 10.9116L10.7547 10.1276C10.6721 9.86614 10.5964 9.61376 10.5277 9.37049C10.459 9.12718 10.3966 8.90533 10.3404 8.70478H10.3268C10.2493 9.0763 10.1528 9.44355 10.0377 9.80518C9.90935 10.2182 9.77864 10.6402 9.64549 11.0712C9.51234 11.5021 9.38231 11.9007 9.2553 12.267Z" fill="#FF9A00"/>
<path d="M16.5054 8.5799C16.365 8.58547 16.2251 8.56142 16.0947 8.50924C15.9643 8.45707 15.8464 8.37796 15.7487 8.27712C15.6512 8.1719 15.5755 8.0484 15.5259 7.9138C15.4764 7.77916 15.4539 7.63608 15.4599 7.49275C15.4552 7.35115 15.4802 7.21012 15.5336 7.07884C15.5869 6.94756 15.6673 6.829 15.7695 6.73084C15.8707 6.63369 15.9901 6.55752 16.1209 6.50673C16.2516 6.45595 16.3912 6.43152 16.5314 6.43488C16.8616 6.43488 17.1206 6.53352 17.3086 6.73084C17.4993 6.93768 17.6002 7.21166 17.5893 7.49275C17.5951 7.63665 17.5719 7.78027 17.521 7.915C17.4702 8.04974 17.3928 8.17291 17.2933 8.27712C17.1899 8.37912 17.0665 8.4586 16.9309 8.51073C16.7953 8.56281 16.6505 8.58638 16.5054 8.5799ZM15.5562 15.9954V9.4188C15.5562 9.33619 15.5927 9.29491 15.666 9.29491H17.3579C17.4309 9.29491 17.4678 9.33499 17.4678 9.4188V15.9954C17.4678 16.0868 17.4313 16.1329 17.3579 16.1329H15.6801C15.5975 16.1333 15.5562 16.0872 15.5562 15.9954Z" fill="#FF9A00"/>
</g>
</svg>
