<svg width="24" height="24" viewBox="0 0 24 24" fill="none" xmlns="http://www.w3.org/2000/svg">
<g clip-path="url(#clip0_534_3187)">
<path d="M19.447 8.83692C19.2653 8.83624 19.0853 8.87158 18.9173 8.94088C18.7494 9.01019 18.5969 9.11209 18.4686 9.24069L17.4162 10.2902C17.2757 10.4306 17.1672 10.5998 17.0982 10.786C17.0292 10.9723 17.0012 11.1713 17.0163 11.3694L17.0229 11.436C17.0588 11.7417 17.1975 12.0262 17.4162 12.2428C17.5679 12.3942 17.7349 12.49 17.9379 12.5566C17.9483 12.6177 17.9543 12.6794 17.9543 12.7414C17.9543 13.0193 17.8462 13.2805 17.6495 13.4761L17.5847 13.541C17.2332 13.421 16.9403 13.2456 16.6756 12.9817C16.3256 12.6342 16.091 12.1874 16.0037 11.702L15.9919 11.6347L15.9385 11.678C15.9027 11.7069 15.8685 11.7377 15.836 11.7704L14.7837 12.8199C14.5903 13.013 14.4586 13.2592 14.4054 13.5272C14.3521 13.7953 14.3796 14.0731 14.4845 14.3255C14.5893 14.5779 14.7668 14.7934 14.9943 14.9449C15.2218 15.0963 15.4892 15.1767 15.7625 15.1759C15.9441 15.1763 16.124 15.1408 16.2919 15.0715C16.4598 15.0022 16.6124 14.9005 16.7409 14.7721L17.7935 13.7226C17.9217 13.5945 18.0235 13.4423 18.0929 13.2748C18.1623 13.1073 18.198 12.9278 18.198 12.7465C18.198 12.5652 18.1623 12.3857 18.0929 12.2182C18.0235 12.0507 17.9217 11.8985 17.7935 11.7704C17.6495 11.6269 17.4754 11.5173 17.2837 11.4496C17.2536 11.27 17.2671 11.0857 17.3231 10.9125C17.3792 10.7392 17.4762 10.582 17.6059 10.4541C17.9559 10.5725 18.2737 10.7701 18.5348 11.0315C18.8844 11.3792 19.1188 11.8259 19.2064 12.3112L19.2186 12.3785L19.2719 12.3352C19.3082 12.3063 19.3423 12.2749 19.3751 12.2421L20.4274 11.1926C20.6209 10.9995 20.7526 10.7533 20.8059 10.4852C20.8592 10.2172 20.8317 9.93928 20.7268 9.68689C20.6219 9.43449 20.4443 9.21895 20.2167 9.06762C19.9891 8.9163 19.7217 8.836 19.4483 8.83692H19.447Z" fill="white"/>
<path d="M18.8848 5.00035H5.1155C1.19146 5.00035 -2 8.18379 -2 12.0963C-2 16.0092 1.19181 19.1923 5.11515 19.1923H18.8845C22.8082 19.1923 26 16.0089 26 12.0967C26 8.18309 22.8082 5 18.8848 5V5.00035ZM12.0933 16.1257C11.8663 16.1724 11.6107 16.1808 11.4371 16.0001C11.3732 16.1466 11.2237 16.0695 11.1083 16.0503C11.0978 16.08 11.0884 16.1061 11.0786 16.1361C10.6951 16.1616 10.4074 15.7714 10.2247 15.4771C9.86207 15.2812 9.44993 15.1619 9.07929 14.9569C9.05767 15.2944 9.13159 15.7135 8.80941 15.9311C8.79302 16.5803 9.79408 16.0078 9.88613 16.4918C9.815 16.4994 9.7362 16.4803 9.67901 16.535C9.41785 16.7882 9.11834 16.3432 8.81743 16.527C8.41296 16.7299 8.37251 16.8962 7.87251 16.9381C7.84461 16.8962 7.85612 16.8683 7.87948 16.8429C8.02035 16.6797 8.03046 16.4872 8.2707 16.4175C8.02314 16.3788 7.81637 16.5151 7.60786 16.6232C7.33659 16.7338 7.33868 16.3732 6.92166 16.6421C6.87563 16.6044 6.8976 16.5702 6.9241 16.5413C7.0301 16.4123 7.16957 16.3931 7.32682 16.4001C6.5531 15.9702 6.18908 16.9259 5.83169 16.4506C5.72429 16.4789 5.68385 16.5755 5.6162 16.6435C5.55797 16.5796 5.60226 16.5022 5.6047 16.4273C5.53496 16.3945 5.44675 16.3788 5.46732 16.2672C5.33098 16.2212 5.23545 16.3021 5.13363 16.3788C5.04193 16.308 5.1957 16.2045 5.22429 16.1305C5.30588 15.9886 5.49242 16.1013 5.58691 15.9991C5.8561 15.8467 6.23093 16.0943 6.53846 16.0524C6.77556 16.0821 7.06845 15.8397 6.94955 15.5974C6.69641 15.2745 6.74104 14.8523 6.73546 14.4663C6.70408 14.2414 6.16258 13.9548 6.00603 13.7121C5.81251 13.4935 5.66188 13.2403 5.5109 12.991C4.96661 11.9401 5.13782 10.59 4.45196 9.61407C4.14164 9.78493 3.73787 9.70438 3.47008 9.47495C3.32573 9.6064 3.31945 9.7783 3.30795 9.96031C2.96136 9.61512 3.00459 8.96204 3.28179 8.57745C3.39439 8.42898 3.52889 8.29848 3.68068 8.19042C3.71485 8.16601 3.72636 8.1416 3.72566 8.10325C3.99973 6.8745 5.86795 7.11125 6.45861 7.98191C6.88714 8.51783 7.0165 9.22669 7.50256 9.72426C8.15633 10.438 8.90146 11.0667 9.50468 11.8268C10.0755 12.5214 10.4831 13.3359 10.8387 14.157C10.9838 14.4297 10.9852 14.7637 11.2003 14.9966C11.3063 15.1372 11.8244 15.5197 11.7118 15.6549C11.7767 15.7955 12.2603 15.9893 12.0926 16.1257H12.0933ZM21.168 11.9331L20.1157 12.9827C19.8357 13.2623 19.4915 13.4691 19.1132 13.5852L19.0937 13.5908L19.0867 13.6092C18.9657 13.9298 18.7772 14.2207 18.5341 14.4621L17.4814 15.5116C17.2558 15.7376 16.9877 15.9166 16.6925 16.0384C16.3974 16.1602 16.081 16.2223 15.7617 16.2212C15.4424 16.2223 15.1261 16.1602 14.8309 16.0384C14.5358 15.9166 14.2677 15.7376 14.042 15.5116C13.8165 15.2866 13.6376 15.0192 13.5156 14.7249C13.3935 14.4306 13.3307 14.1151 13.3307 13.7965C13.3307 13.4779 13.3935 13.1624 13.5156 12.8681C13.6376 12.5738 13.8165 12.3064 14.042 12.0813L15.0944 11.0318C15.3736 10.7524 15.7174 10.5463 16.0954 10.4317L16.1146 10.4258L16.1216 10.4073C16.2434 10.0859 16.4324 9.79422 16.676 9.55166L17.7286 8.50214C17.9542 8.2762 18.2224 8.09717 18.5175 7.97539C18.8127 7.8536 19.129 7.79147 19.4483 7.79257C20.0986 7.79257 20.7091 8.04467 21.168 8.50214C21.3943 8.72667 21.5738 8.99396 21.6959 9.28847C21.818 9.58297 21.8804 9.89882 21.8793 10.2176C21.8793 10.8662 21.6269 11.4753 21.168 11.9324V11.9331Z" fill="white"/>
</g>
<defs>
<clipPath id="clip0_534_3187">
<rect width="24" height="24" fill="white"/>
</clipPath>
</defs>
</svg>
