<svg width="24" height="24" viewBox="0 0 24 24" fill="none" xmlns="http://www.w3.org/2000/svg">
<g clip-path="url(#clip0_534_3036)">
<mask id="mask0_534_3036" style="mask-type:luminance" maskUnits="userSpaceOnUse" x="0" y="0" width="24" height="24">
<path d="M23.0409 12C23.0409 5.90274 18.0982 0.959961 12.0009 0.959961C5.90371 0.959961 0.960938 5.90274 0.960938 12C0.960938 18.0972 5.90371 23.04 12.0009 23.04C18.0982 23.04 23.0409 18.0972 23.0409 12Z" fill="white"/>
</mask>
<g mask="url(#mask0_534_3036)">
<path d="M5.74495 0.959961H18.2569C20.8789 0.959961 23.0409 3.12196 23.0409 5.74398V18.2559C23.0409 20.8779 20.8789 23.04 18.2569 23.04H5.74495C3.12294 23.04 0.960938 20.8779 0.960938 18.2559V5.74398C0.960938 3.12196 3.12294 0.959961 5.74495 0.959961Z" fill="#FFD02F"/>
<path fill-rule="evenodd" clip-rule="evenodd" d="M16.2797 3.7207H13.8416L15.8657 7.26272L11.4497 3.7207H9.01164L11.2196 8.04469L6.61965 3.7207H4.18164L6.61965 9.2407L4.18164 20.2807H6.61965L11.2656 8.45869L9.01164 20.2807H11.4497L15.9116 7.67672L13.8876 20.2807H16.3256L20.7416 6.4807L16.2797 3.7207Z" fill="#050038"/>
</g>
</g>
<defs>
<clipPath id="clip0_534_3036">
<rect width="24" height="24" fill="white"/>
</clipPath>
</defs>
</svg>
