<svg width="24" height="24" viewBox="0 0 24 24" fill="none" xmlns="http://www.w3.org/2000/svg">
<path fill-rule="evenodd" clip-rule="evenodd" d="M23.999 8.30795C23.9995 8.90749 23.7812 9.4866 23.3851 9.93661C22.9889 10.3866 22.4421 10.6766 21.8474 10.7521C21.2526 10.8276 20.6508 10.6834 20.1548 10.3466C19.6588 10.0098 19.3027 9.50361 19.1535 8.92295H15.717C15.115 8.92295 14.602 9.35795 14.503 9.95195L14.4015 10.559C14.3088 11.1173 14.0262 11.6265 13.6015 12.0005C14.0262 12.3745 14.3088 12.8836 14.4015 13.442L14.503 14.049C14.5509 14.3363 14.6992 14.5974 14.9215 14.7857C15.1437 14.974 15.4256 15.0774 15.717 15.0775H16.692C16.8432 14.4988 17.1998 13.9949 17.6953 13.66C18.1908 13.325 18.7912 13.1818 19.3846 13.2571C19.9779 13.3324 20.5235 13.6211 20.9196 14.0692C21.3157 14.5174 21.5351 15.0944 21.537 15.6925C21.5371 16.2917 21.3187 16.8704 20.9227 17.3201C20.5266 17.7698 19.9801 18.0596 19.3857 18.1351C18.7912 18.2106 18.1896 18.0667 17.6937 17.7303C17.1978 17.3939 16.8416 16.8882 16.692 16.308H15.717C15.1343 16.3079 14.5705 16.1012 14.1259 15.7246C13.6813 15.3479 13.3847 14.8257 13.289 14.251L13.1875 13.644C13.1394 13.3567 12.9911 13.0957 12.7688 12.9075C12.5465 12.7193 12.2647 12.616 11.9735 12.616H10.9695C10.8153 13.1204 10.5033 13.562 10.0793 13.8757C9.65538 14.1895 9.14189 14.3588 8.61445 14.3588C8.08702 14.3588 7.57352 14.1895 7.14957 13.8757C6.72561 13.562 6.41359 13.1204 6.25945 12.616H4.81595C4.64121 13.189 4.26351 13.6786 3.75363 13.993C3.24376 14.3075 2.6367 14.4252 2.04624 14.3242C1.45577 14.2231 0.922429 13.9102 0.546156 13.444C0.169884 12.9779 -0.023488 12.3906 0.00227989 11.7921C0.0280478 11.1936 0.271187 10.625 0.686131 10.1929C1.10108 9.76087 1.65934 9.49495 2.25631 9.44501C2.85327 9.39507 3.44796 9.56455 3.92892 9.92167C4.40989 10.2788 4.74411 10.7991 4.86895 11.385H6.20645C6.32437 10.8338 6.62779 10.3398 7.06603 9.9854C7.50428 9.631 8.05084 9.43766 8.61445 9.43766C9.17807 9.43766 9.72462 9.631 10.1629 9.9854C10.6011 10.3398 10.9045 10.8338 11.0225 11.385H11.9735C12.575 11.385 13.0885 10.95 13.1875 10.3565L13.289 9.74945C13.3847 9.17468 13.6813 8.65251 14.1259 8.27585C14.5705 7.89919 15.1343 7.69246 15.717 7.69245H19.1535C19.3043 7.11331 19.6609 6.60891 20.1565 6.27354C20.6522 5.93818 21.2531 5.79481 21.8468 5.87022C22.4405 5.94564 22.9864 6.23468 23.3825 6.68332C23.7786 7.13196 23.9977 7.70949 23.999 8.30795ZM22.768 8.30795C22.768 8.6343 22.6383 8.94729 22.4075 9.17805C22.1768 9.40881 21.8638 9.53845 21.5375 9.53845C21.2111 9.53845 20.8981 9.40881 20.6674 9.17805C20.4366 8.94729 20.307 8.6343 20.307 8.30795C20.307 7.9816 20.4366 7.66862 20.6674 7.43786C20.8981 7.2071 21.2111 7.07745 21.5375 7.07745C21.8638 7.07745 22.1768 7.2071 22.4075 7.43786C22.6383 7.66862 22.768 7.9816 22.768 8.30795ZM2.46145 13.1285C2.78787 13.1285 3.10091 12.9988 3.33173 12.768C3.56254 12.5372 3.6922 12.2241 3.6922 11.8977C3.6922 11.5713 3.56254 11.2582 3.33173 11.0274C3.10091 10.7966 2.78787 10.667 2.46145 10.667C2.13504 10.667 1.82199 10.7966 1.59118 11.0274C1.36037 11.2582 1.2307 11.5713 1.2307 11.8977C1.2307 12.2241 1.36037 12.5372 1.59118 12.768C1.82199 12.9988 2.13504 13.1285 2.46145 13.1285ZM8.61495 13.1285C8.94137 13.1285 9.25442 12.9988 9.48523 12.768C9.71604 12.5372 9.8457 12.2241 9.8457 11.8977C9.8457 11.5713 9.71604 11.2582 9.48523 11.0274C9.25442 10.7966 8.94137 10.667 8.61495 10.667C8.28854 10.667 7.97549 10.7966 7.74468 11.0274C7.51387 11.2582 7.3842 11.5713 7.3842 11.8977C7.3842 12.2241 7.51387 12.5372 7.74468 12.768C7.97549 12.9988 8.28854 13.1285 8.61495 13.1285ZM19.0765 16.9235C19.4029 16.9235 19.7159 16.7938 19.9467 16.563C20.1775 16.3322 20.3072 16.0191 20.3072 15.6927C20.3072 15.3663 20.1775 15.0532 19.9467 14.8224C19.7159 14.5916 19.4029 14.462 19.0765 14.462C18.75 14.462 18.437 14.5916 18.2062 14.8224C17.9754 15.0532 17.8457 15.3663 17.8457 15.6927C17.8457 16.0191 17.9754 16.3322 18.2062 16.563C18.437 16.7938 18.75 16.9235 19.0765 16.9235Z" fill="#EA4B71"/>
</svg>
