<svg width="24" height="24" viewBox="0 0 24 24" fill="none" xmlns="http://www.w3.org/2000/svg">
<mask id="mask0_534_3028" style="mask-type:luminance" maskUnits="userSpaceOnUse" x="2" y="1" width="21" height="22">
<path d="M22.0796 1.56738H2.04883V22.4327H22.0796V1.56738Z" fill="white"/>
</mask>
<g mask="url(#mask0_534_3028)">
<path d="M3.31956 2.46701L14.8899 1.6004C16.2944 1.46707 16.6622 1.56707 17.5651 2.20036L21.277 4.80022C21.8789 5.23351 22.0795 5.36681 22.0795 5.86678V20.0992C22.0795 20.9992 21.7451 21.5324 20.6082 21.5991L7.16518 22.3991C6.29576 22.4324 5.89448 22.3324 5.45974 21.7658L2.75107 18.266C2.24947 17.5994 2.04883 17.1328 2.04883 16.5661V3.90025C2.04883 3.16696 2.38323 2.53367 3.31956 2.46701Z" fill="white"/>
<path fill-rule="evenodd" clip-rule="evenodd" d="M14.8899 1.60075L3.31956 2.46736C2.38323 2.53403 2.04883 3.16732 2.04883 3.90061V16.5665C2.04883 17.1331 2.24947 17.6331 2.75107 18.2663L5.45974 21.7995C5.89448 22.3661 6.32917 22.4994 7.16518 22.4327L20.6082 21.6328C21.7451 21.5662 22.0795 21.0328 22.0795 20.1329V5.86713C22.0795 5.40052 21.9124 5.26718 21.3439 4.8672C21.3104 4.83388 21.277 4.83388 21.2435 4.80057L17.5651 2.23405C16.6957 1.56742 16.3278 1.50076 14.8899 1.60075ZM7.46614 5.63385C6.36262 5.70048 6.12853 5.73384 5.4932 5.20051L3.92149 3.96727C3.75428 3.80061 3.82116 3.60062 4.25589 3.56729L15.3915 2.76734C16.3278 2.70068 16.796 3.00066 17.1638 3.30064L19.0699 4.66722C19.1703 4.70055 19.3709 4.93387 19.1034 4.93387L7.59992 5.63385H7.46614ZM6.19544 19.9996V7.90036C6.19544 7.36704 6.36262 7.13376 6.83077 7.1004L20.0397 6.33379C20.4744 6.30048 20.6751 6.56712 20.6751 7.1004V19.0996C20.6751 19.633 20.5747 20.0663 19.8725 20.0996L7.23209 20.8329C6.52981 20.8995 6.19544 20.6329 6.19544 19.9996ZM18.6686 8.56699C18.7355 8.93361 18.6686 9.30028 18.3008 9.3336L17.6989 9.46694V18.3997C17.1638 18.6996 16.6957 18.833 16.2944 18.833C15.659 18.833 15.4918 18.633 14.9902 18.033L10.9774 11.7668V17.7997L12.2481 18.0997C12.2481 18.0997 12.2481 18.833 11.2449 18.833L8.43593 18.9996C8.36902 18.833 8.43593 18.433 8.70344 18.3663L9.43913 18.1664V10.1669L8.43593 10.0669C8.36902 9.70022 8.56966 9.16694 9.13817 9.13363L12.1478 8.93361L16.2944 15.2665V9.66691L15.2243 9.53356C15.1574 9.10027 15.4584 8.76696 15.8597 8.73364L18.6686 8.56699Z" fill="black"/>
</g>
</svg>
