<svg width="24" height="24" viewBox="0 0 24 24" fill="none" xmlns="http://www.w3.org/2000/svg">
<mask id="mask0_534_3138" style="mask-type:luminance" maskUnits="userSpaceOnUse" x="2" y="2" width="20" height="20">
<path d="M22 2H2V22H22V2Z" fill="white"/>
</mask>
<g mask="url(#mask0_534_3138)">
<path d="M17.3125 2H6.6875C4.09866 2 2 4.09866 2 6.6875V17.3125C2 19.9013 4.09866 22 6.6875 22H17.3125C19.9013 22 22 19.9013 22 17.3125V6.6875C22 4.09866 19.9013 2 17.3125 2Z" fill="#F4F2ED"/>
<mask id="mask1_534_3138" style="mask-type:luminance" maskUnits="userSpaceOnUse" x="4" y="4" width="16" height="16">
<path d="M19.8125 4.1875H4.1875V19.8125H19.8125V4.1875Z" fill="white"/>
</mask>
<g mask="url(#mask1_534_3138)">
<mask id="mask2_534_3138" style="mask-type:luminance" maskUnits="userSpaceOnUse" x="4" y="4" width="16" height="16">
<path d="M4.19336 4.19727H19.8184V19.8223H4.19336V4.19727Z" fill="white"/>
</mask>
<g mask="url(#mask2_534_3138)">
<path d="M15.8539 18.7043C15.7593 19.4185 15.0605 19.9738 14.3678 19.7816C13.3789 19.51 12.2346 19.0858 11.2061 19.0064L9.62837 18.8844C9.37391 18.8667 9.13491 18.7559 8.95698 18.5731L6.24091 15.7746C6.09522 15.6256 5.99779 15.4361 5.96132 15.2309C5.92485 15.0257 5.95103 14.8142 6.03644 14.6242C6.03644 14.6242 7.71491 10.9315 7.779 10.7392C7.84003 10.547 8.07197 8.87157 8.20624 7.97435C8.24287 7.73327 8.35884 7.51659 8.54194 7.35484L11.7554 4.46178C11.8614 4.3666 11.9857 4.29419 12.1208 4.24902C12.2559 4.20386 12.3989 4.1869 12.5407 4.1992C12.6826 4.2115 12.8205 4.2528 12.9457 4.32054C13.0711 4.38827 13.1811 4.48101 13.2691 4.59301L15.9668 8.02318C16.1169 8.21953 16.1984 8.45967 16.1988 8.70677C16.1988 9.3568 16.2537 10.6904 16.6139 11.551C16.9648 12.3842 17.6057 13.2905 17.9414 13.733C18.0053 13.8158 18.0431 13.9156 18.0502 14.0199C18.0572 14.1243 18.0332 14.2284 17.9811 14.3189C17.5455 15.0498 17.0896 15.7682 16.6139 16.4735C16.1561 17.1541 15.9455 17.9963 15.8509 18.7043H15.8539Z" fill="#6C31E3"/>
<path d="M9.25091 18.7869C10.5144 16.2234 10.4777 14.3862 9.94062 13.0801C9.44622 11.8716 8.52765 11.1117 7.80438 10.6387C7.78607 10.7089 7.76471 10.773 7.73724 10.837L6.03741 14.6273C5.95161 14.8172 5.92493 15.0284 5.96086 15.2336C5.99678 15.4388 6.09364 15.6284 6.23883 15.7778L8.95794 18.5763C9.0423 18.6641 9.14147 18.7365 9.25091 18.7899V18.7869Z" fill="url(#paint0_radial_534_3138)"/>
<path d="M12.6838 13.5843C13.0256 13.621 13.3613 13.6942 13.6848 13.8163C14.7224 14.2039 15.6684 15.0736 16.4466 16.7551C16.5015 16.6605 16.5564 16.5659 16.6175 16.4744C17.0927 15.7687 17.5486 15.0503 17.9847 14.3198C18.0381 14.2296 18.0628 14.1253 18.0557 14.0207C18.0486 13.9161 18.01 13.8161 17.945 13.7339C17.6093 13.2883 16.9685 12.385 16.6175 11.5519C16.2574 10.6913 16.2055 9.35462 16.2024 8.70764C16.2024 8.46045 16.1231 8.21936 15.9705 8.02405L13.2697 4.59387C13.255 4.57607 13.2398 4.55877 13.2239 4.54199C13.4017 5.07413 13.4228 5.64611 13.2849 6.18994C13.1542 6.62904 12.974 7.05188 12.7478 7.45032L12.5281 7.88366C12.1759 8.55437 11.9738 9.29375 11.9361 10.0504C11.8995 10.9476 12.0826 12.0767 12.6838 13.5843Z" fill="url(#paint1_radial_534_3138)"/>
<path d="M12.6836 13.584C12.0824 12.0764 11.8962 10.9473 11.9359 10.047C11.9737 9.29038 12.1757 8.551 12.528 7.88029C12.5981 7.73381 12.6745 7.59037 12.7477 7.45C12.9644 7.0258 13.1749 6.62602 13.2848 6.18657C13.4227 5.64274 13.4015 5.07075 13.2237 4.53861C13.0386 4.33458 12.7802 4.21229 12.5049 4.19856C12.2298 4.18483 11.9604 4.28079 11.7559 4.46537L8.5393 7.35844C8.35991 7.52009 8.2423 7.73911 8.20666 7.97795L7.81604 10.572L7.80078 10.6421C8.5271 11.1152 9.44873 11.875 9.94008 13.0835C10.0416 13.3283 10.1212 13.5816 10.1781 13.8404C11.0326 13.6328 11.878 13.5047 12.6836 13.587V13.584Z" fill="url(#paint2_radial_534_3138)"/>
<path d="M14.3678 19.7846C15.0606 19.9738 15.7594 19.4184 15.854 18.7043C15.9328 18.0241 16.1333 17.3635 16.446 16.7542C15.6648 15.0758 14.7218 14.203 13.6873 13.8154C12.5886 13.4065 11.3924 13.5408 10.1778 13.8368C10.4493 15.0697 10.2876 16.6841 9.25 18.7867C9.37207 18.8416 9.4972 18.8783 9.63147 18.8874C9.63147 18.8874 10.3761 18.9484 11.2672 19.0126C12.1522 19.0736 13.4767 19.5344 14.3678 19.7816V19.7846Z" fill="url(#paint3_radial_534_3138)"/>
<path fill-rule="evenodd" clip-rule="evenodd" d="M11.9411 9.9894C11.9014 10.8805 12.0143 11.9059 12.6155 13.4104L12.4263 13.3951C11.8862 11.8235 11.7702 11.0148 11.8098 10.1114C11.8562 9.34266 12.0686 8.59304 12.4324 7.91418C12.5056 7.76465 12.6766 7.48388 12.7528 7.34045C12.9695 6.92236 13.116 6.69959 13.2411 6.31506C13.4151 5.78101 13.3784 5.52466 13.3571 5.27441C13.4975 6.18689 12.9695 6.9834 12.5728 7.78906C12.208 8.46805 11.9926 9.21723 11.9411 9.98635V9.9894Z" fill="url(#paint4_radial_534_3138)"/>
<path fill-rule="evenodd" clip-rule="evenodd" d="M10.1179 13.1449C10.1912 13.3097 10.2583 13.4439 10.301 13.6485L10.1393 13.682C10.0752 13.444 10.0233 13.2731 9.93179 13.0717C9.38855 11.79 8.5188 11.1307 7.80469 10.6455C8.66528 11.1094 9.55029 11.8357 10.1148 13.1449H10.1179Z" fill="url(#paint5_radial_534_3138)"/>
<path fill-rule="evenodd" clip-rule="evenodd" d="M10.3086 13.8066C10.6077 15.2105 10.272 16.9866 9.2832 18.7169C10.1102 17.0018 10.51 15.357 10.1774 13.8341L10.3086 13.8066Z" fill="url(#paint6_radial_534_3138)"/>
<path fill-rule="evenodd" clip-rule="evenodd" d="M13.7242 13.6809C15.3447 14.2882 15.9703 15.6218 16.4373 16.7327C15.8574 15.5699 15.0579 14.2821 13.6663 13.803C12.6042 13.4428 11.7101 13.4855 10.1781 13.8334L10.1445 13.6809C11.768 13.3116 12.6165 13.2689 13.7242 13.6809Z" fill="url(#paint7_radial_534_3138)"/>
</g>
</g>
</g>
<defs>
<radialGradient id="paint0_radial_534_3138" cx="0" cy="0" r="1" gradientUnits="userSpaceOnUse" gradientTransform="translate(9.11358 18.5336) rotate(-104.693) scale(7.0986 4.72982)">
<stop stop-color="white" stop-opacity="0.4"/>
<stop offset="1" stop-opacity="0.1"/>
</radialGradient>
<radialGradient id="paint1_radial_534_3138" cx="0" cy="0" r="1" gradientUnits="userSpaceOnUse" gradientTransform="translate(15.174 15.6107) rotate(-82.4846) scale(11.6664 8.61922)">
<stop stop-color="white" stop-opacity="0.6"/>
<stop offset="1" stop-color="white" stop-opacity="0.1"/>
</radialGradient>
<radialGradient id="paint2_radial_534_3138" cx="0" cy="0" r="1" gradientUnits="userSpaceOnUse" gradientTransform="translate(9.54028 13.5596) rotate(-77.7949) scale(9.96024 6.8057)">
<stop stop-color="white" stop-opacity="0.8"/>
<stop offset="1" stop-color="white" stop-opacity="0.4"/>
</radialGradient>
<radialGradient id="paint3_radial_534_3138" cx="0" cy="0" r="1" gradientUnits="userSpaceOnUse" gradientTransform="translate(14.4197 19.8213) rotate(-120.496) scale(5.77298 6.63639)">
<stop stop-color="white" stop-opacity="0.3"/>
<stop offset="1" stop-opacity="0.3"/>
</radialGradient>
<radialGradient id="paint4_radial_534_3138" cx="0" cy="0" r="1" gradientUnits="userSpaceOnUse" gradientTransform="translate(13.647 8.10339) rotate(102.236) scale(5.18368 3.49555)">
<stop stop-color="white" stop-opacity="0"/>
<stop offset="1" stop-color="white" stop-opacity="0.2"/>
</radialGradient>
<radialGradient id="paint5_radial_534_3138" cx="0" cy="0" r="1" gradientUnits="userSpaceOnUse" gradientTransform="translate(7.5758 10.9111) rotate(45.3237) scale(3.81958 8.13562)">
<stop stop-color="white" stop-opacity="0.2"/>
<stop offset="1" stop-color="white" stop-opacity="0.4"/>
</radialGradient>
<radialGradient id="paint6_radial_534_3138" cx="0" cy="0" r="1" gradientUnits="userSpaceOnUse" gradientTransform="translate(10.748 12.8575) rotate(86.0397) scale(3.97678 8.44492)">
<stop stop-color="white" stop-opacity="0.2"/>
<stop offset="1" stop-color="white" stop-opacity="0.3"/>
</radialGradient>
<radialGradient id="paint7_radial_534_3138" cx="0" cy="0" r="1" gradientUnits="userSpaceOnUse" gradientTransform="translate(16.3945 16.3726) rotate(-152.289) scale(6.8253 21.4723)">
<stop stop-color="white" stop-opacity="0.2"/>
<stop offset="0.5" stop-color="white" stop-opacity="0.2"/>
<stop offset="1" stop-color="white" stop-opacity="0.3"/>
</radialGradient>
</defs>
</svg>
