<svg width="24" height="24" viewBox="0 0 24 24" fill="none" xmlns="http://www.w3.org/2000/svg">
<path d="M20.6872 10.1585C20.913 9.47566 20.9909 8.75261 20.9157 8.03738C20.8405 7.32214 20.614 6.63108 20.2513 6.0101C19.7118 5.07212 18.8886 4.32951 17.9002 3.8892C16.9118 3.4489 15.8092 3.33361 14.7511 3.55994C14.1501 2.89136 13.3838 2.39265 12.5291 2.11389C11.6744 1.83514 10.7614 1.78614 9.88182 1.97182C9.00221 2.1575 8.18693 2.57133 7.51783 3.17175C6.84874 3.77216 6.34938 4.53805 6.06989 5.39249C5.36523 5.5378 4.69957 5.83144 4.11717 6.25389C3.53476 6.67634 3.04896 7.21793 2.69205 7.84266C2.14757 8.77961 1.91496 9.86536 2.02779 10.9431C2.14062 12.0209 2.59307 13.0349 3.31979 13.8388C3.09207 14.5212 3.01271 15.2444 3.08702 15.96C3.16133 16.6755 3.3876 17.367 3.75069 17.988C4.29037 18.9268 5.11424 19.67 6.10352 20.1103C7.0928 20.5507 8.19637 20.6655 9.25511 20.4382C9.73316 20.9756 10.3201 21.4051 10.9769 21.6982C11.6338 21.9913 12.3454 22.1412 13.0647 22.1381C14.1491 22.1386 15.2057 21.7947 16.0821 21.156C16.9586 20.5174 17.6096 19.617 17.9414 18.5845C18.6459 18.4391 19.3114 18.1454 19.8936 17.723C20.4759 17.3005 20.9615 16.759 21.3184 16.1343C21.8564 15.1989 22.085 14.1173 21.9717 13.0441C21.8583 11.9709 21.4088 10.961 20.6872 10.1585ZM13.0647 20.8116C12.1767 20.8128 11.3166 20.5018 10.6348 19.9329L10.7539 19.8645L14.7916 17.5343C14.8917 17.475 14.9747 17.3909 15.0327 17.2901C15.0908 17.1893 15.1218 17.0753 15.1228 16.959V11.267L16.8295 12.2538C16.838 12.258 16.8453 12.2642 16.8509 12.2719C16.8565 12.2795 16.8602 12.2884 16.8616 12.2977V17.0147C16.8594 18.021 16.4586 18.9855 15.747 19.6971C15.0355 20.4086 14.071 20.8094 13.0647 20.8116ZM4.90311 17.3256C4.45743 16.5565 4.29737 15.6547 4.45109 14.7792L4.57107 14.851L8.61215 17.182C8.71204 17.2407 8.8258 17.2716 8.94165 17.2716C9.05751 17.2716 9.17126 17.2407 9.27116 17.182L14.2078 14.3356V16.3059C14.2075 16.3161 14.2048 16.3262 14.1999 16.3353C14.1951 16.3444 14.1883 16.3522 14.1799 16.3582L10.0907 18.7163C9.2181 19.2187 8.18187 19.3544 7.20934 19.0937C6.23681 18.8329 5.40742 18.1971 4.90311 17.3256ZM3.83855 8.53208C4.28801 7.75855 4.99585 7.16828 5.83755 6.86513V11.6615C5.83628 11.7774 5.866 11.8916 5.92364 11.9921C5.98127 12.0927 6.06472 12.176 6.16536 12.2335L11.0784 15.0673L9.3717 16.0541C9.36238 16.0587 9.35211 16.0611 9.34171 16.0611C9.3313 16.0611 9.32104 16.0587 9.31171 16.0541L5.23092 13.7002C4.35962 13.1956 3.72386 12.3662 3.46288 11.3937C3.2019 10.4212 3.33699 9.38489 3.83855 8.51181V8.53208ZM17.8611 11.7891L12.9329 8.92749L14.6353 7.94404C14.6447 7.93943 14.6549 7.93702 14.6653 7.93702C14.6757 7.93702 14.686 7.93943 14.6953 7.94404L18.7761 10.3021C19.4004 10.662 19.9094 11.1921 20.2437 11.8304C20.578 12.4688 20.7236 13.1892 20.6638 13.9073C20.6039 14.6254 20.3409 15.3116 19.9055 15.8858C19.4701 16.46 18.8803 16.8984 18.205 17.1499V12.3526C18.2014 12.237 18.1679 12.1242 18.1076 12.0254C18.0473 11.9266 17.9624 11.8452 17.8611 11.7891ZM19.5593 9.23503L19.4402 9.16321L15.4067 6.81274C15.306 6.75412 15.1916 6.72323 15.0751 6.72323C14.9586 6.72323 14.8442 6.75412 14.7435 6.81274L9.81104 9.65916V7.68804C9.81035 7.67816 9.81215 7.66826 9.81629 7.65925C9.82042 7.65025 9.82675 7.64243 9.8347 7.6365L13.9155 5.28181C14.541 4.92183 15.256 4.74731 15.9771 4.77866C16.6981 4.81001 17.3953 5.04593 17.9872 5.45884C18.5791 5.87176 19.0413 6.44462 19.3196 7.11046C19.598 7.77631 19.6812 8.50763 19.5593 9.21897V9.23503ZM8.87998 12.7286L7.17331 11.7452C7.16473 11.74 7.15739 11.733 7.15184 11.7247C7.14629 11.7164 7.14266 11.7069 7.14121 11.697V6.99355C7.14262 6.2721 7.34928 5.56595 7.73704 4.95756C8.1248 4.34917 8.67765 3.86367 9.33103 3.55776C9.98441 3.25184 10.7113 3.13814 11.4269 3.22994C12.1425 3.32173 12.8172 3.61524 13.3722 4.07616L13.2523 4.14375L9.2154 6.47394C9.1152 6.53315 9.03199 6.61722 8.97381 6.71802C8.91564 6.81882 8.88448 6.93293 8.88336 7.04931L8.87998 12.7286ZM9.80682 10.7305L12.0052 9.46314L14.2078 10.7305V13.2643L12.0137 14.5316L9.81104 13.2643L9.80682 10.7305Z" fill="white"/>
</svg>
