<svg width="24" height="24" viewBox="0 0 24 24" fill="none" xmlns="http://www.w3.org/2000/svg">
<mask id="mask0_534_3200" style="mask-type:luminance" maskUnits="userSpaceOnUse" x="2" y="2" width="20" height="20">
<path d="M17.2941 2H6.70588C4.1069 2 2 4.1069 2 6.70588V17.2941C2 19.8931 4.1069 22 6.70588 22H17.2941C19.8931 22 22 19.8931 22 17.2941V6.70588C22 4.1069 19.8931 2 17.2941 2Z" fill="white"/>
</mask>
<g mask="url(#mask0_534_3200)">
<path d="M20.7761 2H3.225C2.5484 2 2 2.54725 2 3.22159V20.7715C2 21.447 2.5484 21.9954 3.225 21.9954H20.7761C21.4516 21.9954 22 21.447 22 20.7715V3.22276C22 2.54725 21.4516 2 20.7761 2Z" fill="#0C1B31"/>
<path d="M18.1443 4.99805H5.85574C5.38202 4.99805 4.99805 5.38121 4.99805 5.85336V18.1411C4.99805 18.6141 5.38202 18.998 5.85574 18.998H18.1443C18.6173 18.998 19.0013 18.6141 19.0013 18.1411V5.85418C19.0013 5.38121 18.6173 4.99805 18.1443 4.99805Z" fill="#2396ED"/>
<path d="M9.1053 8.13035C10.2234 8.13041 10.8563 8.67603 10.8574 9.58706C10.8572 10.6031 10.1209 11.2055 8.9286 11.2055C8.60515 11.2055 8.37122 11.1916 8.17959 11.1484V8.22003C8.34035 8.1747 8.64974 8.13035 9.1053 8.13035Z" fill="#0C1B31"/>
<path fill-rule="evenodd" clip-rule="evenodd" d="M19.9009 2.99805C20.5088 2.99817 21.0024 3.49072 21.0024 4.09871V19.8965C21.0024 20.5045 20.5089 20.9979 19.9009 20.998H4.10046C3.49154 20.9979 2.99805 20.5045 2.99805 19.8965V4.09783C2.99805 3.49089 3.49154 2.99824 4.10046 2.99805H19.9009ZM16.2948 9.07189C14.5138 9.07189 13.3655 10.0902 13.3655 11.4279C13.3512 12.2813 13.9261 13.0917 15.4121 13.5915C16.2498 13.8717 16.4705 14.0475 16.4706 14.4143C16.4706 14.7833 16.19 15.0183 15.515 15.0183C14.8513 15.0182 13.9967 14.7233 13.5844 14.475L13.1879 16.0794C13.7331 16.3751 14.5711 16.5787 15.515 16.5787C17.5721 16.5787 18.6341 15.5925 18.6341 14.2517C18.6207 13.1943 18.0456 12.5019 16.6772 12.0319C15.794 11.7217 15.5168 11.5453 15.5167 11.2073C15.5167 10.8394 15.8246 10.6183 16.3677 10.6183C16.9871 10.6183 17.6045 10.8524 17.9282 11.0297L18.3246 9.4842C17.8836 9.26469 17.1336 9.07194 16.2948 9.07189ZM8.9875 6.44068C7.61773 6.44068 6.64611 6.52902 5.95453 6.64552V16.4328H8.17783V12.8846C8.38391 12.9145 8.64786 12.9295 8.94354 12.9295C10.2659 12.9295 11.4009 12.6057 12.1646 11.8842C12.7541 11.3236 13.0788 10.5023 13.0789 9.53167C13.0789 8.56081 12.6529 7.7363 12.0169 7.23541C11.3563 6.70465 10.3694 6.44073 8.9875 6.44068Z" fill="#0C1B31"/>
</g>
</svg>
