<svg width="24" height="24" viewBox="0 0 24 24" fill="none" xmlns="http://www.w3.org/2000/svg">
<path d="M10.0528 21.203C10.8095 21.203 11.4229 21.8164 11.4229 22.5731C11.4229 23.3298 10.8095 23.9432 10.0528 23.9432C9.29611 23.9432 8.6827 23.3298 8.6827 22.5731C8.6827 21.8164 9.29611 21.203 10.0528 21.203ZM17.6541 18.7032L19.0081 19.1044L17.9333 22.7317C17.8394 23.0486 17.5382 23.258 17.2084 23.2355L16.8764 23.2127L16.8683 23.2195L13.4191 22.9774L13.5151 21.5685L15.8324 21.7258L14.3153 19.5373L15.4758 18.7327L16.9949 20.9239L17.6541 18.7032ZM2.91772 16.1956L4.32632 16.2954L4.16132 18.6124L6.34584 17.0933L7.15226 18.2526L4.96489 19.7732L7.19756 20.4311L6.79848 21.7857L3.15404 20.7119C2.83587 20.6182 2.62584 20.3156 2.64928 19.9848L2.91772 16.1956ZM12.0126 14.2226L14.5549 17.292L13.4091 18.241L11.8961 16.4143L11.4056 19.2228L9.94002 18.9666L10.431 16.1538L8.39414 17.3547L7.63895 16.0729L11.0621 14.0562C11.3768 13.8708 11.7796 13.9413 12.0126 14.2226ZM19.1254 12.1633L20.3953 11.4724L22.2454 14.8728C22.4075 15.1707 22.3407 15.5412 22.0848 15.7637L21.8231 15.9899L19.1522 18.3143L18.2034 17.2234L19.999 15.6612L17.3245 15.1794L17.581 13.7566L20.2537 14.2381L19.1254 12.1633ZM4.14852 8.60827L5.10518 9.69224L3.33422 11.2542L6.0139 11.722L5.76553 13.1463L3.08289 12.6781L4.23518 14.7612L2.97009 15.461L1.09037 12.0631C0.926248 11.7664 0.990371 11.3955 1.24457 11.1712L4.14852 8.60827ZM13.2064 7.48997L15.74 10.5511L14.5939 11.4997L13.0813 9.67226L12.5908 12.4816L11.1252 12.2254L11.6145 9.42345L9.58544 10.6129L8.83314 9.32934L11.9499 7.50195L11.953 7.49007L11.9667 7.49186L12.2572 7.32251C12.5718 7.13808 12.9738 7.209 13.2064 7.48997ZM16.4713 5.98453L17.0255 4.64919L20.6099 6.13666C20.9227 6.26649 21.1035 6.59615 21.0447 6.92973L20.985 7.26155L20.3729 10.7433L18.9491 10.4925L19.3594 8.16178L16.9813 9.47607L16.2825 8.21043L18.6651 6.89507L16.4713 5.98453ZM9.64308 3.35311L9.70471 4.79755L7.33694 4.89875L9.12275 6.93958L8.03471 7.89161L6.2459 5.84774L5.82914 8.18114L4.40597 7.92659L5.08801 4.11336C5.14762 3.7801 5.43054 3.53285 5.76878 3.51842L6.10385 3.50343L6.11136 3.49798L9.64308 3.35311ZM14.4865 0.272662L17.0087 3.35308L15.8576 4.29562L14.3606 2.46703L13.8557 5.27263L12.3914 5.00913L12.8972 2.19721L10.8533 3.39219L10.1027 2.10764L13.5356 0.101656C13.8515 -0.0829268 14.2547 -0.0104131 14.4865 0.272662Z" fill="white"/>
</svg>
