<svg width="24" height="24" viewBox="0 0 24 24" fill="none" xmlns="http://www.w3.org/2000/svg">
<path d="M17.0182 16.9545C17.1608 15.8016 17.1181 15.6326 18.0032 15.8193L18.2279 15.8385C18.9086 15.8685 19.7989 15.7323 20.3219 15.4965C21.4479 14.9897 22.1156 14.1435 21.0053 14.3658C18.4728 14.8727 18.2986 14.0408 18.2986 14.0408C20.9729 10.1915 22.0908 5.30515 21.1259 4.10908C18.494 0.846633 13.9382 2.38937 13.862 2.42942L13.8377 2.43377C13.3373 2.33305 12.7773 2.27287 12.1482 2.263C11.0021 2.24473 10.1325 2.55447 9.47285 3.03986C9.47285 3.03986 1.34564 -0.208365 1.72373 7.12484C1.80414 8.68482 4.02869 18.929 6.68189 15.8348C7.65162 14.7033 8.58877 13.7466 8.58877 13.7466C9.05412 14.0466 9.61127 14.1996 10.1956 14.1446L10.2408 14.1072C10.2266 14.2477 10.2329 14.3851 10.2588 14.5478C9.57547 15.2886 9.77627 15.4187 8.40977 15.6916C7.02726 15.968 7.83948 16.4601 8.36964 16.5888C9.01253 16.7447 10.4998 16.9657 11.505 15.6009L11.4649 15.7566C11.733 15.9647 11.7149 17.2522 11.7529 18.1722C11.791 19.0922 11.8545 19.9507 12.0478 20.4568C12.2411 20.9629 12.4692 22.2666 14.2651 21.8932C15.766 21.5812 16.9136 21.1321 17.0182 16.9545Z" fill="black" stroke="black" stroke-width="1.82665"/>
<path d="M21.0058 14.3658C18.473 14.8726 18.2989 14.0407 18.2989 14.0407C20.9731 10.1912 22.091 5.30478 21.1263 4.10885C18.4944 0.846605 13.9385 2.38944 13.8624 2.42949L13.838 2.43374C13.3376 2.33297 12.7775 2.27294 12.1481 2.26297C11.0021 2.24475 10.1328 2.55444 9.47309 3.03974C9.47309 3.03974 1.34573 -0.208344 1.72373 7.12482C1.80414 8.68489 4.02864 18.929 6.68193 15.8348C7.65171 14.7034 8.58871 13.7467 8.58871 13.7467C9.05412 14.0466 9.61126 14.1996 10.1953 14.1447L10.2407 14.1073C10.2266 14.2478 10.2331 14.3852 10.2589 14.5479C9.57536 15.2887 9.77621 15.4188 8.40981 15.6917C7.0272 15.9681 7.83943 16.4602 8.36973 16.5888C9.01263 16.7448 10.5 16.9657 11.5049 15.6009L11.4649 15.7567C11.7327 15.9648 11.9208 17.1103 11.8892 18.1487C11.8577 19.1871 11.8367 19.9 12.0477 20.4569C12.2587 21.0137 12.469 22.2667 14.2653 21.8933C15.7662 21.5812 16.544 20.7726 16.6522 19.4238C16.729 18.4649 16.9028 18.6067 16.9138 17.7493L17.0531 17.3435C17.2139 16.0436 17.0787 15.6242 18.0034 15.8193L18.2281 15.8384C18.9087 15.8685 19.7995 15.7322 20.3223 15.4965C21.4481 14.9897 22.1157 14.1435 21.0057 14.3658H21.0058Z" fill="#336791"/>
<path d="M11.6121 15.1109C11.5424 17.5296 11.6297 19.9652 11.8736 20.5571C12.1177 21.149 12.6401 22.3004 14.4365 21.927C15.9373 21.6149 16.4834 21.0109 16.7204 19.6776C16.8949 18.6966 17.2313 15.9723 17.2745 15.4142M9.459 2.98572C9.459 2.98572 1.3261 -0.238969 1.70419 7.09419C1.7846 8.65427 4.00926 18.8988 6.6625 15.8044C7.63208 14.6728 8.50896 13.7853 8.50896 13.7853M13.852 2.39716C13.5704 2.48279 18.376 0.692935 21.107 4.07833C22.0717 5.2743 20.9538 10.1607 18.2796 14.0103" stroke="white" stroke-width="0.608883" stroke-linecap="round" stroke-linejoin="round"/>
<path d="M18.2809 14.0112C18.2809 14.0112 18.4552 14.8433 20.988 14.3362C22.0978 14.1138 21.4299 14.9601 20.3044 15.4672C19.3807 15.8831 17.3098 15.9897 17.276 15.415C17.1889 13.9322 18.3659 14.3827 18.2809 14.0112ZM18.2809 14.0112C18.2041 13.6766 17.6778 13.3482 17.3296 12.5293C17.0257 11.8145 13.1607 6.33306 18.4015 7.14715C18.5935 7.10861 17.0346 2.31119 12.13 2.23319C7.22645 2.15518 7.38733 8.0832 7.38733 8.0832" stroke="white" stroke-width="0.608883" stroke-linecap="round" stroke-linejoin="bevel"/>
<path d="M10.2385 14.5172C9.55488 15.258 9.75593 15.3881 8.38943 15.6611C7.00682 15.9375 7.81915 16.4296 8.3493 16.5581C8.9922 16.7142 10.4795 16.9352 11.4845 15.57C11.7906 15.1544 11.4827 14.4912 11.0623 14.3221C10.8592 14.2405 10.5876 14.1382 10.2385 14.5172Z" stroke="white" stroke-width="0.608883" stroke-linecap="round" stroke-linejoin="round"/>
<path d="M10.1957 14.5045C10.1268 14.0689 10.3432 13.5506 10.5752 12.9442C10.9237 12.0344 11.7279 11.1244 11.0846 8.23836C10.6051 6.08767 7.38893 7.79077 7.38692 8.08239C7.38495 8.37391 7.53238 9.5605 7.33319 10.9423C7.07327 12.7454 8.51586 14.2703 10.177 14.1143" stroke="white" stroke-width="0.608883" stroke-linecap="round" stroke-linejoin="round"/>
<path d="M9.42847 8.039C9.41397 8.1386 9.61643 8.40438 9.88043 8.43989C10.144 8.47555 10.3695 8.26785 10.3838 8.16835C10.3981 8.06875 10.1959 7.95904 9.93184 7.92338C9.66814 7.88767 9.44247 7.93965 9.42852 8.039H9.42847Z" fill="white" stroke="white" stroke-width="0.202959"/>
<path d="M17.4564 7.83488C17.4707 7.93448 17.2685 8.20026 17.0045 8.23577C16.7407 8.27143 16.5151 8.06373 16.5007 7.96423C16.4867 7.86463 16.689 7.75492 16.9528 7.71926C17.2166 7.6836 17.4421 7.73553 17.4564 7.83493V7.83488Z" fill="white" stroke="white" stroke-width="0.10148"/>
<path d="M18.4008 7.14746C18.4442 7.92872 18.2273 8.46086 18.2 9.29253C18.1595 10.5014 18.7941 11.885 17.8379 13.2704" stroke="white" stroke-width="0.608883" stroke-linecap="round" stroke-linejoin="round"/>
</svg>
