<svg width="24" height="24" viewBox="0 0 24 24" fill="none" xmlns="http://www.w3.org/2000/svg">
<path d="M2 11.8296C2.00833 11.8021 2.015 11.7737 2.01875 11.7454C2.03417 11.455 2.0375 11.1612 2.06875 10.8704C2.1175 9.92874 2.43167 9.02041 2.975 8.24958C3.21993 7.9181 3.53922 7.64872 3.90721 7.4631C4.27519 7.27748 4.6816 7.1808 5.09375 7.18083H11.8375C11.9687 7.18083 11.9687 7.18083 11.9687 7.04958V6.58083C11.9687 6.48416 11.9404 6.4625 11.85 6.4625H7.25958C7.18125 6.4625 7.15333 6.44041 7.15333 6.35916V4.06916C7.16833 3.7375 7.30666 3.42333 7.54083 3.18791C7.85182 2.85693 8.23904 2.60703 8.66875 2.46C9.19353 2.27132 9.73912 2.14653 10.2937 2.08833C11.0519 2.00177 11.8159 1.97878 12.5779 2.01958C13.3996 2.035 14.2125 2.18583 14.9846 2.46625C15.5141 2.64486 15.9822 2.96992 16.3346 3.40375C16.6178 3.76827 16.7579 4.22388 16.7283 4.68458C16.7096 5.07208 16.7283 5.4625 16.7283 5.85291V8.01541C16.7283 8.44 16.7283 8.86791 16.7096 9.28958C16.7065 9.74685 16.5648 10.1924 16.303 10.5674C16.0413 10.9424 15.6719 11.2291 15.2437 11.3896C14.8283 11.5596 14.383 11.6445 13.9342 11.6392H9.15916C8.65423 11.6295 8.15655 11.7603 7.72166 12.0171C7.16552 12.3666 6.76932 12.921 6.61875 13.5604C6.52814 13.8827 6.48284 14.216 6.48416 14.5508V16.7158C6.48416 16.8596 6.48416 16.8567 6.34041 16.8596C5.82166 16.8596 5.30291 16.8754 4.77792 16.8596C4.26412 16.8388 3.77405 16.6378 3.39375 16.2917C2.95168 15.8896 2.62208 15.3792 2.4375 14.8108C2.25043 14.2942 2.13164 13.7553 2.08417 13.2079C2.05292 12.8579 2.04042 12.5079 2.01875 12.1612C2.01469 12.1224 2.00843 12.0839 2 12.0458V11.8296Z" fill="#3772A4"/>
<path d="M8.33398 4.391C8.33522 4.56437 8.38775 4.73348 8.48497 4.87703C8.58218 5.02058 8.71972 5.13213 8.88024 5.19762C9.04077 5.26311 9.21709 5.27961 9.38697 5.24503C9.55686 5.21045 9.7127 5.12635 9.83486 5.00333C9.95701 4.8803 10.04 4.72387 10.0734 4.55374C10.1067 4.38361 10.089 4.20741 10.0224 4.04736C9.95575 3.88731 9.84322 3.75056 9.69899 3.65437C9.55475 3.55818 9.38527 3.50684 9.2119 3.50684C8.97852 3.50859 8.7553 3.60251 8.59086 3.76812C8.42642 3.93373 8.33409 4.15762 8.33398 4.391Z" fill="black"/>
<path d="M8.33398 4.39088C8.33398 4.27543 8.35672 4.16111 8.40091 4.05444C8.44509 3.94778 8.50985 3.85086 8.59149 3.76922C8.67312 3.68758 8.77004 3.62282 8.87671 3.57864C8.98337 3.53446 9.0977 3.51172 9.21315 3.51172C9.3286 3.51172 9.44293 3.53446 9.54959 3.57864C9.65626 3.62282 9.75318 3.68758 9.83481 3.76922C9.91645 3.85086 9.98121 3.94778 10.0254 4.05444C10.0696 4.16111 10.0923 4.27543 10.0923 4.39088C10.0923 4.62405 9.99969 4.84767 9.83481 5.01255C9.66994 5.17743 9.44632 5.27005 9.21315 5.27005C8.97998 5.27005 8.75636 5.17743 8.59149 5.01255C8.42661 4.84767 8.33398 4.62405 8.33398 4.39088Z" fill="white"/>
<path d="M21.9984 12.1667C21.9901 12.1942 21.9834 12.2226 21.9797 12.2513C21.9642 12.5417 21.9609 12.8355 21.9297 13.1263C21.8808 14.0679 21.5667 14.9765 21.0234 15.7471C20.7788 16.0792 20.4596 16.3491 20.0916 16.5352C19.7236 16.7214 19.3171 16.8185 18.9047 16.8188H12.1609C12.0297 16.8188 12.0297 16.8188 12.0297 16.9501V17.4188C12.0297 17.5155 12.058 17.5376 12.1484 17.5376H16.7392C16.8172 17.5376 16.8455 17.5592 16.8455 17.6405V19.9305C16.8302 20.2622 16.6921 20.5763 16.458 20.8117C16.1469 21.1428 15.7595 21.3927 15.3297 21.5396C14.806 21.7281 14.2615 21.8528 13.708 21.9113C12.9497 21.998 12.1855 22.0209 11.4234 21.9801C10.6022 21.9649 9.78914 21.8139 9.01717 21.5334C8.4876 21.3548 8.0195 21.0297 7.66717 20.5959C7.38389 20.2314 7.24383 19.7758 7.27342 19.3151C7.29217 18.9276 7.27342 18.5371 7.27342 18.1467V15.9842C7.27342 15.5596 7.27342 15.1317 7.29217 14.7101C7.29512 14.2528 7.4368 13.8073 7.69846 13.4323C7.96012 13.0573 8.32945 12.7706 8.75758 12.6101C9.17299 12.44 9.61833 12.3551 10.0672 12.3605H14.8392C15.3442 12.3701 15.8419 12.2393 16.2767 11.9826C16.8336 11.6322 17.2298 11.0765 17.3797 10.4359C17.4703 10.1136 17.5155 9.78027 17.5142 9.44548V7.28048C17.5142 7.13673 17.5142 7.14007 17.658 7.13673C18.1767 7.13673 18.6955 7.12132 19.2205 7.13673C19.7344 7.1577 20.2245 7.35907 20.6047 7.70548C21.0467 8.10758 21.3763 8.61797 21.5609 9.18632C21.7473 9.70499 21.865 10.2458 21.9109 10.7951C21.9422 11.1451 21.9547 11.4951 21.9767 11.8417C21.9809 11.8796 21.9872 11.9171 21.9955 11.9542C21.9976 12.023 21.9984 12.0938 21.9984 12.1667Z" fill="#FFDA4B"/>
<path d="M15.666 19.4957C15.6647 19.3223 15.6122 19.1532 15.515 19.0097C15.4178 18.8661 15.2802 18.7546 15.1197 18.6891C14.9592 18.6236 14.7829 18.6071 14.613 18.6417C14.4431 18.6762 14.2872 18.7603 14.1651 18.8834C14.0429 19.0064 13.9599 19.1628 13.9266 19.333C13.8932 19.5031 13.9109 19.6793 13.9776 19.8393C14.0442 19.9994 14.1567 20.1361 14.301 20.2323C14.4452 20.3285 14.6147 20.3799 14.7881 20.3799C15.0214 20.3781 15.2447 20.2842 15.4091 20.1186C15.5735 19.953 15.6659 19.7291 15.666 19.4957Z" fill="black"/>
<path d="M15.6665 19.4973C15.6665 19.7305 15.5739 19.9541 15.409 20.119C15.2442 20.2839 15.0205 20.3765 14.7874 20.3765C14.5542 20.3765 14.3306 20.2839 14.1657 20.119C14.0008 19.9541 13.9082 19.7305 13.9082 19.4973C13.9082 19.2642 14.0008 19.0405 14.1657 18.8757C14.3306 18.7108 14.5542 18.6182 14.7874 18.6182C15.0205 18.6182 15.2442 18.7108 15.409 18.8757C15.5739 19.0405 15.6665 19.2642 15.6665 19.4973Z" fill="white"/>
</svg>
