<svg width="24" height="24" viewBox="0 0 24 24" fill="none" xmlns="http://www.w3.org/2000/svg">
<path d="M11.8636 13.4333C12.8929 13.4333 13.7273 12.5989 13.7273 11.5697C13.7273 10.5404 12.8929 9.70605 11.8636 9.70605C10.8344 9.70605 10 10.5404 10 11.5697C10 12.5989 10.8344 13.4333 11.8636 13.4333Z" fill="#61DAFB"/>
<path d="M12 15.3893C17.5228 15.3893 22 13.6798 22 11.5711C22 9.46239 17.5228 7.75293 12 7.75293C6.47715 7.75293 2 9.46239 2 11.5711C2 13.6798 6.47715 15.3893 12 15.3893Z" stroke="#61DAFB" stroke-width="0.909091"/>
<path d="M8.6914 13.4784C11.4528 18.2614 15.1718 21.284 16.998 20.2296C18.8243 19.1752 18.0661 14.4432 15.3047 9.66025C12.5433 4.87733 8.82425 1.85473 6.99805 2.90909C5.17184 3.96345 5.92998 8.69551 8.6914 13.4784Z" stroke="#61DAFB" stroke-width="0.909091"/>
<path d="M8.6914 9.66141C5.92998 14.4443 5.17184 19.1764 6.99805 20.2308C8.82425 21.2851 12.5433 18.2625 15.3047 13.4796C18.0661 8.69666 18.8243 3.96461 16.998 2.91025C15.1718 1.85588 11.4528 4.87848 8.6914 9.66141Z" stroke="#61DAFB" stroke-width="0.909091"/>
</svg>
