<svg width="24" height="24" viewBox="0 0 24 24" fill="none" xmlns="http://www.w3.org/2000/svg">
<g clip-path="url(#clip0_534_3165)">
<path d="M14.0246 23.5965C13.3948 24.3684 12.1179 23.9455 12.1027 22.9598L11.8809 8.54297H21.8398C23.6436 8.54297 24.6496 10.571 23.528 11.9461L14.0246 23.5965Z" fill="url(#paint0_linear_534_3165)"/>
<path d="M14.0246 23.5965C13.3948 24.3684 12.1179 23.9455 12.1027 22.9598L11.8809 8.54297H21.8398C23.6436 8.54297 24.6496 10.571 23.528 11.9461L14.0246 23.5965Z" fill="url(#paint1_linear_534_3165)" fill-opacity="0.2"/>
<path d="M9.97491 0.3987C10.6047 -0.37334 11.8816 0.049682 11.8968 1.03538L11.994 15.4522H2.15972C0.355836 15.4522 -0.65022 13.4242 0.471486 12.0491L9.97491 0.3987Z" fill="#3ECF8E"/>
</g>
<defs>
<linearGradient id="paint0_linear_534_3165" x1="14.409" y1="11.7395" x2="20.0726" y2="14.1798" gradientUnits="userSpaceOnUse">
<stop stop-color="#249361"/>
<stop offset="1" stop-color="#3ECF8E"/>
</linearGradient>
<linearGradient id="paint1_linear_534_3165" x1="12.1222" y1="6.50971" x2="15.6361" y2="13.3055" gradientUnits="userSpaceOnUse">
<stop/>
<stop offset="1" stop-opacity="0"/>
</linearGradient>
<clipPath id="clip0_534_3165">
<rect width="24" height="24" fill="white"/>
</clipPath>
</defs>
</svg>
