<svg width="24" height="24" viewBox="0 0 24 24" fill="none" xmlns="http://www.w3.org/2000/svg">
<path opacity="0.04" d="M2 21.5244V22.0006C2 22.5282 2.42476 22.953 2.95238 22.953H21.0476C21.5752 22.953 22 22.5282 22 22.0006V21.5244C22 22.052 21.5752 22.4768 21.0476 22.4768H2.95238C2.42476 22.4768 2 22.052 2 21.5244Z" fill="#37474F"/>
<path opacity="0.08" d="M2 21.2861V21.5242C2 22.0518 2.42476 22.4766 2.95238 22.4766H21.0476C21.5752 22.4766 22 22.0518 22 21.5242V21.2861C22 21.8138 21.5752 22.2385 21.0476 22.2385H2.95238C2.42476 22.2385 2 21.8138 2 21.2861Z" fill="black"/>
<path opacity="0.16" d="M2 21.0479V21.2859C2 21.8136 2.42476 22.2383 2.95238 22.2383H21.0476C21.5752 22.2383 22 21.8136 22 21.2859V21.0479C22 21.5755 21.5752 22.0002 21.0476 22.0002H2.95238C2.42476 22.0002 2 21.5755 2 21.0479Z" fill="black"/>
<path opacity="0.8" d="M21.0476 2H2.95238C2.4264 2 2 2.4264 2 2.95238V21.0476C2 21.5736 2.4264 22 2.95238 22H21.0476C21.5736 22 22 21.5736 22 21.0476V2.95238C22 2.4264 21.5736 2 21.0476 2Z" fill="#003642"/>
<path d="M9.14258 8.66699V9.61937H11.9997V8.66699H9.14258Z" fill="#3BDB60"/>
<path fill-rule="evenodd" clip-rule="evenodd" d="M5.33398 5.33398V6.28637L7.23875 7.23875L5.33398 8.19113V9.14351L8.66732 7.23875L5.33398 5.33398Z" fill="#3BDB60"/>
<g opacity="0.05">
<path d="M2.95238 2H21.0476C21.5752 2 22 2.42476 22 2.95238V12H2V2.95238C2 2.42476 2.42476 2 2.95238 2Z" fill="url(#paint0_linear_534_3121)"/>
<path d="M2.95238 22H21.0476C21.5752 22 22 21.5752 22 21.0476V12H2V21.0476C2 21.5752 2.42476 22 2.95238 22Z" fill="url(#paint1_linear_534_3121)"/>
</g>
<defs>
<linearGradient id="paint0_linear_534_3121" x1="12.4762" y1="12" x2="12.4762" y2="2" gradientUnits="userSpaceOnUse">
<stop stop-color="white"/>
<stop offset="1" stop-color="white" stop-opacity="0"/>
</linearGradient>
<linearGradient id="paint1_linear_534_3121" x1="12" y1="12" x2="12" y2="22" gradientUnits="userSpaceOnUse">
<stop/>
<stop offset="1" stop-opacity="0"/>
</linearGradient>
</defs>
</svg>
