<svg width="24" height="24" viewBox="0 0 24 24" fill="none" xmlns="http://www.w3.org/2000/svg">
<path d="M17.3125 2H6.6875C4.09867 2 2 4.09867 2 6.6875V17.3125C2 19.9013 4.09867 22 6.6875 22H17.3125C19.9013 22 22 19.9013 22 17.3125V6.6875C22 4.09867 19.9013 2 17.3125 2Z" fill="#F4F2ED"/>
<path d="M4.63472 9.82827C4.63472 9.82827 4.26484 9.56163 4.70869 9.20562L5.74281 8.28093C5.74281 8.28093 6.03871 7.96961 6.35157 8.24086L15.8944 15.4658V18.9303C15.8944 18.9303 15.8898 19.4744 15.1916 19.4142L4.63472 9.82827Z" fill="#2489CA"/>
<path d="M7.09351 12.0615L4.63382 14.2977C4.63382 14.2977 4.38107 14.4857 4.63382 14.8218L5.77582 15.8604C5.77582 15.8604 6.04706 16.1518 6.44776 15.8204L9.0554 13.8431L7.09351 12.0615Z" fill="#1070B3"/>
<path d="M11.4111 12.0809L15.9221 8.63636L15.8928 5.19034C15.8928 5.19034 15.7002 4.43825 15.0575 4.82971L9.05469 10.2931L11.4111 12.0809Z" fill="#0877B9"/>
<path d="M15.1911 19.4195C15.4531 19.6876 15.7706 19.5998 15.7706 19.5998L19.286 17.8675C19.736 17.5608 19.6728 17.1802 19.6728 17.1802V6.8359C19.6728 6.38126 19.2073 6.22406 19.2073 6.22406L16.1605 4.75534C15.4948 4.34385 15.0586 4.82931 15.0586 4.82931C15.0586 4.82931 15.6195 4.42553 15.8939 5.18995V18.8677C15.8939 18.9617 15.8738 19.0542 15.8338 19.1374C15.7537 19.2992 15.5795 19.4503 15.1619 19.3871L15.1911 19.4195Z" fill="#3C99D4"/>
</svg>
