<svg preserveAspectRatio="none" width="100%" height="100%" overflow="visible" style="display: block;" viewBox="0 0 16.5094 18.1667" fill="none" xmlns="http://www.w3.org/2000/svg">
<path id="Vector" d="M6.58336 17.4167V14.0833C6.52503 13.5667 6.5667 13.0417 6.70836 12.5417C6.85003 12.0417 7.0917 11.575 7.4167 11.1667C4.9167 11.1667 2.4167 9.5 2.4167 6.58333C2.34876 5.54399 2.64326 4.51324 3.25003 3.66667C3.00003 2.70833 3.00003 1.70833 3.25003 0.75C3.25003 0.75 4.08336 0.75 5.75003 2C7.95003 1.58333 10.2167 1.58333 12.4167 2C14.0834 0.75 14.9167 0.75 14.9167 0.75C15.15 1.70833 15.15 2.70833 14.9167 3.66667C15.525 4.51667 15.8167 5.54167 15.75 6.58333C15.75 9.5 13.25 11.1667 10.75 11.1667C11.4 11.9918 11.6993 13.0394 11.5834 14.0833V17.4167M6.58336 14.0833C2.82503 15.75 2.41667 12.4167 0.75 12.4167" stroke="var(--stroke-0, white)" stroke-width="1.5" stroke-linecap="round" stroke-linejoin="round"/>
</svg>
