<svg preserveAspectRatio="none" width="100%" height="100%" overflow="visible" style="display: block;" viewBox="0 0 19.5 19.622" fill="none" xmlns="http://www.w3.org/2000/svg">
<g id="Group">
<g id="Vector">
</g>
<path id="Vector_2" d="M12.2695 10.268L11.1975 11.34L12.2695 12.412L10.84 13.8415L15.9625 18.964C16.677 19.6785 17.749 19.6785 18.464 18.964C19.1785 18.249 19.1785 17.177 18.464 16.4625L12.2695 10.268ZM16.9155 18.3685C16.439 18.3685 15.9625 18.011 15.9625 17.4155C15.9625 16.939 16.3195 16.4625 16.9155 16.4625C17.511 16.4625 17.8685 16.8195 17.8685 17.4155C17.8685 18.011 17.511 18.3685 16.9155 18.3685ZM4.2885 10.03L5.3605 9.315L7.1475 7.29L8.2195 8.362L9.2915 7.29L9.1725 7.171C9.4105 6.575 9.53 5.9795 9.53 5.265C9.53 2.644 7.3855 0.5 4.765 0.5C4.05 0.5 3.4545 0.619 2.859 0.8575L6.3135 4.312L3.812 6.8135L0.3575 3.359C0.119 3.9545 0 4.55 0 5.265C0 7.7665 1.906 9.6725 4.2885 10.03Z" fill="var(--fill-0, #D6D6D6)"/>
<path id="Vector_3" d="M9.53086 13.4486L10.6029 12.4896L9.53086 11.4106L16.3209 4.57757L17.7504 4.09807L19.0604 1.46107L18.2269 0.62207L15.4869 1.82057L14.8914 3.25907L8.22036 10.0921L7.14836 9.01307L6.19536 10.0921C6.19536 10.0921 7.14836 10.8111 6.07636 11.8901C5.48086 12.4896 4.52786 11.7701 2.74086 13.5681L0.239359 16.0856C0.239359 16.0856 -0.475641 17.2846 0.953859 18.7231C2.38336 20.1616 3.57486 19.4421 3.57486 19.4421L6.07636 16.9246C7.74386 15.2466 7.14836 14.1676 7.62486 13.6881C8.69686 12.6091 9.53086 13.4486 9.53086 13.4486ZM5.83786 12.9691L6.67186 13.8081L2.14536 18.3631L1.31136 17.5241L5.83786 12.9691Z" fill="var(--fill-0, #D6D6D6)"/>
</g>
</svg>
