<svg preserveAspectRatio="none" width="100%" height="100%" overflow="visible" style="display: block;" viewBox="0 0 20 20" fill="none" xmlns="http://www.w3.org/2000/svg">
<g id="svg9925606189" clip-path="url(#clip0_431_12489)">
<path id="Vector" d="M10 15C10.283 15 10.521 14.904 10.713 14.712C10.905 14.52 11.001 14.283 11 14C10.999 13.717 10.903 13.48 10.712 13.288C10.521 13.096 10.283 13 10 13C9.717 13 9.479 13.096 9.288 13.288C9.097 13.48 9.001 13.717 9 14C8.999 14.283 9.095 14.52 9.288 14.713C9.481 14.906 9.718 15.001 10 15ZM9 11H11V5H9V11ZM10 20C8.617 20 7.317 19.737 6.1 19.212C4.883 18.687 3.825 17.974 2.925 17.075C2.025 16.176 1.313 15.117 0.788003 13.9C0.263003 12.683 0.00100284 11.383 2.84092e-06 10C-0.000997159 8.617 0.262003 7.317 0.788003 6.1C1.314 4.883 2.026 3.824 2.925 2.925C3.824 2.026 4.882 1.313 6.1 0.788C7.318 0.263 8.618 0 10 0C11.382 0 12.682 0.263 13.9 0.788C15.118 1.313 16.176 2.026 17.075 2.925C17.974 3.824 18.686 4.883 19.213 6.1C19.74 7.317 20.002 8.617 20 10C19.998 11.383 19.735 12.683 19.212 13.9C18.689 15.117 17.976 16.176 17.075 17.075C16.174 17.974 15.115 18.687 13.9 19.213C12.685 19.739 11.385 20.001 10 20Z" fill="var(--fill-0, #7A7A7A)"/>
</g>
<defs>
<clipPath id="clip0_431_12489">
<rect width="20" height="20" fill="white"/>
</clipPath>
</defs>
</svg>
