<svg preserveAspectRatio="none" width="100%" height="100%" overflow="visible" style="display: block;" viewBox="0 0 20 20" fill="none" xmlns="http://www.w3.org/2000/svg">
<g id="SVG">
<path id="Vector" d="M8.8747 10.35V7.3765L6.3047 8.8635L5.3962 7.287L7.9667 5.8L5.3962 4.313L6.3047 2.737L8.8747 4.224V1.25H10.6912V4.224L13.2617 2.737L14.1697 4.313L11.5997 5.8L14.1697 7.287L13.2617 8.8635L10.6912 7.3765V10.35H8.8747ZM18.3747 11.6095L15.8047 13.0965V10.1225H13.9882V13.0965L11.4177 11.6095L10.5097 13.186L13.0797 14.673L10.5097 16.16L11.4177 17.736L13.9882 16.249V19.223H15.8047V16.249L18.3747 17.736L19.2832 16.16L16.7127 14.673L19.2832 13.186L18.3747 11.6095ZM5.5782 16.249V19.223H3.7617V16.249L1.1912 17.736L0.283203 16.16L2.8532 14.673L0.283203 13.186L1.1912 11.6095L3.7617 13.096V10.1225H5.5782V13.0965L8.1482 11.609L9.0567 13.186L6.4862 14.673L9.0567 16.16L8.1482 17.736L5.5782 16.249Z" fill="var(--fill-0, #D6D6D6)"/>
</g>
</svg>
