<svg preserveAspectRatio="none" width="100%" height="100%" overflow="visible" style="display: block;" viewBox="0 0 20 20" fill="none" xmlns="http://www.w3.org/2000/svg">
<g id="svg11094772142">
<path id="Vector" d="M17.74 17.239C17.829 17.385 17.8955 17.534 17.94 17.6865C17.9845 17.8385 18.0065 18.0005 18.0065 18.172C18.0065 18.4255 17.959 18.664 17.864 18.886C17.7685 19.108 17.6385 19.302 17.4735 19.467C17.3085 19.632 17.1145 19.762 16.8925 19.857C16.6705 19.9525 16.4325 20 16.1785 20H3.41003C3.15603 20 2.91803 19.9525 2.69603 19.857C2.47403 19.762 2.28053 19.632 2.11503 19.467C1.95003 19.302 1.82003 19.108 1.72503 18.886C1.62953 18.664 1.58203 18.4255 1.58203 18.172C1.58203 18.0005 1.60103 17.8385 1.63903 17.6865C1.67703 17.534 1.74403 17.385 1.83903 17.239L7.25703 7.7935C7.32053 7.7045 7.35203 7.5965 7.35203 7.4695V1.719H6.13353V0.5H13.446V1.719H12.227V7.4695C12.227 7.5905 12.2585 7.7015 12.322 7.803L17.74 17.239ZM8.57103 7.4695C8.57103 7.806 8.48503 8.1205 8.31353 8.4125L5.16203 13.9065H14.417L11.2655 8.4125C11.094 8.1205 11.0085 7.806 11.0085 7.4695V1.719H8.57103V7.4695Z" fill="var(--fill-0, #D6D6D6)"/>
</g>
</svg>
