<svg preserveAspectRatio="none" width="100%" height="100%" overflow="visible" style="display: block;" viewBox="0 0 20 20" fill="none" xmlns="http://www.w3.org/2000/svg">
<g id="Frame 1000004881">
<path id="Subtitle" d="M4 -3.41585e-07V2.82511C4 3.68311 4.15172 4.59342 4.45516 5.55605C4.76906 6.52915 5.21898 7.46562 5.80493 8.36547C6.40135 9.27579 7.11809 10.0658 7.95516 10.7354L9.96413 9.10314C9.30493 8.16143 8.72945 7.17788 8.23767 6.15247C7.75635 5.13752 7.51569 4.04933 7.51569 2.88789V-3.41585e-07H4ZM12.0359 -3.41585e-07V2.82511C12.0359 3.68311 12.1876 4.59342 12.491 5.55605C12.8049 6.52915 13.2549 7.46562 13.8408 8.36547C14.4372 9.27579 15.154 10.0658 15.991 10.7354L18 9.10314C17.3408 8.16143 16.7653 7.17788 16.2735 6.15247C15.7922 5.13752 15.5516 4.04933 15.5516 2.88789V-3.41585e-07H12.0359Z" fill="var(--fill-0, #FF4A4A)" fill-opacity="0.5"/>
</g>
</svg>
