<svg preserveAspectRatio="none" width="100%" height="100%" overflow="visible" style="display: block;" viewBox="0 0 20 20" fill="none" xmlns="http://www.w3.org/2000/svg">
<g id="moon_fill">
<g id="Vector">
</g>
<path id="Vector_2" fill-rule="evenodd" clip-rule="evenodd" d="M11.3124 2.61479C11.1618 2.58823 11.0068 2.6032 10.864 2.65809C10.7213 2.71299 10.5962 2.80574 10.5022 2.92638C10.4082 3.04701 10.3489 3.19098 10.3305 3.34281C10.3122 3.49464 10.3356 3.64859 10.3982 3.78813C10.8134 4.71304 10.9376 5.74232 10.7544 6.73946C10.5712 7.7366 10.0892 8.65448 9.37228 9.37137C8.65539 10.0883 7.73751 10.5703 6.74037 10.7535C5.74323 10.9367 4.71395 10.8125 3.78903 10.3973C3.64946 10.3345 3.49541 10.3109 3.34345 10.3292C3.19148 10.3474 3.04737 10.4067 2.9266 10.5007C2.80584 10.5947 2.713 10.7199 2.65807 10.8628C2.60314 11.0056 2.5882 11.1608 2.61487 11.3115C2.94104 13.1594 3.94813 14.818 5.43735 15.9598C6.92657 17.1016 8.78971 17.6436 10.659 17.4789C12.5283 17.3142 14.268 16.4547 15.5346 15.0701C16.8012 13.6855 17.5027 11.8763 17.5007 9.99979C17.5007 8.23809 16.8806 6.53261 15.7491 5.18231C14.6176 3.83201 13.0469 2.92306 11.3124 2.61479Z" fill="var(--fill-0, white)" fill-opacity="0.8"/>
</g>
</svg>
