<svg preserveAspectRatio="none" width="100%" height="100%" overflow="visible" style="display: block;" viewBox="0 0 17.333 17.333" fill="none" xmlns="http://www.w3.org/2000/svg">
<g id="vector">
<path id="Vector (Stroke)" d="M15.833 8.66602C15.833 10.5532 15.832 11.8938 15.6953 12.9102C15.5616 13.9047 15.3106 14.4765 14.8936 14.8936C14.4765 15.3106 13.9047 15.5606 12.9102 15.6943C11.8939 15.831 10.554 15.833 8.66699 15.833C6.77981 15.833 5.43917 15.831 4.42285 15.6943C3.42838 15.5606 2.8565 15.3106 2.43945 14.8936C2.02241 14.4765 1.77243 13.9046 1.63867 12.9102C1.50203 11.8938 1.5 10.5532 1.5 8.66602C1.5 6.77901 1.50204 5.43911 1.63867 4.42285C1.7724 3.42831 2.02246 2.85653 2.43945 2.43946C2.85651 2.0224 3.42832 1.77145 4.42285 1.6377C5.43917 1.50106 6.77981 1.5 8.66699 1.5C10.554 1.5 11.8939 1.50106 12.9102 1.6377C13.9049 1.77144 14.4765 2.02235 14.8936 2.43946C15.3107 2.85656 15.5616 3.42813 15.6953 4.42285C15.8319 5.43911 15.833 6.77901 15.833 8.66602ZM3.75 4.5L3.75 10.333C3.75 10.7472 4.08579 11.083 4.5 11.083C4.91421 11.083 5.25 10.7472 5.25 10.333L5.25 4.5C5.25 4.08579 4.91421 3.75 4.5 3.75C4.08579 3.75 3.75 4.08579 3.75 4.5ZM12.083 4.5L12.083 7.83301C12.083 8.79951 11.2995 9.58301 10.333 9.58301C9.427 9.58284 8.6823 8.89415 8.59277 8.01172L8.58301 7.83301L8.58301 4.5C8.58301 4.08579 8.24722 3.75 7.83301 3.75C7.41894 3.75018 7.08301 4.0859 7.08301 4.5L7.08301 10.333C7.08301 10.7471 7.41894 11.0828 7.83301 11.083C8.1718 11.083 8.45481 10.8573 8.54785 10.5488C9.0602 10.8863 9.67361 11.0829 10.333 11.083C12.1279 11.083 13.583 9.62793 13.583 7.83301L13.583 4.5C13.583 4.08579 13.2472 3.75 12.833 3.75C12.4189 3.75018 12.083 4.0859 12.083 4.5ZM4.50684 13.583C4.92097 13.5829 5.25684 13.2472 5.25684 12.833C5.25684 12.4189 4.92097 12.0831 4.50684 12.083H4.49902C4.08489 12.0831 3.74902 12.4189 3.74902 12.833C3.74902 13.2472 4.08489 13.5829 4.49902 13.583H4.50684ZM17.333 8.66602C17.333 6.8214 17.3348 5.36209 17.1816 4.22266C17.0255 3.06176 16.6963 2.12109 15.9541 1.37891C15.2119 0.636729 14.2713 0.30749 13.1104 0.151368C11.9709 -0.00182485 10.5116 8.01737e-07 8.66699 9.88905e-07C6.82236 9.88905e-07 5.3631 -0.00179949 4.22363 0.151368C3.06256 0.307469 2.12117 0.636646 1.37891 1.37891C0.636833 2.12107 0.307478 3.06183 0.151368 4.22266C-0.00182466 5.36209 8.14721e-07 6.8214 1.00191e-06 8.66602C1.00191e-06 10.5106 -0.00179352 11.9699 0.151368 13.1094C0.307471 14.2705 0.636646 15.2118 1.37891 15.9541C2.12117 16.6964 3.06256 17.0255 4.22363 17.1816C5.36309 17.3348 6.82238 17.333 8.66699 17.333C10.5116 17.333 11.9709 17.3348 13.1104 17.1816C14.2712 17.0255 15.2119 16.6962 15.9541 15.9541C16.6964 15.2118 17.0255 14.2705 17.1816 13.1094C17.3348 11.9699 17.333 10.5107 17.333 8.66602Z" fill="var(--fill-0, white)"/>
</g>
</svg>
