<svg preserveAspectRatio="none" width="100%" height="100%" overflow="visible" style="display: block;" viewBox="0 0 18.167 15.667" fill="none" xmlns="http://www.w3.org/2000/svg">
<path id="vector" d="M0 13.25V4.08301C0.000175955 3.66894 0.335895 3.33301 0.75 3.33301C1.1641 3.33301 1.49982 3.66894 1.5 4.08301V13.25C1.5 13.7525 1.91454 14.167 2.41699 14.167H14.083C14.4972 14.167 14.833 14.5028 14.833 14.917C14.8328 15.3311 14.4971 15.667 14.083 15.667H2.41699C1.08611 15.667 0 14.5809 0 13.25ZM16.667 4.49902L11.8525 7.0625L11.8496 7.06348C11.156 7.42856 10.344 7.42856 9.65039 7.06348L9.64746 7.0625L4.83301 4.49902V9.91699C4.83318 10.4231 5.24385 10.833 5.75 10.833H15.75C16.2562 10.833 16.6668 10.4231 16.667 9.91699V4.49902ZM16.667 2.41699C16.667 1.91073 16.2563 1.5 15.75 1.5H5.75C5.24374 1.5 4.83301 1.91073 4.83301 2.41699V2.79883L10.3486 5.73633H10.3496C10.5738 5.85422 10.8224 5.86866 11.0527 5.78027L11.1504 5.73633L16.667 2.79883V2.41699ZM18.167 9.91699C18.1668 11.2515 17.0846 12.333 15.75 12.333H5.75C4.41542 12.333 3.33318 11.2515 3.33301 9.91699V2.41699C3.33301 1.0823 4.41531 0 5.75 0H15.75C17.0847 0 18.167 1.0823 18.167 2.41699V9.91699Z" fill="var(--fill-0, white)"/>
</svg>
