<svg preserveAspectRatio="none" width="100%" height="100%" overflow="visible" style="display: block;" viewBox="0 0 16.4906 14.3699" fill="none" xmlns="http://www.w3.org/2000/svg">
<g id="vector">
<path d="M10.5832 9.03408C10.3142 9.34192 10.1796 9.49583 10.0287 9.63117C9.89466 9.75133 9.75107 9.8605 9.59941 9.9575C9.42866 10.0667 9.24249 10.1562 8.86999 10.335C7.97499 10.7647 7.52749 10.9797 7.23307 10.9039C6.97757 10.8381 6.76824 10.6552 6.66882 10.4107C6.55432 10.1292 6.70741 9.65692 7.01341 8.71242C7.14082 8.31933 7.20449 8.12283 7.28982 7.939C7.36574 7.77567 7.45466 7.61883 7.55582 7.46992C7.66974 7.30225 7.80424 7.14833 8.07332 6.8405L12.2957 2.00923C12.3572 1.93895 12.3879 1.90381 12.425 1.88893C12.4577 1.87583 12.4937 1.87341 12.5277 1.88201C12.5666 1.89179 12.6017 1.92251 12.672 1.98393L14.7803 3.82652C14.8506 3.88795 14.8857 3.91867 14.9006 3.95581C14.9137 3.98848 14.9161 4.02445 14.9075 4.05858C14.8977 4.09737 14.867 4.13252 14.8056 4.2028L10.5832 9.03408Z" fill="var(--fill-0, white)"/>
<path d="M15.5325 3.36184C15.4711 3.43211 15.4404 3.46725 15.4033 3.48215C15.3706 3.49525 15.3346 3.49766 15.3005 3.48906C15.2617 3.47928 15.2265 3.44856 15.1563 3.38714L13.0503 1.54655C12.98 1.48512 12.9449 1.45441 12.9299 1.41727C12.9169 1.3846 12.9144 1.34863 12.923 1.3145C12.9329 1.2757 12.9635 1.24055 13.0249 1.17028L13.401 0.740003C13.6551 0.449312 13.7821 0.303962 13.9182 0.212512C14.2896 -0.0370548 14.766 -0.0690964 15.1674 0.128504C15.3145 0.200912 15.4599 0.327945 15.7506 0.582003C16.0413 0.836053 16.1866 0.963087 16.2781 1.09917C16.5276 1.47054 16.5597 1.94698 16.3621 2.34842C16.2897 2.49552 16.1626 2.64087 15.9086 2.93155L15.5325 3.36184Z" fill="var(--fill-0, white)"/>
<path d="M3.61036 0.764648C3.79019 0.536632 4.11114 0.458563 4.38087 0.59375C4.68938 0.748572 4.81401 1.12411 4.65919 1.43262V1.43457C4.65862 1.4357 4.65739 1.4372 4.65626 1.43945L4.60255 1.54687C4.56526 1.62217 4.51111 1.73314 4.44239 1.87402C4.30482 2.15608 4.11031 2.55891 3.88477 3.04004C3.43298 4.00385 2.85711 5.27724 2.35743 6.52539C1.85258 7.78649 1.44423 8.9764 1.30177 9.79004C1.26931 9.97549 1.25366 10.1284 1.25099 10.249C1.4707 10.145 1.75388 9.95161 2.08692 9.66895C2.49751 9.32044 2.92087 8.89539 3.31544 8.48926C3.69437 8.09922 4.0717 7.6997 4.34767 7.45996C4.41958 7.39751 4.49616 7.3357 4.57325 7.2832C4.64138 7.23682 4.75299 7.16751 4.88868 7.13086C5.02803 7.09332 5.33314 7.06116 5.57716 7.31055C5.77333 7.51116 5.7832 7.75851 5.78321 7.84863C5.78321 8.37781 5.52719 9.00927 5.26075 9.56934C4.9819 10.1555 4.61759 10.8068 4.3086 11.3867C3.98702 11.9903 3.72891 12.5104 3.60645 12.9014C3.57885 12.9895 3.56256 13.0595 3.55274 13.1133C3.60649 13.1067 3.68095 13.0918 3.78028 13.0518C4.01804 12.9559 4.29441 12.774 4.57423 12.5469C4.84836 12.3244 5.09773 12.0821 5.28028 11.8926C5.37088 11.7985 5.4438 11.7192 5.49317 11.6641C5.51772 11.6366 5.53566 11.6146 5.54786 11.6006C5.55396 11.5936 5.55881 11.5881 5.56153 11.585L5.56446 11.582C5.78739 11.3185 6.18179 11.2859 6.44532 11.5088C6.6758 11.7039 6.73025 12.0301 6.59083 12.2852L6.51856 12.3896L6.51661 12.3926C6.51529 12.3941 6.51294 12.3959 6.51075 12.3984C6.50626 12.4037 6.50019 12.4117 6.4922 12.4209C6.47622 12.4393 6.45279 12.4647 6.42384 12.4971C6.36582 12.5619 6.28332 12.6532 6.18067 12.7598C5.97671 12.9715 5.68904 13.2524 5.36231 13.5176C5.0414 13.778 4.65231 14.0476 4.24708 14.2109C3.85172 14.3703 3.31948 14.4745 2.82227 14.1992C2.46903 14.0036 2.32324 13.6681 2.29493 13.3574C2.26928 13.0757 2.3329 12.7834 2.4131 12.5273C2.57562 12.0084 2.89015 11.3899 3.20509 10.7988C3.37276 10.4841 3.54188 10.1727 3.70313 9.87012C3.44255 10.1276 3.1703 10.3888 2.89552 10.6221C2.4511 10.9993 1.93418 11.3713 1.42481 11.5176L1.42579 11.5186C1.19902 11.5837 0.921608 11.6114 0.6504 11.499C0.362633 11.3796 0.192865 11.1496 0.104501 10.9238C-0.0501962 10.5285 -0.0080097 10.0229 0.0703218 9.5752C0.237078 8.6225 0.690426 7.32763 1.19727 6.06152C1.70941 4.78225 2.29599 3.48458 2.75294 2.50977C2.98169 2.02176 3.17844 1.61306 3.31837 1.32617C3.38834 1.18272 3.44407 1.06963 3.48243 0.992187C3.5016 0.953483 3.51628 0.923568 3.52638 0.90332L3.54102 0.874023L3.542 0.873047L3.61036 0.764648Z" fill="var(--fill-0, white)"/>
</g>
</svg>
