<svg preserveAspectRatio="none" width="100%" height="100%" overflow="visible" style="display: block;" viewBox="0 0 10.548 16.7302" fill="none" xmlns="http://www.w3.org/2000/svg">
<path id="vector" fill-rule="evenodd" clip-rule="evenodd" d="M5.27347 0C5.61865 0 5.89847 0.279822 5.89847 0.625V2.75586C6.91646 3.03087 7.66602 3.95852 7.66605 5.06348C7.66605 5.62358 7.47183 6.13726 7.14945 6.54492L8.51468 11.6553C8.56791 11.638 8.61941 11.6226 8.668 11.6055C8.99999 11.4882 9.2275 11.3745 9.36429 11.2959C9.43229 11.2568 9.47826 11.226 9.50394 11.208C9.51653 11.1992 9.52447 11.1927 9.52738 11.1904L9.52445 11.1934C9.78897 10.9744 10.1815 11.0099 10.4024 11.2734C10.6239 11.538 10.5888 11.9327 10.3243 12.1543L10.2891 12.1826C10.2721 12.1957 10.2494 12.212 10.2217 12.2314C10.1661 12.2704 10.0883 12.3208 9.98734 12.3789C9.78482 12.4953 9.488 12.6414 9.08402 12.7842C9.00587 12.8118 8.92311 12.8372 8.83695 12.8643L9.66019 15.9424C9.74924 16.2758 9.55108 16.6188 9.21781 16.708C8.88438 16.7971 8.54135 16.5989 8.45218 16.2656L7.62015 13.1543C6.97328 13.2654 6.19667 13.3408 5.27445 13.3408C4.35136 13.3408 3.57417 13.2656 2.92679 13.1543L2.09574 16.2666C2.00642 16.5996 1.66425 16.7978 1.33109 16.709C0.997653 16.6199 0.799704 16.2768 0.888707 15.9434L1.71097 12.8643C1.62487 12.8372 1.54199 12.8118 1.4639 12.7842C1.0599 12.6414 0.763076 12.4953 0.560582 12.3789C0.459609 12.3208 0.381777 12.2704 0.326207 12.2314C0.298455 12.212 0.258824 12.1826 0.258824 12.1826C0.258824 12.1826 0.253688 12.1785 0.223668 12.1543C-0.0406965 11.9327 -0.0757902 11.538 0.145543 11.2734C0.366226 11.0101 0.757954 10.975 1.0225 11.1934L1.01957 11.1904C1.02235 11.1926 1.03125 11.1991 1.04398 11.208C1.06961 11.2259 1.11558 11.2568 1.18363 11.2959C1.32039 11.3745 1.54789 11.4881 1.87992 11.6055C1.92846 11.6226 1.98007 11.6381 2.03324 11.6553L3.39847 6.54688C3.07532 6.13896 2.88089 5.62431 2.88089 5.06348C2.88093 3.95859 3.63056 3.03094 4.64847 2.75586V0.625C4.64847 0.279845 4.92833 3.68485e-05 5.27347 0ZM6.06156 7.31934C5.81446 7.40564 5.55002 7.45605 5.27347 7.45605C4.99702 7.45604 4.73242 7.40658 4.48539 7.32031L3.25004 11.9414C3.8035 12.03 4.47359 12.0908 5.27445 12.0908C6.07402 12.0908 6.74311 12.0288 7.29593 11.9404L6.06156 7.31934ZM5.27347 3.9209C4.64249 3.92097 4.13093 4.43249 4.13089 5.06348C4.13089 5.6945 4.64247 6.20598 5.27347 6.20605C5.90454 6.20605 6.41605 5.69454 6.41605 5.06348C6.41601 4.43244 5.90452 3.9209 5.27347 3.9209Z" fill="var(--fill-0, white)"/>
</svg>
