<svg preserveAspectRatio="none" width="100%" height="100%" overflow="visible" style="display: block;" viewBox="0 0 21.3333 23.9432" fill="none" xmlns="http://www.w3.org/2000/svg">
<g id="Group">
<path id="Vector" d="M9.0528 21.203C9.80949 21.203 10.4229 21.8164 10.4229 22.5731C10.4229 23.3298 9.80949 23.9432 9.0528 23.9432C8.29611 23.9432 7.6827 23.3298 7.6827 22.5731C7.6827 21.8164 8.29611 21.203 9.0528 21.203ZM16.6541 18.7032L18.0081 19.1044L16.9333 22.7317C16.8394 23.0486 16.5382 23.258 16.2084 23.2355L15.8764 23.2127L15.8683 23.2195L12.4191 22.9774L12.5151 21.5685L14.8324 21.7258L13.3153 19.5373L14.4758 18.7327L15.9949 20.9239L16.6541 18.7032ZM1.91772 16.1956L3.32632 16.2954L3.16132 18.6124L5.34584 17.0933L6.15226 18.2526L3.96489 19.7732L6.19756 20.4311L5.79848 21.7857L2.15404 20.7119C1.83587 20.6182 1.62584 20.3156 1.64928 19.9848L1.91772 16.1956ZM11.0126 14.2226L13.5549 17.292L12.4091 18.241L10.8961 16.4143L10.4056 19.2228L8.94002 18.9666L9.43102 16.1538L7.39414 17.3547L6.63895 16.0729L10.0621 14.0562C10.3768 13.8708 10.7796 13.9413 11.0126 14.2226ZM18.1254 12.1633L19.3953 11.4724L21.2454 14.8728C21.4075 15.1707 21.3407 15.5412 21.0848 15.7637L20.8231 15.9899L18.1522 18.3143L17.2034 17.2234L18.999 15.6612L16.3245 15.1794L16.581 13.7566L19.2537 14.2381L18.1254 12.1633ZM3.14852 8.60827L4.10518 9.69224L2.33422 11.2542L5.0139 11.722L4.76553 13.1463L2.08289 12.6781L3.23518 14.7612L1.97009 15.461L0.0903663 12.0631C-0.0737521 11.7664 -0.00962877 11.3955 0.244573 11.1712L3.14852 8.60827ZM12.2064 7.48997L14.74 10.5511L13.5939 11.4997L12.0813 9.67226L11.5908 12.4816L10.1252 12.2254L10.6145 9.42345L8.58544 10.6129L7.83314 9.32934L10.9499 7.50195L10.953 7.49007L10.9667 7.49186L11.2572 7.32251C11.5718 7.13808 11.9738 7.209 12.2064 7.48997ZM15.4713 5.98453L16.0255 4.64919L19.6099 6.13666C19.9227 6.26649 20.1035 6.59615 20.0447 6.92973L19.985 7.26155L19.3729 10.7433L17.9491 10.4925L18.3594 8.16178L15.9813 9.47607L15.2825 8.21043L17.6651 6.89507L15.4713 5.98453ZM8.64308 3.35311L8.70471 4.79755L6.33694 4.89875L8.12275 6.93958L7.03471 7.89161L5.2459 5.84774L4.82914 8.18114L3.40597 7.92659L4.08801 4.11336C4.14762 3.7801 4.43054 3.53285 4.76878 3.51842L5.10385 3.50343L5.11136 3.49798L8.64308 3.35311ZM13.4865 0.272662L16.0087 3.35308L14.8576 4.29562L13.3606 2.46703L12.8557 5.27263L11.3914 5.00913L11.8972 2.19721L9.85334 3.39219L9.10272 2.10764L12.5356 0.101656C12.8515 -0.0829268 13.2547 -0.0104131 13.4865 0.272662Z" fill="var(--fill-0, white)"/>
</g>
</svg>
