<svg preserveAspectRatio="none" width="100%" height="100%" overflow="visible" style="display: block;" viewBox="0 0 17.3333 17.3333" fill="none" xmlns="http://www.w3.org/2000/svg">
<g id="elements">
<path id="Vector" d="M0.750001 8.66667C0.750001 12.3986 0.750001 14.2646 1.90937 15.424C3.06874 16.5833 4.93471 16.5833 8.66667 16.5833C12.3986 16.5833 14.2646 16.5833 15.424 15.424C16.5833 14.2646 16.5833 12.3986 16.5833 8.66667C16.5833 4.93471 16.5833 3.06874 15.424 1.90937C14.2646 0.75 12.3986 0.75 8.66667 0.75C4.93471 0.75 3.06874 0.75 1.90937 1.90937C0.750001 3.06874 0.750001 4.93471 0.750001 8.66667Z" stroke="var(--stroke-0, white)" stroke-width="1.5" stroke-linejoin="round"/>
<path id="Ellipse 1794" d="M12.4167 8.66667C12.4167 6.5956 10.7377 4.91667 8.66667 4.91667C6.5956 4.91667 4.91667 6.5956 4.91667 8.66667C4.91667 10.7377 6.5956 12.4167 8.66667 12.4167C10.7377 12.4167 12.4167 10.7377 12.4167 8.66667Z" stroke="var(--stroke-0, white)" stroke-width="1.5"/>
<path id="Vector_2" d="M13.2565 13.25L13.249 13.25" stroke="var(--stroke-0, white)" stroke-width="1.5" stroke-linecap="round" stroke-linejoin="round"/>
</g>
</svg>
