<svg preserveAspectRatio="none" width="100%" height="100%" overflow="visible" style="display: block;" viewBox="0 0 22.08 22.08" fill="none" xmlns="http://www.w3.org/2000/svg">
<g id="Group">
<path id="Vector" d="M4.78402 0H17.296C19.918 0 22.08 2.162 22.08 4.78402V17.296C22.08 19.918 19.918 22.08 17.296 22.08H4.78402C2.162 22.08 0 19.918 0 17.296V4.78402C0 2.162 2.162 0 4.78402 0Z" fill="var(--fill-0, #FFD02F)"/>
<path id="Vector_2" fill-rule="evenodd" clip-rule="evenodd" d="M15.3179 2.76029H12.8798L14.9039 6.3023L10.4879 2.76029H8.04984L10.2578 7.08427L5.65786 2.76029H3.21984L5.65786 8.28029L3.21984 19.3203H5.65786L10.3038 7.49827L8.04984 19.3203H10.4879L14.9498 6.7163L12.9258 19.3203H15.3638L19.7798 5.52029L15.3179 2.76029Z" fill="var(--fill-0, #050038)"/>
</g>
</svg>
