<svg preserveAspectRatio="none" width="100%" height="100%" overflow="visible" style="display: block;" viewBox="0 0 20 20" fill="none" xmlns="http://www.w3.org/2000/svg">
<g id="drone 1 [Vectorized]">
<path id="Vector" d="M15.1076 3.86719L16.1338 4.8927C16.007 5.03199 15.8512 5.18063 15.7167 5.31489C15.3967 5.63447 15.0783 5.94526 14.7832 6.28901C14.71 6.37438 14.6286 6.48987 14.5608 6.58215C13.9021 7.48742 13.5208 8.56466 13.4634 9.68273C13.3976 10.8358 13.6783 11.9822 14.2694 12.9743C14.6991 13.7008 15.2608 14.2379 15.856 14.8238C15.9486 14.915 16.0456 15.01 16.1326 15.1059C15.7982 15.4469 15.4427 15.7845 15.1134 16.1279C15.0471 16.0979 14.7454 15.7773 14.6779 15.7115C14.3491 15.391 14.0324 15.0454 13.6745 14.7556C12.9974 14.2056 12.2048 13.8156 11.3559 13.6149C10.9338 13.5122 10.4582 13.4548 10.0237 13.4538C8.97295 13.4513 7.94082 13.7312 7.03531 14.2642C6.78607 14.4117 6.50976 14.6001 6.28665 14.7865C5.95335 15.0648 5.64713 15.3895 5.33856 15.6933C5.21015 15.8196 5.03272 16.0118 4.90029 16.1264L4.89191 16.1336C4.55764 15.7932 4.20902 15.4427 3.86843 15.1093C3.95034 15.0045 4.08307 14.8833 4.17822 14.7885C4.68604 14.2826 5.19623 13.8015 5.59483 13.1998C6.16835 12.3228 6.49526 11.3075 6.54129 10.2606C6.60294 8.94146 6.21179 7.64095 5.43272 6.57473C5.07661 6.0905 4.66345 5.69303 4.23808 5.27143C4.11504 5.14948 3.98098 5.02212 3.86523 4.89414C3.94215 4.82588 4.07894 4.67674 4.15975 4.59576C4.39845 4.35533 4.63866 4.11641 4.88037 3.87902C4.95919 3.88658 5.93071 4.92928 6.08654 5.03307C6.15817 5.09687 6.23173 5.16947 6.30522 5.23024C8.4293 6.9871 11.5917 6.9823 13.7081 5.21625C14.2078 4.79922 14.6291 4.3029 15.1076 3.86719Z" fill="var(--fill-0, white)"/>
<path id="Vector_2" d="M1.25 14.7956C1.29053 14.678 1.28944 14.5549 1.31317 14.4354C1.33744 14.3132 1.36818 14.1779 1.40412 14.0587C1.68546 13.1214 2.33121 12.3361 3.19658 11.879C3.70366 11.6147 4.26617 11.4744 4.83796 11.4697C4.77464 11.601 4.7239 11.7538 4.66417 11.8779C4.53187 12.1528 4.33724 12.4732 4.14642 12.7126C3.54786 13.4631 2.84404 13.7885 2.72639 14.8489C2.68732 15.1774 2.72334 15.5106 2.83173 15.8232C3.02534 16.3774 3.43317 16.8308 3.96385 17.0818C4.48944 17.3279 5.09108 17.3558 5.63726 17.1596C6.35141 16.9031 6.69703 16.3128 7.26512 15.8665C7.61136 15.5944 8.11289 15.3143 8.53367 15.1813C8.52581 15.303 8.51943 15.4459 8.50449 15.564C8.39001 16.4686 7.95014 17.2863 7.25541 17.8782C6.80304 18.2635 6.28219 18.5241 5.70134 18.662C5.59241 18.6879 5.28417 18.7207 5.21146 18.7501H4.596C4.55213 18.7349 4.4815 18.7231 4.4349 18.7178C2.88977 18.541 1.59122 17.311 1.31487 15.783C1.2963 15.6803 1.28808 15.5118 1.25 15.4137V14.7956Z" fill="var(--fill-0, white)"/>
<path id="Vector_3" d="M4.60142 1.25H5.18613C5.29376 1.28189 5.40177 1.28147 5.5096 1.30089C5.6405 1.32446 5.78306 1.35928 5.91096 1.39602C6.83305 1.6654 7.61211 2.28681 8.07975 3.12593C8.37795 3.64946 8.51677 4.24336 8.53278 4.84222C8.40087 4.77553 8.25277 4.72805 8.12496 4.66679C7.85301 4.53646 7.53874 4.34785 7.3012 4.16022C6.55067 3.56739 6.24736 2.88012 5.20243 2.73509C4.86283 2.68987 4.51739 2.72153 4.19168 2.82775C3.65046 3.01122 3.20249 3.39918 2.94363 3.90866C2.68007 4.43532 2.6383 5.04557 2.82766 5.60322C3.08587 6.36823 3.68076 6.6803 4.14962 7.29321C4.34798 7.55252 4.51382 7.82718 4.65373 8.12232C4.7153 8.25221 4.76401 8.40492 4.82564 8.53287C4.71521 8.52818 4.60693 8.52476 4.49548 8.51348C2.87629 8.34965 1.51886 7.05626 1.29505 5.4404C1.28656 5.37911 1.27374 5.25406 1.25 5.20295V4.58562C1.2831 4.50439 1.30186 4.27659 1.32408 4.17146C1.4078 3.77529 1.53923 3.41767 1.7441 3.06787C2.21096 2.25885 2.9714 1.66067 3.86761 1.39746C3.99909 1.35896 4.13526 1.33035 4.26988 1.30546C4.37657 1.28574 4.49808 1.27915 4.60142 1.25Z" fill="var(--fill-0, white)"/>
<path id="Vector_4" d="M14.8067 1.25H15.3951C15.4992 1.28154 15.6237 1.28575 15.7313 1.30618C15.8613 1.33085 15.9954 1.35913 16.1223 1.39627C17.0514 1.67025 17.8346 2.30022 18.3013 3.14898C18.4812 3.46884 18.6085 3.84053 18.6788 4.20054C18.7024 4.32185 18.72 4.52729 18.7492 4.63564V5.16806C18.7378 5.20504 18.7261 5.27069 18.722 5.3095C18.5568 6.87392 17.3318 8.18874 15.7865 8.47382C15.569 8.51397 15.3812 8.52497 15.1586 8.53532C15.2225 8.41198 15.2722 8.24973 15.3341 8.12107C15.4705 7.83726 15.6184 7.60139 15.8045 7.34891C16.3594 6.59569 17.0742 6.29505 17.2524 5.28727C17.357 4.7132 17.2273 4.12118 16.8926 3.64323C16.5649 3.17363 16.065 2.85235 15.5016 2.74922C15.2062 2.69745 14.9034 2.70452 14.6107 2.77002C13.66 2.97958 13.3734 3.65901 12.6464 4.19262C12.3983 4.37475 12.1754 4.50834 11.9006 4.64516C11.7922 4.69911 11.5537 4.77424 11.4688 4.83403C11.4757 4.24238 11.6275 3.66144 11.9108 3.14198C12.3697 2.30036 13.1434 1.67483 14.0624 1.40228C14.1982 1.36212 14.3406 1.33139 14.4796 1.30469C14.5836 1.28471 14.7069 1.28129 14.8067 1.25Z" fill="var(--fill-0, white)"/>
<path id="Vector_5" d="M15.1704 11.4697C15.8532 11.478 16.5196 11.6797 17.0924 12.0514C17.8251 12.5284 18.3618 13.2529 18.6045 14.0928C18.6877 14.3904 18.6898 14.5734 18.7492 14.8448V15.3723L18.7468 15.3826C18.7174 15.514 18.7061 15.6504 18.6822 15.7825C18.5094 16.7385 17.9084 17.6325 17.0893 18.1577C16.7138 18.4011 16.2977 18.5751 15.8608 18.6712C15.7633 18.6925 15.4912 18.7177 15.4207 18.7489H14.805C14.6648 18.7012 14.4211 18.6873 14.2587 18.6491C12.9911 18.3503 11.9528 17.363 11.6029 16.1065C11.5116 15.7785 11.4805 15.5065 11.4668 15.1632C11.5998 15.2204 11.7606 15.2792 11.8878 15.3401C12.1755 15.478 12.4671 15.6604 12.7181 15.8567C13.3702 16.3668 13.6662 16.972 14.5138 17.2075C15.0736 17.3636 15.6727 17.29 16.1782 17.0032C16.6861 16.7155 17.0583 16.237 17.2121 15.6739C17.2976 15.358 17.3109 15.027 17.251 14.7053C17.0721 13.7202 16.4063 13.4213 15.8438 12.7011C15.6563 12.4611 15.4793 12.1569 15.3457 11.8831C15.2878 11.7643 15.2346 11.5819 15.1704 11.4697Z" fill="var(--fill-0, white)"/>
</g>
</svg>
