<svg preserveAspectRatio="none" width="100%" height="100%" overflow="visible" style="display: block;" viewBox="0 0 20 20" fill="none" xmlns="http://www.w3.org/2000/svg">
<g id="SVG">
<path id="Vector" d="M2.5 4.16536C2.5 3.70703 2.875 3.33203 3.33333 3.33203H7.64167C7.98333 3.33203 8.29167 3.50703 8.45 3.79036L9.05 4.90703C9.20833 5.19036 9.51667 5.36536 9.85833 5.36536H16.6667C17.125 5.36536 17.5 5.74036 17.5 6.1987V9.16536C17.5 9.6237 17.125 9.9987 16.6667 9.9987H3.33333C2.875 9.9987 2.5 9.6237 2.5 9.16536V4.16536Z" fill="var(--fill-0, white)"/>
<path id="Vector_2" d="M16.6667 5.83203H3.33333C2.8731 5.83203 2.5 6.20513 2.5 6.66536V14.9987C2.5 15.4589 2.8731 15.832 3.33333 15.832H16.6667C17.1269 15.832 17.5 15.4589 17.5 14.9987V6.66536C17.5 6.20513 17.1269 5.83203 16.6667 5.83203Z" fill="var(--fill-0, white)"/>
<path id="Vector_3" opacity="0.3" d="M2.62669 15.418C2.56836 15.1263 2.56836 14.7096 2.56836 14.168H17.435C17.435 14.7096 17.435 15.1263 17.3767 15.418H2.62669Z" fill="var(--fill-0, white)"/>
<path id="Vector_4" opacity="0.5" d="M4.16797 16.668H15.8346C16.5013 16.668 16.8346 16.668 17.0846 16.5013C17.2513 16.418 17.418 16.2513 17.5013 16.0013C17.543 15.918 17.568 15.8346 17.5846 15.418H2.41797C2.43464 15.8346 2.45964 15.918 2.5013 16.0013C2.58464 16.2513 2.7513 16.418 2.91797 16.5013C3.16797 16.668 3.5013 16.668 4.16797 16.668Z" fill="var(--fill-0, white)"/>
</g>
</svg>
