<svg preserveAspectRatio="none" width="100%" height="100%" overflow="visible" style="display: block;" viewBox="0 0 20 20" fill="none" xmlns="http://www.w3.org/2000/svg">
<g id="SVG">
<path id="Vector" d="M1.66797 9.78014C1.66797 8.67905 1.66797 8.12845 1.82595 7.63374C1.96577 7.19595 2.19459 6.7918 2.49806 6.44667C2.84099 6.05667 3.3131 5.7734 4.25733 5.20687L7.25732 3.40687C8.25499 2.80827 8.7538 2.50897 9.2863 2.39203C9.75739 2.28859 10.2452 2.28859 10.7163 2.39203C11.2488 2.50897 11.7476 2.80827 12.7453 3.40687L15.7453 5.20687C16.6895 5.7734 17.1616 6.05667 17.5046 6.44667C17.8081 6.7918 18.0368 7.19595 18.1766 7.63374C18.3346 8.12845 18.3346 8.67905 18.3346 9.78014V15.7605C18.3346 16.6939 18.3346 17.1606 18.153 17.5171C17.9932 17.8307 17.7382 18.0857 17.4246 18.2455C17.0681 18.4271 16.6014 18.4271 15.668 18.4271H15.168C14.2346 18.4271 13.7678 18.4271 13.4113 18.2455C13.0977 18.0857 12.8427 17.8307 12.683 17.5171C12.5013 17.1606 12.5013 16.6939 12.5013 15.7605V13.0938C12.5013 12.6271 12.5013 12.3937 12.4105 12.2155C12.3306 12.0587 12.2031 11.9312 12.0463 11.8513C11.8681 11.7605 11.6347 11.7605 11.168 11.7605H8.83464C8.36789 11.7605 8.13457 11.7605 7.95631 11.8513C7.79951 11.9312 7.67203 12.0587 7.59213 12.2155C7.5013 12.3937 7.5013 12.6271 7.5013 13.0938V15.7605C7.5013 16.6939 7.5013 17.1606 7.31964 17.5171C7.15986 17.8307 6.90489 18.0857 6.59129 18.2455C6.23477 18.4271 5.76805 18.4271 4.83464 18.4271H4.33464C3.40122 18.4271 2.9345 18.4271 2.57799 18.2455C2.26438 18.0857 2.00941 17.8307 1.84963 17.5171C1.66797 17.1606 1.66797 16.6939 1.66797 15.7605V9.78014Z" fill="var(--fill-0, #0A0A0A)"/>
</g>
</svg>
