<svg preserveAspectRatio="none" width="100%" height="100%" overflow="visible" style="display: block;" viewBox="0 0 28 14.1923" fill="none" xmlns="http://www.w3.org/2000/svg">
<g id="langchain" clip-path="url(#clip0_379_3271)">
<path id="Vector" d="M21.447 3.83719C21.2653 3.83651 21.0853 3.87184 20.9173 3.94114C20.7494 4.01045 20.5969 4.11235 20.4686 4.24096L19.4162 5.29048C19.2757 5.43089 19.1672 5.60003 19.0982 5.7863C19.0292 5.97257 19.0012 6.17157 19.0163 6.36964L19.0229 6.43624C19.0588 6.742 19.1975 7.0265 19.4162 7.24309C19.5679 7.39441 19.7349 7.4903 19.9379 7.5569C19.9483 7.61792 19.9543 7.67963 19.9543 7.7417C19.9543 8.01959 19.8462 8.28076 19.6495 8.47636L19.5847 8.54122C19.2332 8.42127 18.9403 8.24589 18.6756 7.98194C18.3256 7.63449 18.091 7.18771 18.0037 6.70228L17.9919 6.63499L17.9385 6.67823C17.9027 6.70716 17.8685 6.73801 17.836 6.77063L16.7837 7.82015C16.5903 8.01326 16.4586 8.25945 16.4054 8.5275C16.3521 8.79555 16.3796 9.07339 16.4845 9.32577C16.5893 9.57815 16.7668 9.79371 16.9943 9.94511C17.2218 10.0965 17.4892 10.1769 17.7625 10.1762C17.9441 10.1765 18.124 10.1411 18.2919 10.0718C18.4598 10.0025 18.6124 9.90076 18.7409 9.77241L19.7935 8.72288C19.9217 8.59472 20.0235 8.44255 20.0929 8.27506C20.1623 8.10757 20.198 7.92805 20.198 7.74675C20.198 7.56546 20.1623 7.38593 20.0929 7.21845C20.0235 7.05096 19.9217 6.89879 19.7935 6.77063C19.6495 6.62718 19.4754 6.5176 19.2837 6.44984C19.2536 6.27023 19.2671 6.086 19.3231 5.91272C19.3792 5.73944 19.4762 5.58222 19.6059 5.45436C19.9559 5.57277 20.2737 5.77038 20.5348 6.03177C20.8844 6.37951 21.1188 6.82618 21.2064 7.31143L21.2186 7.37872L21.2719 7.33549C21.3082 7.30655 21.3423 7.27516 21.3751 7.24239L22.4274 6.19286C22.6209 5.99978 22.7526 5.75357 22.8059 5.48549C22.8592 5.21741 22.8317 4.93954 22.7268 4.68715C22.6219 4.43475 22.4443 4.21922 22.2167 4.06789C21.9891 3.91656 21.7217 3.83626 21.4483 3.83719H21.447Z" fill="var(--fill-0, white)"/>
<path id="Vector_2" d="M20.8848 0.000285022H7.1155C3.19146 0.000285022 0 3.18373 0 7.09626C0 11.0091 3.19181 14.1922 7.11515 14.1922H20.8845C24.8082 14.1922 28 11.0088 28 7.09661C28 3.18303 24.8082 -6.36578e-05 20.8848 -6.36578e-05V0.000285022ZM14.0933 11.1256C13.8663 11.1723 13.6107 11.1807 13.4371 11.0001C13.3732 11.1465 13.2237 11.0695 13.1083 11.0503C13.0978 11.0799 13.0884 11.1061 13.0786 11.1361C12.6951 11.1615 12.4074 10.7713 12.2247 10.4771C11.8621 10.2811 11.4499 10.1618 11.0793 9.95683C11.0577 10.2943 11.1316 10.7135 10.8094 10.931C10.793 11.5803 11.7941 11.0077 11.8861 11.4917C11.815 11.4994 11.7362 11.4802 11.679 11.5349C11.4179 11.7881 11.1183 11.3432 10.8174 11.5269C10.413 11.7299 10.3725 11.8962 9.87251 11.938C9.84461 11.8962 9.85612 11.8683 9.87948 11.8428C10.0203 11.6797 10.0305 11.4872 10.2707 11.4174C10.0231 11.3787 9.81637 11.5151 9.60786 11.6232C9.33659 11.7337 9.33868 11.3732 8.92166 11.642C8.87563 11.6043 8.8976 11.5702 8.9241 11.5412C9.0301 11.4122 9.16957 11.393 9.32682 11.4C8.5531 10.9701 8.18908 11.9258 7.83169 11.4506C7.72429 11.4788 7.68385 11.5754 7.6162 11.6434C7.55797 11.5796 7.60226 11.5022 7.6047 11.4272C7.53496 11.3944 7.44675 11.3787 7.46732 11.2672C7.33098 11.2211 7.23545 11.302 7.13363 11.3787C7.04193 11.308 7.1957 11.2044 7.22429 11.1305C7.30588 10.9886 7.49242 11.1012 7.58691 10.999C7.8561 10.8467 8.23093 11.0942 8.53846 11.0524C8.77556 11.082 9.06845 10.8397 8.94955 10.5973C8.69641 10.2745 8.74104 9.85222 8.73546 9.46623C8.70408 9.24134 8.16258 8.95472 8.00603 8.71204C7.81251 8.49342 7.66188 8.24028 7.5109 7.99097C6.96661 6.94005 7.13782 5.58996 6.45196 4.61401C6.14164 4.78486 5.73787 4.70432 5.47008 4.47489C5.32573 4.60634 5.31945 4.77824 5.30795 4.96025C4.96136 4.61506 5.00459 3.96198 5.28179 3.57739C5.39439 3.42892 5.52889 3.29842 5.68068 3.19035C5.71485 3.16595 5.72636 3.14154 5.72566 3.10318C5.99973 1.87444 7.86795 2.11119 8.45861 2.98184C8.88714 3.51776 9.0165 4.22663 9.50256 4.72419C10.1563 5.43794 10.9015 6.06661 11.5047 6.82673C12.0755 7.5213 12.4831 8.33581 12.8387 9.15695C12.9838 9.42962 12.9852 9.76366 13.2003 9.99657C13.3063 10.1371 13.8244 10.5196 13.7118 10.6549C13.7767 10.7954 14.2603 10.9893 14.0926 11.1256H14.0933ZM23.168 6.93308L22.1157 7.9826C21.8357 8.26222 21.4915 8.46907 21.1132 8.58512L21.0937 8.5907L21.0867 8.60918C20.9657 8.92975 20.7772 9.22059 20.5341 9.46205L19.4814 10.5116C19.2558 10.7375 18.9877 10.9165 18.6925 11.0383C18.3974 11.1601 18.081 11.2222 17.7617 11.2211C17.4424 11.2222 17.1261 11.1601 16.8309 11.0383C16.5358 10.9165 16.2677 10.7375 16.042 10.5116C15.8165 10.2865 15.6376 10.0191 15.5156 9.72484C15.3935 9.43053 15.3307 9.11504 15.3307 8.79642C15.3307 8.4778 15.3935 8.16231 15.5156 7.868C15.6376 7.5737 15.8165 7.30635 16.042 7.08127L17.0944 6.03174C17.3736 5.75238 17.7174 5.54625 18.0954 5.43166L18.1146 5.42574L18.1216 5.40726C18.2434 5.08586 18.4324 4.79415 18.676 4.5516L19.7286 3.50207C19.9542 3.27613 20.2224 3.09711 20.5175 2.97532C20.8127 2.85354 21.129 2.79141 21.4483 2.79251C22.0986 2.79251 22.7091 3.04461 23.168 3.50207C23.3943 3.7266 23.5738 3.99389 23.6959 4.2884C23.818 4.58291 23.8804 4.89876 23.8793 5.21758C23.8793 5.86612 23.6269 6.47526 23.168 6.93238V6.93308Z" fill="var(--fill-0, white)"/>
</g>
<defs>
<clipPath id="clip0_379_3271">
<rect width="28" height="14.1923" fill="white"/>
</clipPath>
</defs>
</svg>
