<svg preserveAspectRatio="none" width="100%" height="100%" overflow="visible" style="display: block;" viewBox="0 0 20 19.5061" fill="none" xmlns="http://www.w3.org/2000/svg">
<g id="Group">
<path id="Vector" fill-rule="evenodd" clip-rule="evenodd" d="M9.99993 0C4.47768 0 0 4.47702 0 9.99993C0 14.418 2.86545 18.1664 6.8384 19.4886C7.33836 19.5814 7.52197 19.2718 7.52197 19.0078C7.52197 18.7693 7.5127 17.9815 7.5082 17.1458C4.72621 17.7508 4.13934 15.9661 4.13934 15.9661C3.68428 14.8104 3.02893 14.5029 3.02893 14.5029C2.12147 13.8823 3.09728 13.8949 3.09728 13.8949C4.10145 13.9656 4.63003 14.9255 4.63003 14.9255C5.52212 16.4543 6.96955 16.0123 7.54026 15.7568C7.63007 15.1106 7.88906 14.6692 8.17508 14.4196C5.95399 14.1671 3.61924 13.3094 3.61924 9.47771C3.61924 8.38611 4.00978 7.49389 4.64937 6.79375C4.54564 6.54179 4.20332 5.52464 4.74647 4.14729C4.74647 4.14729 5.58611 3.87836 7.49667 5.17225C8.29457 4.95075 9.14997 4.83974 9.9998 4.83576C10.8496 4.83974 11.7058 4.95075 12.5049 5.17225C14.4136 3.87849 15.2522 4.14715 15.2522 4.14715C15.7964 5.52437 15.4542 6.54152 15.3502 6.79336C15.9914 7.49362 16.3793 8.38572 16.3793 9.47732C16.3793 13.3185 14.04 14.1639 11.8134 14.4115C12.172 14.722 12.4917 15.3305 12.4917 16.2635C12.4917 17.6015 12.4803 18.6786 12.4803 19.0078C12.4803 19.274 12.66 19.5856 13.1669 19.4876C17.1385 18.1639 20 14.4168 20 10.0001C20 4.47702 15.5222 0 9.99993 0Z" fill="var(--fill-0, #FEFEFE)"/>
<path id="Vector_2" d="M3.78844 14.3574C3.76632 14.4072 3.68816 14.4223 3.61702 14.3878C3.54415 14.3553 3.50375 14.2874 3.5272 14.2376C3.54879 14.1866 3.62695 14.1724 3.69942 14.2065C3.77202 14.2392 3.81335 14.3076 3.78844 14.3574ZM4.19237 14.8094C4.14467 14.8536 4.05128 14.8332 3.98835 14.7633C3.92264 14.6935 3.91059 14.6001 3.95894 14.5553C4.00796 14.5112 4.09857 14.5318 4.16388 14.6017C4.22946 14.6721 4.24231 14.7646 4.19237 14.8094ZM4.58662 15.3857C4.52528 15.4285 4.425 15.3886 4.363 15.2995C4.30166 15.2105 4.30166 15.1039 4.36432 15.0611C4.42659 15.0184 4.52528 15.0571 4.58821 15.1451C4.64915 15.2356 4.64915 15.3421 4.58662 15.3857ZM5.12805 15.9422C5.07321 16.0026 4.9565 15.9863 4.87105 15.9038C4.78361 15.8232 4.75924 15.7088 4.81408 15.6484C4.86972 15.5878 4.9871 15.6046 5.07321 15.6868C5.15998 15.7671 5.18634 15.8823 5.12805 15.9422ZM5.87324 16.265C5.84886 16.3432 5.73679 16.379 5.62339 16.3455C5.51012 16.3113 5.43606 16.2196 5.45912 16.1405C5.48243 16.0617 5.59557 16.0246 5.7095 16.0602C5.8225 16.0943 5.89682 16.1854 5.87324 16.265ZM6.69129 16.3247C6.69394 16.4072 6.59802 16.4757 6.47932 16.477C6.35956 16.4797 6.26272 16.4129 6.2614 16.3318C6.2614 16.2484 6.35546 16.1808 6.47469 16.1788C6.59392 16.1762 6.69129 16.2428 6.69129 16.3245M7.45303 16.1955C7.46721 16.2758 7.38468 16.3584 7.26651 16.3804C7.15046 16.4019 7.04302 16.3521 7.02831 16.2725C7.01374 16.1899 7.09786 16.1074 7.21378 16.0861C7.33208 16.0654 7.43793 16.1138 7.45303 16.1955Z" fill="var(--fill-0, #FEFEFE)"/>
</g>
</svg>
