<svg preserveAspectRatio="none" width="100%" height="100%" overflow="visible" style="display: block;" viewBox="0 0 23 20.4635" fill="none" xmlns="http://www.w3.org/2000/svg">
<g id="reactjs logo" clip-path="url(#clip0_379_3228)">
<path id="Vector" d="M11.3645 12.0953C12.3938 12.0953 13.2282 11.2609 13.2282 10.2317C13.2282 9.20243 12.3938 8.36805 11.3645 8.36805C10.3353 8.36805 9.50089 9.20243 9.50089 10.2317C9.50089 11.2609 10.3353 12.0953 11.3645 12.0953Z" fill="var(--fill-0, #61DAFB)"/>
<g id="Group">
<path id="Vector_2" d="M11.5 14.0516C17.0228 14.0516 21.5 12.3422 21.5 10.2334C21.5 8.12471 17.0228 6.41525 11.5 6.41525C5.97715 6.41525 1.5 8.12471 1.5 10.2334C1.5 12.3422 5.97715 14.0516 11.5 14.0516Z" stroke="var(--stroke-0, #61DAFB)" stroke-width="0.909091"/>
<path id="Vector_3" d="M8.19282 12.1412C10.9542 16.9241 14.6733 19.9467 16.4995 18.8924C18.3257 17.838 17.5675 13.1059 14.8061 8.32302C12.0447 3.5401 8.32567 0.517497 6.49947 1.57186C4.67326 2.62622 5.4314 7.35828 8.19282 12.1412Z" stroke="var(--stroke-0, #61DAFB)" stroke-width="0.909091"/>
<path id="Vector_4" d="M8.19282 8.32409C5.4314 13.107 4.67326 17.8391 6.49947 18.8934C8.32567 19.9478 12.0447 16.9252 14.8061 12.1423C17.5675 7.35934 18.3257 2.62729 16.4995 1.57292C14.6733 0.518563 10.9542 3.54116 8.19282 8.32409Z" stroke="var(--stroke-0, #61DAFB)" stroke-width="0.909091"/>
</g>
</g>
<defs>
<clipPath id="clip0_379_3228">
<rect width="23" height="20.4635" fill="white"/>
</clipPath>
</defs>
</svg>
