<svg preserveAspectRatio="none" width="100%" height="100%" overflow="visible" style="display: block;" viewBox="0 0 20 20" fill="none" xmlns="http://www.w3.org/2000/svg">
<g id="SVG">
<path id="Vector" d="M12.4581 12.0497C12.1891 12.3575 12.0546 12.5115 11.9037 12.6468C11.7696 12.767 11.6261 12.8761 11.4744 12.9731C11.3036 13.0824 11.1175 13.1718 10.745 13.3506C9.84998 13.7804 9.40248 13.9953 9.10806 13.9195C8.85256 13.8537 8.64323 13.6708 8.54381 13.4264C8.42931 13.1448 8.5824 12.6725 8.8884 11.728C9.01581 11.335 9.07948 11.1385 9.16481 10.9546C9.24073 10.7913 9.32965 10.6345 9.43081 10.4855C9.54473 10.3179 9.67923 10.164 9.94831 9.85612L14.1707 5.02486C14.2321 4.95458 14.2629 4.91943 14.3 4.90455C14.3326 4.89145 14.3686 4.88903 14.4027 4.89763C14.4416 4.90742 14.4767 4.93813 14.547 4.99956L16.6553 6.84215C16.7256 6.90357 16.7607 6.93429 16.7756 6.97143C16.7886 7.0041 16.7911 7.04007 16.7825 7.07421C16.7727 7.113 16.742 7.14814 16.6806 7.21843L12.4581 12.0497Z" fill="var(--fill-0, white)"/>
<path id="Vector_2" d="M17.4075 6.37746C17.3461 6.44774 17.3154 6.48288 17.2783 6.49777C17.2456 6.51087 17.2096 6.51329 17.1755 6.50469C17.1367 6.4949 17.1015 6.46419 17.0313 6.40276L14.9253 4.56217C14.855 4.50075 14.8198 4.47004 14.8049 4.4329C14.7918 4.40023 14.7894 4.36425 14.798 4.33012C14.8078 4.29132 14.8385 4.25618 14.8999 4.1859L15.276 3.75563C15.5301 3.46494 15.6571 3.31959 15.7932 3.22814C16.1646 2.97857 16.641 2.94653 17.0424 3.14413C17.1895 3.21654 17.3349 3.34357 17.6256 3.59763C17.9163 3.85168 18.0616 3.97871 18.1531 4.1148C18.4026 4.48616 18.4347 4.9626 18.2371 5.36405C18.1647 5.51115 18.0376 5.6565 17.7836 5.94718L17.4075 6.37746Z" fill="var(--fill-0, white)"/>
<path id="Vector_3" d="M7.91667 15.0013C7.91667 15.0013 6.02617 17.2361 5 16.668C3.97383 16.0998 7.03298 12.346 7.03298 10.8644C7.03298 10.0681 4.61688 13.5057 3.12776 13.9334C0.729493 14.6223 5.9759 4.16797 5.9759 4.16797" stroke="var(--stroke-0, white)" stroke-width="1.25" stroke-linecap="round" stroke-linejoin="round"/>
</g>
</svg>
