<svg preserveAspectRatio="none" width="100%" height="100%" overflow="visible" style="display: block;" viewBox="0 0 20.5097 19.9968" fill="none" xmlns="http://www.w3.org/2000/svg">
<g id="Group">
<path id="Vector" d="M16.8778 0H3.63197C1.62608 0 0 1.62608 0 3.63197V16.3648C0 18.3707 1.62608 19.9968 3.63197 19.9968H16.8778C18.8836 19.9968 20.5097 18.3707 20.5097 16.3648V3.63197C20.5097 1.62608 18.8836 0 16.8778 0Z" fill="var(--fill-0, #330000)"/>
<path id="Vector_2" d="M9.93845 12.0013H6.76003L6.11362 14.01C6.10507 14.0467 6.08381 14.0794 6.05362 14.102C6.02338 14.1247 5.98613 14.136 5.9484 14.1338H4.33872C4.24675 14.1338 4.21469 14.0833 4.24248 13.9823L6.99422 6.05587C7.02096 5.97326 7.04851 5.87971 7.07683 5.77517C7.11254 5.59152 7.13098 5.4049 7.13179 5.21779C7.13011 5.2067 7.13069 5.19542 7.13347 5.18458C7.13621 5.17373 7.14106 5.16355 7.14778 5.15458C7.1545 5.14565 7.1629 5.13811 7.17254 5.13245C7.18219 5.12678 7.1929 5.12304 7.20394 5.12155C7.21195 5.1203 7.22006 5.1203 7.22803 5.12155H9.41554C9.47971 5.12155 9.51619 5.1444 9.52579 5.1901L12.6489 13.9959C12.6766 14.0873 12.6489 14.1335 12.5663 14.1335H10.7778C10.7471 14.1369 10.7161 14.129 10.6908 14.1113C10.6656 14.0936 10.6476 14.0672 10.6402 14.0372L9.93845 12.0013ZM7.25568 10.2665H9.42917C9.37435 10.0828 9.31022 9.87643 9.23669 9.64733C9.16315 9.41822 9.08525 9.1728 9.00288 8.9111L8.75506 8.12712C8.67245 7.86566 8.5968 7.61328 8.52811 7.37002C8.45938 7.1267 8.39698 6.90485 8.34082 6.7043H8.32718C8.24971 7.07582 8.15318 7.44307 8.03808 7.8047C7.90973 8.21774 7.77902 8.63971 7.64587 9.0707C7.51272 9.50165 7.38269 9.90024 7.25568 10.2665Z" fill="var(--fill-0, #FF9A00)"/>
<path id="Vector_3" d="M14.5061 6.5797C14.3657 6.58526 14.2258 6.56122 14.0954 6.50904C13.965 6.45686 13.8471 6.37776 13.7494 6.27691C13.6519 6.1717 13.5762 6.04819 13.5266 5.9136C13.4771 5.77896 13.4546 5.63587 13.4606 5.49254C13.4559 5.35094 13.4809 5.20992 13.5343 5.07864C13.5876 4.94736 13.668 4.8288 13.7702 4.73064C13.8714 4.63349 13.9908 4.55731 14.1216 4.50653C14.2524 4.45574 14.3919 4.43131 14.5321 4.43467C14.8623 4.43467 15.1213 4.53331 15.3093 4.73064C15.5 4.93747 15.6009 5.21146 15.59 5.49254C15.5958 5.63645 15.5726 5.78006 15.5217 5.9148C15.4709 6.04954 15.3935 6.1727 15.294 6.27691C15.1906 6.37891 15.0672 6.4584 14.9316 6.51053C14.796 6.56261 14.6512 6.58618 14.5061 6.5797ZM13.5569 13.9952V7.41859C13.5569 7.33598 13.5934 7.2947 13.6668 7.2947H15.3586C15.4316 7.2947 15.4685 7.33478 15.4685 7.41859V13.9952C15.4685 14.0866 15.432 14.1327 15.3586 14.1327H13.6808C13.5982 14.1331 13.5569 14.087 13.5569 13.9952Z" fill="var(--fill-0, #FF9A00)"/>
</g>
</svg>
