<svg preserveAspectRatio="none" width="100%" height="100%" overflow="visible" style="display: block;" viewBox="0 0 20 20" fill="none" xmlns="http://www.w3.org/2000/svg">
<g id="SVG">
<path id="Vector" d="M10 2.37793V4.59629" stroke="var(--stroke-0, white)" stroke-width="1.25" stroke-linecap="round"/>
<path id="Vector_2" d="M10.0001 8.58413C10.9763 8.58413 11.7677 7.79272 11.7677 6.81648C11.7677 5.84023 10.9763 5.04883 10.0001 5.04883C9.02383 5.04883 8.23242 5.84023 8.23242 6.81648C8.23242 7.79272 9.02383 8.58413 10.0001 8.58413Z" stroke="var(--stroke-0, white)" stroke-width="1.25"/>
<path id="Vector_3" d="M8.7412 8.41602L6.21875 17.8578" stroke="var(--stroke-0, white)" stroke-width="1.25" stroke-linecap="round"/>
<path id="Vector_4" d="M14.3863 17.6956C14.4754 18.0291 14.2773 18.3717 13.9438 18.4608C13.6103 18.5499 13.2678 18.3517 13.1788 18.0183L14.3863 17.6956ZM11.8639 8.25391L14.3863 17.6956L13.1788 18.0183L10.6562 8.57656L11.8639 8.25391Z" fill="var(--fill-0, white)"/>
<path id="Vector_5" d="M5.35156 13.4277C5.35156 13.4277 6.59356 14.4684 10.0005 14.4684C13.4074 14.4684 14.6494 13.4277 14.6494 13.4277" stroke="var(--stroke-0, white)" stroke-width="1.25" stroke-linecap="round"/>
</g>
</svg>
