<svg preserveAspectRatio="none" width="100%" height="100%" overflow="visible" style="display: block;" viewBox="0 0 20 20" fill="none" xmlns="http://www.w3.org/2000/svg">
<g id="menu / close">
<g id="Vector">
<mask id="path-1-inside-1_233_1335" fill="white">
<path d="M12.5 15C12.9602 15 13.3333 15.3731 13.3333 15.8333C13.3333 16.2936 12.9602 16.6667 12.5 16.6667H5C4.53976 16.6667 4.16667 16.2936 4.16667 15.8333C4.16667 15.3731 4.53976 15 5 15H12.5Z"/>
</mask>
<path d="M12.5 16.6667V14.6667H5V16.6667V18.6667H12.5V16.6667ZM5 15V17H12.5V15V13H5V15ZM4.16667 15.8333H6.16667C6.16667 16.4777 5.64433 17 5 17V15V13C3.43519 13 2.16667 14.2685 2.16667 15.8333H4.16667ZM5 16.6667V14.6667C5.64433 14.6667 6.16667 15.189 6.16667 15.8333H4.16667H2.16667C2.16667 17.3981 3.4352 18.6667 5 18.6667V16.6667ZM13.3333 15.8333H11.3333C11.3333 15.189 11.8557 14.6667 12.5 14.6667V16.6667V18.6667C14.0648 18.6667 15.3333 17.3981 15.3333 15.8333H13.3333ZM13.3333 15.8333H15.3333C15.3333 14.2685 14.0648 13 12.5 13V15V17C11.8557 17 11.3333 16.4777 11.3333 15.8333H13.3333Z" fill="var(--stroke-0, white)" mask="url(#path-1-inside-1_233_1335)"/>
</g>
<g id="Vector_2">
<mask id="path-3-inside-2_233_1335" fill="white">
<path d="M3.33333 10.8327H16.6667C17.1269 10.8327 17.5 10.4596 17.5 9.99935C17.5 9.53911 17.1269 9.16602 16.6667 9.16602H3.33333C2.8731 9.16602 2.5 9.53911 2.5 9.99935C2.5 10.4596 2.8731 10.8327 3.33333 10.8327Z"/>
</mask>
<path d="M16.6667 10.8327V8.83268H3.33333V10.8327V12.8327H16.6667V10.8327ZM3.33333 9.16602V11.166H16.6667V9.16602V7.16602H3.33333V9.16602ZM2.5 9.99935H4.5C4.5 10.6437 3.97766 11.166 3.33333 11.166V9.16602V7.16602C1.76853 7.16602 0.5 8.43454 0.5 9.99935H2.5ZM3.33333 10.8327V8.83268C3.97766 8.83268 4.5 9.35502 4.5 9.99935H2.5H0.5C0.5 11.5642 1.76853 12.8327 3.33333 12.8327V10.8327ZM17.5 9.99935H15.5C15.5 9.35502 16.0223 8.83268 16.6667 8.83268V10.8327V12.8327C18.2315 12.8327 19.5 11.5642 19.5 9.99935H17.5ZM17.5 9.99935H19.5C19.5 8.43454 18.2315 7.16602 16.6667 7.16602V9.16602V11.166C16.0223 11.166 15.5 10.6437 15.5 9.99935H17.5Z" fill="var(--stroke-0, white)" mask="url(#path-3-inside-2_233_1335)"/>
</g>
<g id="Vector_3">
<mask id="path-5-inside-3_233_1335" fill="white">
<path d="M7.49935 4.99967H14.9993C15.4596 4.99967 15.8327 4.62658 15.8327 4.16634C15.8327 3.7061 15.4596 3.33301 14.9993 3.33301H7.49935C7.03911 3.33301 6.66602 3.7061 6.66602 4.16634C6.66602 4.62658 7.03911 4.99967 7.49935 4.99967Z"/>
</mask>
<path d="M14.9993 4.99967V2.99967H7.49935V4.99967V6.99967H14.9993V4.99967ZM7.49935 3.33301V5.33301H14.9993V3.33301V1.33301H7.49935V3.33301ZM6.66602 4.16634H8.66602C8.66602 4.81067 8.14368 5.33301 7.49935 5.33301V3.33301V1.33301C5.93454 1.33301 4.66602 2.60153 4.66602 4.16634H6.66602ZM7.49935 4.99967V2.99967C8.14368 2.99967 8.66602 3.52201 8.66602 4.16634H6.66602H4.66602C4.66602 5.73115 5.93455 6.99967 7.49935 6.99967V4.99967ZM15.8327 4.16634H13.8327C13.8327 3.52201 14.355 2.99967 14.9993 2.99967V4.99967V6.99967C16.5642 6.99967 17.8327 5.73115 17.8327 4.16634H15.8327ZM15.8327 4.16634H17.8327C17.8327 2.60153 16.5642 1.33301 14.9993 1.33301V3.33301V5.33301C14.355 5.33301 13.8327 4.81068 13.8327 4.16634H15.8327Z" fill="var(--stroke-0, white)" mask="url(#path-5-inside-3_233_1335)"/>
</g>
</g>
</svg>
