<svg preserveAspectRatio="none" width="100%" height="100%" overflow="visible" style="display: block;" viewBox="0 0 20 1.9049" fill="none" xmlns="http://www.w3.org/2000/svg">
<g id="layer2">
<path id="rect4407" opacity="0.04" d="M0 0.47633V0.95252C0 1.48014 0.424762 1.9049 0.952381 1.9049H19.0476C19.5752 1.9049 20 1.48014 20 0.95252V0.47633C20 1.00395 19.5752 1.42871 19.0476 1.42871H0.952381C0.424762 1.42871 0 1.00395 0 0.47633Z" fill="var(--fill-0, #37474F)"/>
<path id="rect4400" opacity="0.08" d="M0 0.238235V0.47633C0 1.00395 0.424762 1.42871 0.952381 1.42871H19.0476C19.5752 1.42871 20 1.00395 20 0.47633V0.238235C20 0.765854 19.5752 1.19062 19.0476 1.19062H0.952381C0.424762 1.19062 0 0.765854 0 0.238235Z" fill="var(--fill-0, black)"/>
<path id="rect4362" opacity="0.16" d="M0 0.000139509V0.238235C0 0.765854 0.424762 1.19062 0.952381 1.19062H19.0476C19.5752 1.19062 20 0.765854 20 0.238235V0.000139509C20 0.527759 19.5752 0.95252 19.0476 0.95252H0.952381C0.424762 0.95252 0 0.527759 0 0.000139509Z" fill="var(--fill-0, black)"/>
</g>
</svg>
