<svg preserveAspectRatio="none" width="100%" height="100%" overflow="visible" style="display: block;" viewBox="0 0 13.2979 19.9486" fill="none" xmlns="http://www.w3.org/2000/svg">
<g id="Group">
<path id="Vector" d="M6.64872 9.97423C6.64872 8.13804 8.1372 6.64946 9.97334 6.64946C11.8094 6.64946 13.2979 8.13804 13.2979 9.97423C13.2979 11.8105 11.8094 13.299 9.97334 13.299C8.1372 13.299 6.64872 11.8105 6.64872 9.97423Z" fill="var(--fill-0, #1ABCFE)"/>
<path id="Vector_2" d="M0 16.6238C0 14.7876 1.48843 13.299 3.32458 13.299H6.6492V16.6238C6.6492 18.4601 5.16072 19.9486 3.32458 19.9486C1.48843 19.9486 0 18.4601 0 16.6238Z" fill="var(--fill-0, #0ACF83)"/>
<path id="Vector_3" d="M6.64872 9.53674e-08V6.64951H9.97334C11.8095 6.64951 13.2979 5.16098 13.2979 3.32474C13.2979 1.48855 11.8095 9.53674e-08 9.97334 9.53674e-08H6.64872Z" fill="var(--fill-0, #FF7262)"/>
<path id="Vector_4" d="M2.28882e-07 3.32474C2.28882e-07 5.16098 1.48843 6.64951 3.32458 6.64951H6.6492V0H3.32458C1.48843 0 2.28882e-07 1.48854 2.28882e-07 3.32474Z" fill="var(--fill-0, #F24E1E)"/>
<path id="Vector_5" d="M0 9.97423C0 11.8105 1.48843 13.299 3.32458 13.299H6.6492V6.64946H3.32458C1.48843 6.64946 0 8.13804 0 9.97423Z" fill="var(--fill-0, #A259FF)"/>
</g>
</svg>
