<svg preserveAspectRatio="none" width="100%" height="100%" overflow="visible" style="display: block;" viewBox="0 0 17.4992 17.5001" fill="none" xmlns="http://www.w3.org/2000/svg">
<g id="vector">
<path d="M13.8576 2.61719L14.8838 3.6427C14.757 3.78199 14.6012 3.93063 14.4667 4.06489C14.1467 4.38447 13.8283 4.69526 13.5332 5.03901C13.46 5.12438 13.3786 5.23987 13.3108 5.33215C12.6521 6.23742 12.2708 7.31466 12.2134 8.43273C12.1476 9.5858 12.4283 10.7322 13.0194 11.7243C13.4491 12.4508 14.0108 12.9879 14.606 13.5738C14.6986 13.665 14.7956 13.76 14.8826 13.8559C14.5482 14.1969 14.1927 14.5345 13.8634 14.8779C13.7971 14.8479 13.4954 14.5273 13.4279 14.4615C13.0991 14.141 12.7824 13.7954 12.4245 13.5056C11.7474 12.9556 10.9548 12.5656 10.1059 12.3649C9.68379 12.2622 9.20819 12.2048 8.77368 12.2038C7.72295 12.2013 6.69082 12.4812 5.78531 13.0142C5.53607 13.1617 5.25976 13.3501 5.03665 13.5365C4.70335 13.8148 4.39713 14.1395 4.08856 14.4433C3.96015 14.5696 3.78272 14.7618 3.65029 14.8764L3.64191 14.8836C3.30764 14.5432 2.95902 14.1927 2.61843 13.8593C2.70034 13.7545 2.83307 13.6333 2.92822 13.5385C3.43604 13.0326 3.94623 12.5515 4.34483 11.9498C4.91835 11.0728 5.24526 10.0575 5.29129 9.01057C5.35294 7.69146 4.96179 6.39095 4.18272 5.32473C3.82661 4.8405 3.41345 4.44303 2.98808 4.02143C2.86504 3.89948 2.73098 3.77212 2.61523 3.64414C2.69215 3.57588 2.82894 3.42674 2.90975 3.34576C3.14845 3.10533 3.38866 2.86641 3.63037 2.62902C3.70919 2.63658 4.68071 3.67928 4.83654 3.78307C4.90817 3.84687 4.98173 3.91947 5.05522 3.98024C7.1793 5.7371 10.3417 5.7323 12.4581 3.96625C12.9578 3.54922 13.3791 3.0529 13.8576 2.61719Z" fill="var(--fill-0, white)"/>
<path d="M0 13.5456C0.0405259 13.428 0.0394374 13.3049 0.0631734 13.1854C0.0874415 13.0632 0.118181 12.9279 0.154122 12.8087C0.43546 11.8714 1.08121 11.0861 1.94658 10.629C2.45366 10.3647 3.01617 10.2244 3.58796 10.2197C3.52464 10.351 3.4739 10.5038 3.41417 10.6279C3.28187 10.9028 3.08724 11.2232 2.89642 11.4626C2.29786 12.2131 1.59404 12.5385 1.47639 13.5989C1.43732 13.9274 1.47334 14.2606 1.58173 14.5732C1.77534 15.1274 2.18317 15.5808 2.71385 15.8318C3.23944 16.0779 3.84108 16.1058 4.38726 15.9096C5.10141 15.6531 5.44703 15.0628 6.01512 14.6165C6.36136 14.3444 6.86289 14.0643 7.28367 13.9313C7.27581 14.053 7.26943 14.1959 7.25449 14.314C7.14001 15.2186 6.70014 16.0363 6.00541 16.6282C5.55304 17.0135 5.03219 17.2741 4.45134 17.412C4.34241 17.4379 4.03417 17.4707 3.96146 17.5001H3.346C3.30213 17.4849 3.2315 17.4731 3.1849 17.4678C1.63977 17.291 0.341218 16.061 0.0648742 14.533C0.046299 14.4303 0.0380771 14.2618 0 14.1637V13.5456Z" fill="var(--fill-0, white)"/>
<path d="M3.35142 0H3.93613C4.04376 0.031892 4.15177 0.0314714 4.2596 0.0508872C4.3905 0.0744574 4.53306 0.109281 4.66096 0.146017C5.58305 0.4154 6.36211 1.03681 6.82975 1.87593C7.12795 2.39946 7.26677 2.99336 7.28278 3.59222C7.15087 3.52553 7.00277 3.47805 6.87496 3.41679C6.60301 3.28646 6.28874 3.09785 6.0512 2.91022C5.30067 2.31739 4.99736 1.63012 3.95243 1.48509C3.61283 1.43987 3.26739 1.47153 2.94168 1.57775C2.40046 1.76122 1.95249 2.14918 1.69363 2.65866C1.43007 3.18532 1.3883 3.79557 1.57766 4.35322C1.83587 5.11823 2.43076 5.4303 2.89962 6.04321C3.09798 6.30252 3.26382 6.57718 3.40373 6.87232C3.4653 7.00221 3.51401 7.15492 3.57564 7.28287C3.46521 7.27818 3.35693 7.27476 3.24548 7.26348C1.62629 7.09965 0.268862 5.80626 0.0450465 4.1904C0.0365568 4.12911 0.0237356 4.00406 0 3.95295V3.33562C0.0331013 3.25439 0.0518608 3.02659 0.0740784 2.92146C0.157804 2.52529 0.289231 2.16767 0.494099 1.81787C0.960956 1.00885 1.7214 0.410666 2.61761 0.147464C2.74909 0.10896 2.88526 0.0803535 3.01988 0.0554645C3.12657 0.03574 3.24808 0.0291472 3.35142 0Z" fill="var(--fill-0, white)"/>
<path d="M13.5567 0H14.1451C14.2492 0.0315412 14.3737 0.0357512 14.4813 0.0561809C14.6113 0.0808477 14.7454 0.109129 14.8723 0.146266C15.8014 0.420253 16.5846 1.05022 17.0513 1.89898C17.2312 2.21884 17.3585 2.59053 17.4288 2.95054C17.4524 3.07185 17.47 3.27729 17.4992 3.38564V3.91806C17.4878 3.95504 17.4761 4.02069 17.472 4.0595C17.3068 5.62392 16.0818 6.93874 14.5365 7.22382C14.319 7.26397 14.1312 7.27497 13.9086 7.28532C13.9725 7.16198 14.0222 6.99973 14.0841 6.87107C14.2205 6.58726 14.3684 6.35139 14.5545 6.09891C15.1094 5.34569 15.8242 5.04505 16.0024 4.03727C16.107 3.4632 15.9773 2.87118 15.6426 2.39323C15.3149 1.92363 14.815 1.60235 14.2516 1.49922C13.9562 1.44745 13.6534 1.45452 13.3607 1.52002C12.41 1.72958 12.1234 2.40901 11.3964 2.94262C11.1483 3.12475 10.9254 3.25834 10.6506 3.39516C10.5422 3.44911 10.3037 3.52424 10.2188 3.58403C10.2257 2.99238 10.3775 2.41144 10.6608 1.89198C11.1197 1.05036 11.8934 0.424828 12.8124 0.152285C12.9482 0.112121 13.0906 0.0813911 13.2296 0.0546858C13.3336 0.0347139 13.4569 0.0312863 13.5567 0Z" fill="var(--fill-0, white)"/>
<path d="M13.9204 10.2197C14.6032 10.228 15.2696 10.4297 15.8424 10.8014C16.5751 11.2784 17.1118 12.0029 17.3545 12.8428C17.4377 13.1404 17.4398 13.3234 17.4992 13.5948V14.1223L17.4968 14.1326C17.4674 14.264 17.4561 14.4004 17.4322 14.5325C17.2594 15.4885 16.6584 16.3825 15.8393 16.9077C15.4638 17.1511 15.0477 17.3251 14.6108 17.4212C14.5133 17.4425 14.2412 17.4677 14.1707 17.4989H13.555C13.4148 17.4512 13.1711 17.4373 13.0087 17.3991C11.7411 17.1003 10.7028 16.113 10.3529 14.8565C10.2616 14.5285 10.2305 14.2565 10.2168 13.9132C10.3498 13.9704 10.5106 14.0292 10.6378 14.0901C10.9255 14.228 11.2171 14.4104 11.4681 14.6067C12.1202 15.1168 12.4162 15.722 13.2638 15.9575C13.8236 16.1136 14.4227 16.04 14.9282 15.7532C15.4361 15.4655 15.8083 14.987 15.9621 14.4239C16.0476 14.108 16.0609 13.777 16.001 13.4553C15.8221 12.4702 15.1563 12.1713 14.5938 11.4511C14.4063 11.2111 14.2293 10.9069 14.0957 10.6331C14.0378 10.5143 13.9846 10.3319 13.9204 10.2197Z" fill="var(--fill-0, white)"/>
</g>
</svg>
