<svg preserveAspectRatio="none" width="100%" height="100%" overflow="visible" style="display: block;" viewBox="0 0 21.5661 21.027" fill="none" xmlns="http://www.w3.org/2000/svg">
<g id="Group">
<path id="Vector" d="M17.7471 0H3.81901C1.70982 0 0 1.70983 0 3.81899V17.208C0 19.3172 1.70982 21.027 3.81901 21.027H17.7471C19.8562 21.027 21.5661 19.3172 21.5661 17.208V3.81899C21.5661 1.70983 19.8562 0 17.7471 0Z" fill="var(--fill-0, #00005B)"/>
<path id="Vector_2" d="M8.66433 12.5789H5.32213L4.64207 14.6953C4.63319 14.734 4.61092 14.7683 4.57919 14.7921C4.54746 14.816 4.50834 14.8279 4.46869 14.8257H2.7778C2.68143 14.8257 2.64777 14.7723 2.67681 14.6662L5.57039 6.3675C5.599 6.28081 5.62804 6.19581 5.65708 6.08517C5.695 5.89201 5.71429 5.69574 5.71473 5.49894C5.71151 5.47547 5.7177 5.45161 5.73196 5.4327C5.74626 5.41379 5.76743 5.40126 5.7909 5.39795C5.7993 5.39665 5.8078 5.39665 5.81615 5.39795H8.11641C8.18375 5.39795 8.22244 5.4219 8.23213 5.47033L11.5146 14.681C11.5426 14.7774 11.5138 14.8257 11.4279 14.8257H9.54681C9.51445 14.8292 9.48201 14.8208 9.45537 14.8022C9.42873 14.7835 9.40977 14.7558 9.40204 14.7243L8.66433 12.5789ZM5.84481 10.7946H8.13071C8.07263 10.6019 8.00505 10.3849 7.92786 10.1436C7.85073 9.90232 7.76879 9.64437 7.6821 9.36971L7.42161 8.54488C7.33492 8.27022 7.25538 8.00498 7.183 7.74909C7.11061 7.49325 7.045 7.25939 6.98605 7.04757H6.97132C6.8901 7.43834 6.78868 7.82459 6.66748 8.20485C6.53255 8.63915 6.39508 9.08281 6.25511 9.53593C6.11509 9.98901 5.97777 10.4086 5.84308 10.7946H5.84481Z" fill="var(--fill-0, #9999FF)"/>
<path id="Vector_3" d="M16.8382 11.7573H13.988C14.0228 12.0393 14.1164 12.3108 14.2628 12.5543C14.4246 12.7954 14.6533 12.984 14.9209 13.0968C15.2838 13.2538 15.6762 13.3307 16.0714 13.3224C16.3849 13.3164 16.6972 13.282 17.0044 13.2196C17.2793 13.1822 17.5486 13.1116 17.8066 13.0093C17.8548 12.9711 17.8789 12.9952 17.8789 13.0816V14.456C17.8833 14.4904 17.8774 14.5252 17.8619 14.5561C17.8465 14.5871 17.8222 14.6127 17.7922 14.6298C17.506 14.7565 17.2048 14.8462 16.8958 14.8967C16.4763 14.9757 16.0498 15.0121 15.6228 15.0052C14.9377 15.0052 14.3639 14.8992 13.9013 14.6871C13.4638 14.4943 13.0773 14.2021 12.7726 13.8337C12.4885 13.4865 12.277 13.0858 12.1506 12.6554C12.0258 12.23 11.9624 11.789 11.9625 11.3457C11.9613 10.8619 12.037 10.3809 12.1868 9.9208C12.3314 9.472 12.5599 9.05473 12.8602 8.69113C13.1562 8.33181 13.5264 8.04064 13.9454 7.83774C14.3697 7.63024 14.8713 7.55574 15.4499 7.55574C15.9299 7.54393 16.4066 7.63787 16.8462 7.83097C17.2157 7.98841 17.541 8.23408 17.7935 8.54637C18.0307 8.85222 18.2119 9.19753 18.3288 9.56646C18.4428 9.9219 18.5014 10.2928 18.5026 10.6661C18.5026 10.8782 18.4953 11.0711 18.4807 11.2447C18.4664 11.4181 18.4542 11.5435 18.4449 11.621C18.441 11.6528 18.4256 11.6822 18.4016 11.7035C18.3776 11.7248 18.3466 11.7366 18.3145 11.7367C18.2567 11.7367 18.1578 11.7438 18.0178 11.7581C17.8781 11.7729 17.7043 11.7821 17.4972 11.7872C17.2902 11.7922 17.0697 11.7573 16.8382 11.7573ZM13.988 10.4392H15.8817C16.1131 10.4392 16.2843 10.4369 16.3951 10.4321C16.4695 10.4247 16.5413 10.4009 16.6055 10.3627V10.2756C16.6024 10.1625 16.5828 10.0505 16.5474 9.94312C16.4694 9.69621 16.3125 9.48179 16.1007 9.33275C15.889 9.18371 15.6342 9.1084 15.3754 9.11829C15.1319 9.10369 14.8895 9.16019 14.6776 9.28096C14.4657 9.40168 14.2935 9.58149 14.182 9.79835C14.0834 10.0002 14.0179 10.2166 13.988 10.4392Z" fill="var(--fill-0, #9999FF)"/>
</g>
</svg>
