<svg preserveAspectRatio="none" width="100%" height="100%" overflow="visible" style="display: block;" viewBox="0 0 21.0965 21.7558" fill="none" xmlns="http://www.w3.org/2000/svg">
<g id="Group">
<path id="Vector" d="M15.763 15.8375C15.9014 14.6847 15.8599 14.5156 16.7186 14.7024L16.9366 14.7215C17.5969 14.7516 18.4606 14.6153 18.968 14.3796C20.0603 13.8728 20.708 13.0265 19.6309 13.2489C17.1741 13.7557 17.0052 12.9238 17.0052 12.9238C19.5995 9.07451 20.684 4.1882 19.7479 2.99213C17.1947 -0.270316 12.7751 1.27242 12.7011 1.31247L12.6776 1.31682C12.1921 1.2161 11.6489 1.15592 11.0386 1.14605C9.92675 1.12778 9.08312 1.43752 8.44317 1.92292C8.44317 1.92292 0.558869 -1.32531 0.925661 6.00789C1.00367 7.56787 3.16173 17.812 5.73563 14.7178C6.67637 13.5864 7.58551 12.6297 7.58551 12.6297C8.03696 12.9296 8.57745 13.0826 9.14432 13.0277L9.18814 12.9903C9.17441 13.1308 9.18047 13.2682 9.20567 13.4308C8.54272 14.1717 8.73752 14.3018 7.41186 14.5746C6.07067 14.8511 6.85862 15.3432 7.37293 15.4718C7.99661 15.6278 9.43941 15.8487 10.4145 14.4839L10.3757 14.6397C10.6358 14.8477 10.6182 16.1353 10.6551 17.0552C10.692 17.9752 10.7536 18.8337 10.9412 19.3399C11.1287 19.8459 11.35 21.1496 13.0922 20.7763C14.5483 20.4642 15.6615 20.0152 15.763 15.8375Z" fill="var(--fill-0, black)" stroke="var(--stroke-0, black)" stroke-width="1.82665"/>
<path id="Vector_2" d="M19.6314 13.2489C17.1743 13.7557 17.0054 12.9238 17.0054 12.9238C19.5997 9.07424 20.6842 4.18783 19.7483 2.99191C17.1951 -0.270344 12.7753 1.27249 12.7015 1.31254L12.6778 1.31679C12.1924 1.21602 11.6491 1.15599 11.0385 1.14602C9.9267 1.1278 9.08335 1.43749 8.44341 1.92279C8.44341 1.92279 0.55896 -1.32529 0.925654 6.00787C1.00366 7.56794 3.16168 17.8121 5.73567 14.7179C6.67646 13.5864 7.58546 12.6298 7.58546 12.6298C8.03695 12.9297 8.57744 13.0827 9.14407 13.0277L9.18808 12.9904C9.1744 13.1308 9.18066 13.2682 9.20571 13.4309C8.54262 14.1718 8.73747 14.3018 7.4119 14.5747C6.07061 14.8511 6.85857 15.3433 7.37302 15.4719C7.9967 15.6278 9.43959 15.8488 10.4145 14.484L10.3756 14.6397C10.6355 14.8478 10.8179 15.9933 10.7873 17.0317C10.7568 18.0701 10.7363 18.7831 10.9411 19.3399C11.1458 19.8968 11.3498 21.1497 13.0924 20.7763C14.5485 20.4643 15.303 19.6557 15.408 18.3069C15.4825 17.3479 15.651 17.4897 15.6617 16.6324L15.7969 16.2265C15.9528 14.9267 15.8217 14.5073 16.7187 14.7023L16.9367 14.7215C17.597 14.7515 18.4612 14.6153 18.9683 14.3796C20.0605 13.8727 20.7082 13.0265 19.6313 13.2489H19.6314Z" fill="var(--fill-0, #336791)"/>
<path id="Vector_3" d="M10.5198 13.9941C10.4521 16.4129 10.5368 18.8484 10.7734 19.4403C11.0102 20.0323 11.517 21.1836 13.2597 20.8103C14.7157 20.4981 15.2454 19.8941 15.4753 18.5608C15.6446 17.5799 15.971 14.8556 16.0129 14.2974M8.43098 1.86894C8.43098 1.86894 0.541156 -1.35574 0.907948 5.97742C0.985957 7.53749 3.14412 17.782 5.71806 14.6876C6.65866 13.556 7.50933 12.6685 7.50933 12.6685M12.6926 1.28039C12.4195 1.36601 17.0814 -0.423839 19.7309 2.96155C20.6667 4.15752 19.5822 9.04394 16.9879 12.8936" stroke="var(--stroke-0, white)" stroke-width="0.608883" stroke-linecap="round" stroke-linejoin="round"/>
<path id="Vector_4" d="M16.988 12.8939C16.988 12.8939 17.1571 13.7261 19.6142 13.2189C20.6908 12.9965 20.0429 13.8429 18.951 14.3499C18.0549 14.7658 16.0459 14.8724 16.0131 14.2977C15.9286 12.815 17.0704 13.2654 16.988 12.8939ZM16.988 12.8939C16.9135 12.5593 16.4029 12.2309 16.0652 11.412C15.7703 10.6972 12.0208 5.2158 17.105 6.02988C17.2912 5.99134 15.779 1.19393 11.0209 1.11592C6.26396 1.03791 6.42003 6.96594 6.42003 6.96594" stroke="var(--stroke-0, white)" stroke-width="0.608883" stroke-linecap="round" stroke-linejoin="bevel"/>
<path id="Vector_5" d="M9.18676 13.4C8.52357 14.1408 8.71861 14.2709 7.39295 14.5438C6.05166 14.8203 6.83971 15.3123 7.35402 15.4409C7.9777 15.597 9.42059 15.8179 10.3955 14.4528C10.6924 14.0371 10.3938 13.3739 9.98595 13.2049C9.7889 13.1232 9.52542 13.021 9.18676 13.4Z" stroke="var(--stroke-0, white)" stroke-width="0.608883" stroke-linecap="round" stroke-linejoin="round"/>
<path id="Vector_6" d="M9.14449 13.387C9.07767 12.9514 9.28762 12.4331 9.5126 11.8267C9.85072 10.9169 10.6309 10.0069 10.0068 7.12085C9.54162 4.97016 6.42161 6.67326 6.41966 6.96488C6.41775 7.2564 6.56078 8.44299 6.36754 9.82478C6.11539 11.6279 7.51486 13.1528 9.12637 12.9968" stroke="var(--stroke-0, white)" stroke-width="0.608883" stroke-linecap="round" stroke-linejoin="round"/>
<path id="Vector_7" d="M8.40131 6.92175C8.38724 7.02135 8.58366 7.28712 8.83976 7.32263C9.09543 7.35829 9.31426 7.1506 9.32814 7.05109C9.34201 6.95149 9.14584 6.84178 8.88964 6.80613C8.63382 6.77042 8.41489 6.82239 8.40136 6.92175H8.40131Z" fill="var(--fill-0, white)" stroke="var(--stroke-0, white)" stroke-width="0.202959"/>
<path id="Vector_8" d="M16.189 6.71812C16.2029 6.81772 16.0067 7.0835 15.7506 7.11901C15.4947 7.15467 15.2759 6.94697 15.2619 6.84747C15.2483 6.74787 15.4446 6.63816 15.7005 6.6025C15.9564 6.56684 16.1752 6.61877 16.189 6.71817V6.71812Z" fill="var(--fill-0, white)" stroke="var(--stroke-0, white)" stroke-width="0.10148"/>
<path id="Vector_9" d="M17.105 6.03001C17.1472 6.81127 16.9367 7.34341 16.9102 8.17507C16.8709 9.38394 17.4866 10.7676 16.559 12.1529" stroke="var(--stroke-0, white)" stroke-width="0.608883" stroke-linecap="round" stroke-linejoin="round"/>
</g>
</svg>
