<svg preserveAspectRatio="none" width="100%" height="100%" overflow="visible" style="display: block;" viewBox="0 0 17.3333 17.3333" fill="none" xmlns="http://www.w3.org/2000/svg">
<g id="elements">
<path id="Vector 6356" d="M4.5 10.3333V4.5" stroke="var(--stroke-0, white)" stroke-width="1.5" stroke-linecap="round" stroke-linejoin="round"/>
<path id="Vector" d="M7.83333 7.83333L7.83333 4.5M7.83333 7.83333C7.83333 9.21405 8.95262 10.3333 10.3333 10.3333C11.714 10.3333 12.8333 9.21405 12.8333 7.83333V4.5M7.83333 7.83333V10.3333" stroke="var(--stroke-0, white)" stroke-width="1.5" stroke-linecap="round" stroke-linejoin="round"/>
<path id="Vector_2" d="M4.50667 12.8333L4.49919 12.8333" stroke="var(--stroke-0, white)" stroke-width="1.5" stroke-linecap="round" stroke-linejoin="round"/>
<path id="Vector_3" d="M0.750001 8.66667C0.750001 12.3986 0.750001 14.2646 1.90937 15.424C3.06874 16.5833 4.93471 16.5833 8.66667 16.5833C12.3986 16.5833 14.2646 16.5833 15.424 15.424C16.5833 14.2646 16.5833 12.3986 16.5833 8.66667C16.5833 4.93471 16.5833 3.06874 15.424 1.90937C14.2646 0.75 12.3986 0.75 8.66667 0.75C4.93471 0.75 3.06874 0.75 1.90937 1.90937C0.750001 3.06874 0.750001 4.93471 0.750001 8.66667Z" stroke="var(--stroke-0, white)" stroke-width="1.5" stroke-linejoin="round"/>
</g>
</svg>
