<svg preserveAspectRatio="none" width="100%" height="100%" overflow="visible" style="display: block;" viewBox="0 0 17.333 17.333" fill="none" xmlns="http://www.w3.org/2000/svg">
<path id="vector" d="M15.833 8.66699C15.833 6.77981 15.832 5.43917 15.6953 4.42285C15.5616 3.42832 15.3106 2.85651 14.8936 2.43945C14.4765 2.02246 13.9047 1.7724 12.9102 1.63867C11.8939 1.50204 10.554 1.5 8.66699 1.5C6.77981 1.5 5.43917 1.50203 4.42285 1.63867C3.42838 1.77243 2.8565 2.02241 2.43945 2.43945C2.02241 2.8565 1.77243 3.42838 1.63867 4.42285C1.50203 5.43917 1.5 6.77981 1.5 8.66699C1.5 10.554 1.50204 11.8939 1.63867 12.9102C1.7724 13.9047 2.02246 14.4765 2.43945 14.8936C2.85651 15.3106 3.42832 15.5616 4.42285 15.6953C5.43917 15.832 6.77981 15.833 8.66699 15.833C10.554 15.833 11.8939 15.8319 12.9102 15.6953C13.9049 15.5616 14.4765 15.3107 14.8936 14.8936C15.3107 14.4765 15.5616 13.9049 15.6953 12.9102C15.8319 11.8939 15.833 10.554 15.833 8.66699ZM11.667 8.66699C11.667 7.01025 10.3237 5.66717 8.66699 5.66699C7.01014 5.66699 5.66699 7.01014 5.66699 8.66699C5.66717 10.3237 7.01025 11.667 8.66699 11.667C10.3236 11.6668 11.6668 10.3236 11.667 8.66699ZM13.2568 3.33301C13.6708 3.33318 14.0067 3.66905 14.0068 4.08301C14.0068 4.49711 13.6709 4.83283 13.2568 4.83301H13.249C12.8348 4.83301 12.499 4.49722 12.499 4.08301C12.4992 3.66894 12.8349 3.33301 13.249 3.33301H13.2568ZM13.167 8.66699C13.1668 11.152 11.152 13.1668 8.66699 13.167C6.18182 13.167 4.16717 11.1521 4.16699 8.66699C4.16699 6.18171 6.18171 4.16699 8.66699 4.16699C11.1521 4.16717 13.167 6.18182 13.167 8.66699ZM17.333 8.66699C17.333 10.5116 17.3348 11.9709 17.1816 13.1104C17.0255 14.2713 16.6963 15.2119 15.9541 15.9541C15.2119 16.6963 14.2713 17.0255 13.1104 17.1816C11.9709 17.3348 10.5116 17.333 8.66699 17.333C6.82236 17.333 5.3631 17.3348 4.22363 17.1816C3.06256 17.0255 2.12117 16.6964 1.37891 15.9541C0.636833 15.2119 0.307478 14.2712 0.151368 13.1104C-0.00182466 11.9709 8.14727e-07 10.5116 1.00192e-06 8.66699C1.00192e-06 6.82238 -0.00179352 5.36309 0.151368 4.22363C0.307471 3.06256 0.636646 2.12117 1.37891 1.37891C2.12117 0.636646 3.06256 0.307471 4.22363 0.151368C5.36309 -0.00179352 6.82238 1.00192e-06 8.66699 1.00192e-06C10.5116 8.14727e-07 11.9709 -0.00182466 13.1104 0.151368C14.2712 0.307478 15.2119 0.636833 15.9541 1.37891C16.6964 2.12117 17.0255 3.06256 17.1816 4.22363C17.3348 5.3631 17.333 6.82236 17.333 8.66699Z" fill="var(--fill-0, white)"/>
</svg>
