<svg preserveAspectRatio="none" width="100%" height="100%" overflow="visible" style="display: block;" viewBox="0 0 24 17.3196" fill="none" xmlns="http://www.w3.org/2000/svg">
<g id="Group">
<path id="Vector" d="M23.5046 6.60911C22.9642 6.23412 21.7257 6.09351 20.7574 6.281C20.6448 5.34354 20.1269 4.52326 19.2262 3.79672L18.7082 3.42174L18.3479 3.96078C17.8976 4.66388 17.6724 5.64821 17.74 6.58567C17.7625 6.91378 17.8751 7.4997 18.2128 8.0153C17.8976 8.2028 17.2446 8.43716 16.3889 8.43716H0.10826L0.0632234 8.62465C-0.0944035 9.56212 -0.0944036 12.4917 1.75208 14.7416C3.14821 16.4525 5.21988 17.3196 7.94457 17.3196C13.8443 17.3196 18.2128 14.4838 20.262 9.35119C21.0726 9.37462 22.8065 9.35119 23.6847 7.59344C23.7073 7.54657 23.7523 7.45283 23.9099 7.10128L24 6.91378L23.5046 6.60911ZM13.1237 0H10.6467V2.34366H13.1237V0ZM13.1237 2.81239H10.6467V5.15604H13.1237V2.81239ZM10.1964 2.81239H7.71939V5.15604H10.1964V2.81239ZM7.26903 2.81239H4.79203V5.15604H7.26903V2.81239ZM4.34167 5.62477H1.86467V7.96843H4.34167V5.62477ZM7.26903 5.62477H4.79203V7.96843H7.26903V5.62477ZM10.1964 5.62477H7.71939V7.96843H10.1964V5.62477ZM13.1237 5.62477H10.6467V7.96843H13.1237V5.62477ZM16.0511 5.62477H13.5741V7.96843H16.0511V5.62477Z" fill="var(--fill-0, #2396ED)"/>
</g>
</svg>
