<svg preserveAspectRatio="none" width="100%" height="100%" overflow="visible" style="display: block;" viewBox="0 0 24 24" fill="none" xmlns="http://www.w3.org/2000/svg">
<g id="fastapi logo">
<path id="Vector" d="M12 2.00036C6.45955 2.00011 1.9679 6.4768 1.96765 11.9994C1.96681 17.5227 6.4588 22.0006 12 22.0004C17.5412 22.0006 22.0332 17.5227 22.0324 11.9994C22.0321 6.4768 17.5405 2.00003 12 2.00036Z" fill="var(--fill-0, white)"/>
<path id="Vector_2" d="M12 2.00036C6.45955 2.00011 1.9679 6.4768 1.96765 11.9994C1.96681 17.5227 6.4588 22.0006 12 22.0004C17.5412 22.0006 22.0332 17.5227 22.0324 11.9994C22.0321 6.4768 17.5405 2.00003 12 2.00036ZM11.3069 6.5278H17.619L11.2814 10.9825H15.6144L6.38105 17.471C8.02334 13.8235 9.6653 10.1758 11.3069 6.5278Z" fill="var(--fill-0, #009688)"/>
</g>
</svg>
