<svg width="512" height="512" viewBox="0 0 512 512" fill="none" xmlns="http://www.w3.org/2000/svg">
<rect width="512" height="512" rx="256" fill="white"/>
<path fill-rule="evenodd" clip-rule="evenodd" d="M230.634 102.983C243.746 99.9119 257.497 100.549 270.484 103.924C296.226 110.614 317.407 128.011 334.969 147.409C352.099 166.329 366.226 188.018 376.543 211.383L377.066 212.572C384.364 229.227 390.706 246.539 390.978 264.879C391.212 280.663 389.621 297.107 384.535 312.119C380.003 325.493 371.667 338.97 357.327 342.176C349.058 363.247 332.88 381.493 312.501 391.257C299.862 397.313 285.981 400.016 272.006 398.672C257.749 397.302 244.431 390.434 233.288 381.677C232.982 381.436 233.376 380.971 233.691 381.153C247.106 388.903 262.973 391.673 278.34 391.163C303.593 390.326 326.743 376.663 340.046 355.186C343.356 349.841 346.306 344.203 348.659 338.338C348.521 337.855 348.441 337.366 348.441 336.89C348.441 334.869 350.163 334.4 350.825 332.328C351.487 330.255 352.072 328.158 352.561 326.038C353.67 321.236 354.288 316.364 354.661 311.453C354.964 307.463 354.796 303.231 355.196 299.139C355.05 295.861 354.848 292.585 354.552 289.317C353.598 278.785 351.669 268.279 347.954 258.353C344.191 248.299 338.247 239.433 330.748 231.802C314.664 215.434 294.638 203.483 278.998 186.669L278.179 185.779L278.123 185.762C276.183 187.756 274.243 189.751 272.298 191.741L263.413 200.826C245.279 219.388 227.291 238.131 211.515 258.786C202.431 270.681 194.269 283.149 187.237 296.37C183.907 302.632 180.887 309.051 178.158 315.598L177.084 318.204C175.806 321.323 174.425 324.815 173.658 328.337C175.94 330.607 177.61 333.942 179.456 336.518C181.549 339.44 183.964 342.221 186.449 344.817C188.964 347.444 191.722 349.963 194.65 352.121L195.002 352.375C198.361 354.765 202.218 356.416 202.722 360.966C202.941 362.941 201.178 364.53 199.547 365.146C195.081 366.827 190.455 361.996 187.478 359.218C185.622 357.485 183.916 355.617 182.333 353.645C180.793 353.866 179.243 353.977 177.708 353.794C175.331 353.511 172.976 353.094 170.66 352.484C151.45 347.428 137.231 331.441 129.56 313.637C119.261 289.735 119.5 262.181 123.782 236.905C131.605 190.713 156.926 147.574 195.159 120.264C205.867 112.615 217.741 106.002 230.634 102.983ZM251.332 109.162C226.633 107.857 204.114 120.625 186.047 136.518C153.152 165.455 132.889 207.824 128.813 251.333C126.647 274.45 128.268 299.367 140.292 319.791C144.957 327.715 150.966 334.62 158.059 340.442C164.742 345.929 172.36 349.091 180.505 351.243C180.134 350.731 179.768 350.215 179.412 349.692C177.517 346.911 176.013 343.956 174.752 340.859C174.641 340.971 174.432 340.993 174.308 340.823C169.167 333.752 170.776 325.315 173.226 317.54C175.796 309.384 179.052 301.449 182.768 293.751C196.314 265.698 216.462 241.258 237.376 218.453C248.057 206.806 259.092 195.497 270.086 184.149C275.577 178.482 281.053 172.799 286.46 167.051C289.151 164.189 291.825 161.312 294.475 158.413C297.096 155.545 299.454 152.509 302.717 150.361C305.318 148.65 307.914 151.921 306.699 154.353C304.829 158.095 301.613 161.061 298.768 164.104L298.475 164.419C295.701 167.42 292.901 170.398 290.085 173.359C286.846 176.765 283.581 180.148 280.307 183.522C283.1 183.197 285.925 183.011 288.701 182.588C292.472 182.014 296.191 181.169 299.891 180.25C303.791 179.282 307.64 178.046 311.355 176.509C314.845 175.067 318.144 172.755 321.985 172.529C325.236 172.337 326.251 176.371 324.45 178.495C321.967 181.42 317.505 182.572 313.876 183.658L313.363 183.813C309.349 185.041 305.241 185.963 301.089 186.579C295.626 187.39 289.312 187.761 283.467 186.931C295.139 193.791 305.88 202.294 316.59 210.585L318.48 212.046C328.944 220.117 339.157 228.817 346.618 239.859C353.582 250.167 357.787 262.168 360.147 274.329C361.311 280.328 362.08 286.39 362.595 292.478C364.516 297.876 364.208 304.293 363.724 310.23L363.551 312.279L363.564 312.88C363.636 316.593 365.125 324.859 361.619 327.663C361.56 327.962 361.504 328.262 361.442 328.561C361.878 328.291 362.309 328.013 362.736 327.727C362.912 327.609 363.082 327.479 363.254 327.352L363.739 326.953C363.757 326.938 363.773 326.924 363.786 326.913C364.874 325.955 365.912 324.956 366.879 323.876C368.667 321.879 370.366 319.341 371.975 316.418C375.512 309.992 377.771 303.008 379.518 295.786C382.713 282.582 384.031 268.401 382.574 254.861C382.37 252.97 381.953 250.601 381.305 248.169C379.768 242.396 377.999 236.684 376.019 231.049C372.058 219.775 367.202 208.839 361.541 198.321C350.043 176.959 335.249 157.209 317.523 140.635C299.572 123.851 276.292 110.48 251.332 109.162ZM216.497 177.418C217.387 176.873 218.304 177.932 217.862 178.787C215.723 182.923 212.127 186.416 209.14 189.96C206.047 193.631 202.976 197.321 199.913 201.017C193.676 208.541 187.589 216.204 181.742 224.038L180.198 226.11C175.058 233.028 169.979 240.055 165.485 247.405C163.134 251.25 161.063 255.227 159.181 259.322C157.39 263.22 156.564 267.926 154.412 271.588C154.276 271.819 153.857 271.8 153.805 271.508C153.102 267.565 154.837 262.816 156.077 259.124C157.552 254.733 159.649 250.55 161.895 246.511C166.579 238.085 172.192 230.186 177.83 222.384C183.557 214.46 189.503 206.699 195.74 199.173C198.67 195.637 201.665 192.173 204.75 188.776L205.911 187.506C209.143 183.992 212.4 179.925 216.497 177.418ZM201.52 165.167C202.985 164.08 204.235 166.302 203.301 167.481C197.72 174.519 191.369 180.843 185.261 187.407C179.395 193.711 173.789 200.25 168.499 207.047C157.712 220.907 149.077 236.116 141.764 252.055C141.626 252.355 141.192 252.131 141.257 251.841C145.131 234.6 154.187 218.941 164.498 204.793L164.89 204.257C175.32 190.029 187.309 175.727 201.52 165.167Z" fill="black"/>
<path fill-rule="evenodd" clip-rule="evenodd" d="M294.384 353.457C290.402 351.832 286.848 349.12 284.249 345.657C283.346 344.453 283.112 343.181 283.301 342.018C283.515 340.71 284.288 339.525 285.343 338.73C286.4 337.933 287.724 337.539 289.003 337.74C290.115 337.914 291.222 338.523 292.097 339.786L292.28 340.039C293.825 342.129 295.838 343.844 298.131 344.95C300.342 346.016 302.814 346.513 305.373 346.224C310.245 345.673 313.604 343.037 317.174 339.457C317.616 339.005 318.059 338.539 318.504 338.065C318.785 337.636 319.175 337.36 319.607 337.215C320.088 337.054 320.632 337.063 321.13 337.237C321.61 337.405 322.04 337.723 322.328 338.146C322.601 338.548 322.756 339.044 322.706 339.615C322.379 343.325 320.44 346.637 317.686 349.236C314.628 352.124 310.573 354.121 306.756 354.822C302.55 355.594 298.265 355.041 294.384 353.457ZM308.741 296.231C313.215 298.952 320.032 305.296 315.219 312.041C309.553 317.988 301.396 311.17 297.376 308.086C293.649 305.696 289.461 311.843 292.919 314.633C321.966 336.147 333.754 296.943 311.004 293.033C308.499 292.602 307.569 295.39 308.741 296.231ZM256.685 271.207C257.179 265.068 266.525 263.674 267.454 269.748C268.287 275.19 267.307 280.188 264.857 285.087C262.516 289.767 256.632 287.584 256.187 283.322C255.59 277.609 256.377 275.025 256.685 271.207ZM327.827 268.485C329.13 266.778 331.012 265.613 333.265 266.271C340.307 268.33 338.232 278.331 335.759 283.199C334.415 285.843 330.071 286.513 328.108 284.186C324.909 280.39 323.377 272.809 327.444 269.07C327.554 268.877 327.677 268.682 327.827 268.485ZM264.755 244.347L265.868 244.152C269.309 243.556 273.588 242.984 276.022 245.752C277.313 247.22 277.757 249.947 276.022 251.352C272.969 253.824 269.594 252.866 265.936 253.075C262.922 253.248 260.024 253.747 257.12 254.578C250.75 256.399 245.559 259.724 240.118 263.376C239.404 263.855 238.675 262.941 239.016 262.273C242.157 256.119 248.244 251.063 254.34 247.982C257.594 246.337 261.155 244.972 264.755 244.347ZM321.41 241.59L322.261 241.764C331.526 243.702 343.564 247.572 347.951 256.676C348.119 257.963 347.942 258.239 347.798 258.419L347.75 258.479C347.632 258.633 347.538 258.846 346.98 259.021C346.825 258.984 346.669 258.945 346.511 258.903C344.5 258.376 342.908 257.65 341.368 256.896L339.698 256.073C337.76 255.122 335.805 254.206 333.733 253.53C329.312 252.088 324.764 251.071 320.146 250.529C319.145 250.411 318.181 250.073 317.421 249.494C316.699 248.944 316.147 248.183 315.896 247.171C315.57 245.862 315.664 244.87 316.366 243.689C316.894 242.802 317.65 242.187 318.517 241.834C319.402 241.474 320.409 241.389 321.41 241.59Z" fill="black"/>
<path fill-rule="evenodd" clip-rule="evenodd" d="M255.953 357.179C260.75 345.937 271.221 337.674 283.276 334.653C292.129 332.44 301.419 332.511 310.443 333.389C315.172 333.846 320.243 334.22 324.699 335.977C328.504 337.477 331.605 340.314 333.936 343.643C336.711 347.588 338.599 352.104 339.925 356.732C340.113 357.39 340.29 358.053 340.455 358.72C339.879 362.212 338.655 365.184 335.421 367.379C332.266 369.523 328.501 370.4 324.749 370.712C324.38 370.535 324.025 370.353 323.699 370.167C317.85 366.818 313.734 358.903 306.353 359.975C299.765 360.931 295.429 369.222 291.511 374.084C278.937 375.55 266.371 371.77 256.14 364.577C255.62 362.115 255.59 359.633 255.953 357.179ZM348.996 348.646C347.99 345.822 346.723 343.088 345.221 340.511C340.256 331.991 332.635 325.202 323.587 321.321C302.183 312.154 274.489 318.616 257.203 333.652C251.299 338.792 245.328 346.345 243.523 354.469C242.984 354.576 242.475 354.857 242.056 355.252C229.568 347.387 216.707 339.819 206.644 328.917C199.335 320.995 194.252 311.62 191.139 301.319C190.885 300.471 189.518 300.595 189.56 301.533C189.571 301.753 189.583 301.972 189.595 302.191C189.465 301.788 188.849 301.995 188.802 302.387C187.127 314.901 185.033 328.169 186.962 340.748C188.116 348.255 191.524 353.75 196.081 359.684C200.963 366.044 206.49 371.96 212.141 377.633C215.727 381.234 219.473 385.388 223.864 388.028C228.971 391.096 234.764 393.429 240.214 395.796C245.759 398.211 251.386 400.442 257.12 402.376C268.583 406.257 280.43 408.939 292.484 410.114C302.135 411.051 313.166 412.072 322.415 408.44C329.504 405.657 335.226 400.626 339.765 394.573C344.706 387.981 348.613 380.472 350.772 372.553C353.016 364.328 349.469 349.972 348.996 348.646Z" fill="black"/>
</svg>
