<svg preserveAspectRatio="none" width="100%" height="100%" overflow="visible" style="display: block;" viewBox="0 0 16.5094 18.1667" fill="none" xmlns="http://www.w3.org/2000/svg">
<path id="Vector" d="M11.5834 17.4167V14.0833C11.6993 13.0394 11.4 11.9918 10.75 11.1667C13.25 11.1667 15.75 9.5 15.75 6.58333C15.8167 5.54167 15.525 4.51667 14.9167 3.66667C15.15 2.70833 15.15 1.70833 14.9167 0.75C14.9167 0.75 14.0834 0.75 12.4167 2C10.2167 1.58333 7.95003 1.58333 5.75003 2C4.08336 0.75 3.25003 0.75 3.25003 0.75C3.00003 1.70833 3.00003 2.70833 3.25003 3.66667C2.64326 4.51324 2.34876 5.54399 2.4167 6.58333C2.4167 9.5 4.9167 11.1667 7.4167 11.1667C7.0917 11.575 6.85003 12.0417 6.70836 12.5417C6.5667 13.0417 6.52503 13.5667 6.58336 14.0833M6.58336 14.0833V17.4167M6.58336 14.0833C2.82503 15.75 2.41667 12.4167 0.75 12.4167" stroke="var(--stroke-0, white)" stroke-width="1.5" stroke-linecap="round" stroke-linejoin="round"/>
</svg>
