<svg preserveAspectRatio="none" width="100%" height="100%" overflow="visible" style="display: block;" viewBox="0 0 24 24" fill="none" xmlns="http://www.w3.org/2000/svg">
<g id="n8n logo">
<path id="Vector" fill-rule="evenodd" clip-rule="evenodd" d="M23.9999 8.30795C24.0005 8.90749 23.7822 9.4866 23.386 9.93661C22.9899 10.3866 22.4431 10.6766 21.8484 10.7521C21.2536 10.8276 20.6517 10.6834 20.1557 10.3466C19.6597 10.0098 19.3037 9.50361 19.1544 8.92295H15.7179C15.1159 8.92295 14.6029 9.35795 14.5039 9.95195L14.4024 10.559C14.3098 11.1173 14.0272 11.6265 13.6024 12.0005C14.0272 12.3745 14.3098 12.8836 14.4024 13.442L14.5039 14.049C14.5519 14.3363 14.7001 14.5974 14.9224 14.7857C15.1447 14.974 15.4266 15.0774 15.7179 15.0775H16.6929C16.8441 14.4988 17.2008 13.9949 17.6963 13.66C18.1917 13.325 18.7922 13.1818 19.3855 13.2571C19.9789 13.3324 20.5245 13.6211 20.9206 14.0692C21.3167 14.5174 21.5361 15.0944 21.5379 15.6925C21.5381 16.2917 21.3197 16.8704 20.9236 17.3201C20.5276 17.7698 19.9811 18.0596 19.3866 18.1351C18.7922 18.2106 18.1906 18.0667 17.6947 17.7303C17.1988 17.3939 16.8426 16.8882 16.6929 16.308H15.7179C15.1352 16.3079 14.5714 16.1012 14.1268 15.7246C13.6822 15.3479 13.3857 14.8257 13.2899 14.251L13.1884 13.644C13.1404 13.3567 12.9921 13.0957 12.7698 12.9075C12.5475 12.7193 12.2657 12.616 11.9744 12.616H10.9704C10.8163 13.1204 10.5043 13.562 10.0803 13.8757C9.65636 14.1895 9.14286 14.3588 8.61543 14.3588C8.088 14.3588 7.5745 14.1895 7.15054 13.8757C6.72658 13.562 6.41457 13.1204 6.26043 12.616H4.81693C4.64219 13.189 4.26449 13.6786 3.75461 13.993C3.24473 14.3075 2.63768 14.4252 2.04722 14.3242C1.45675 14.2231 0.923405 13.9102 0.547133 13.444C0.17086 12.9779 -0.0225115 12.3906 0.00325645 11.7921C0.0290244 11.1936 0.272163 10.625 0.687108 10.1929C1.10205 9.76087 1.66032 9.49495 2.25728 9.44501C2.85425 9.39507 3.44894 9.56455 3.9299 9.92167C4.41086 10.2788 4.74508 10.7991 4.86993 11.385H6.20743C6.32535 10.8338 6.62876 10.3398 7.06701 9.9854C7.50526 9.631 8.05182 9.43766 8.61543 9.43766C9.17904 9.43766 9.7256 9.631 10.1638 9.9854C10.6021 10.3398 10.9055 10.8338 11.0234 11.385H11.9744C12.5759 11.385 13.0894 10.95 13.1884 10.3565L13.2899 9.74945C13.3857 9.17468 13.6822 8.65251 14.1268 8.27585C14.5714 7.89919 15.1352 7.69246 15.7179 7.69245H19.1544C19.3053 7.11331 19.6618 6.60891 20.1575 6.27354C20.6532 5.93818 21.254 5.79481 21.8477 5.87022C22.4414 5.94564 22.9874 6.23468 23.3834 6.68332C23.7795 7.13196 23.9987 7.70949 23.9999 8.30795ZM22.7689 8.30795C22.7689 8.6343 22.6393 8.94729 22.4085 9.17805C22.1778 9.40881 21.8648 9.53845 21.5384 9.53845C21.2121 9.53845 20.8991 9.40881 20.6683 9.17805C20.4376 8.94729 20.3079 8.6343 20.3079 8.30795C20.3079 7.9816 20.4376 7.66862 20.6683 7.43786C20.8991 7.2071 21.2121 7.07745 21.5384 7.07745C21.8648 7.07745 22.1778 7.2071 22.4085 7.43786C22.6393 7.66862 22.7689 7.9816 22.7689 8.30795ZM2.46243 13.1285C2.78885 13.1285 3.10189 12.9988 3.3327 12.768C3.56351 12.5372 3.69318 12.2241 3.69318 11.8977C3.69318 11.5713 3.56351 11.2582 3.3327 11.0274C3.10189 10.7966 2.78885 10.667 2.46243 10.667C2.13601 10.667 1.82297 10.7966 1.59216 11.0274C1.36135 11.2582 1.23168 11.5713 1.23168 11.8977C1.23168 12.2241 1.36135 12.5372 1.59216 12.768C1.82297 12.9988 2.13601 13.1285 2.46243 13.1285ZM8.61593 13.1285C8.94235 13.1285 9.25539 12.9988 9.4862 12.768C9.71701 12.5372 9.84668 12.2241 9.84668 11.8977C9.84668 11.5713 9.71701 11.2582 9.4862 11.0274C9.25539 10.7966 8.94235 10.667 8.61593 10.667C8.28952 10.667 7.97647 10.7966 7.74566 11.0274C7.51485 11.2582 7.38518 11.5713 7.38518 11.8977C7.38518 12.2241 7.51485 12.5372 7.74566 12.768C7.97647 12.9988 8.28952 13.1285 8.61593 13.1285ZM19.0774 16.9235C19.4038 16.9235 19.7169 16.7938 19.9477 16.563C20.1785 16.3322 20.3082 16.0191 20.3082 15.6927C20.3082 15.3663 20.1785 15.0532 19.9477 14.8224C19.7169 14.5916 19.4038 14.462 19.0774 14.462C18.751 14.462 18.438 14.5916 18.2072 14.8224C17.9763 15.0532 17.8467 15.3663 17.8467 15.6927C17.8467 16.0191 17.9763 16.3322 18.2072 16.563C18.438 16.7938 18.751 16.9235 19.0774 16.9235Z" fill="var(--fill-0, #EA4B71)"/>
</g>
</svg>
