<svg preserveAspectRatio="none" width="100%" height="100%" overflow="visible" style="display: block;" viewBox="0 0 20.0307 20.8993" fill="none" xmlns="http://www.w3.org/2000/svg">
<g id="Group">
<path id="Vector" d="M1.27073 0.918181L12.841 0.0515698C14.2456 -0.081755 14.6134 0.0182386 15.5163 0.651531L19.2282 3.25139C19.8301 3.68469 20.0307 3.81798 20.0307 4.31795V18.5504C20.0307 19.4503 19.6963 19.9836 18.5593 20.0503L5.11635 20.8503C4.24693 20.8836 3.84565 20.7836 3.41091 20.2169L0.702245 16.7172C0.20064 16.0505 2.86102e-08 15.5839 2.86102e-08 15.0173V2.35142C2.86102e-08 1.61814 0.334402 0.984843 1.27073 0.918181Z" fill="var(--fill-0, white)"/>
<path id="Vector_2" fill-rule="evenodd" clip-rule="evenodd" d="M12.841 0.0515698L1.27073 0.918181C0.334402 0.984843 0 1.61814 0 2.35142V15.0173C0 15.5839 0.20064 16.0839 0.702245 16.7172L3.41091 20.2503C3.84565 20.8169 4.28034 20.9502 5.11635 20.8836L18.5593 20.0836C19.6963 20.017 20.0307 19.4836 20.0307 18.5837V4.31795C20.0307 3.85134 19.8635 3.718 19.295 3.31801C19.2616 3.2847 19.2282 3.2847 19.1947 3.25139L15.5163 0.684863C14.6468 0.0182386 14.279 -0.0484238 12.841 0.0515698ZM5.41731 4.08467C4.31379 4.15129 4.0797 4.18465 3.44437 3.65133L1.87266 2.41808C1.70545 2.25143 1.77233 2.05144 2.20706 2.01811L13.3427 1.21816C14.279 1.1515 14.7472 1.45148 15.115 1.75146L17.0211 3.11804C17.1214 3.15137 17.3221 3.38468 17.0545 3.38468L5.55109 4.08467H5.41731ZM4.14661 18.4504V6.35118C4.14661 5.81785 4.31379 5.58457 4.78194 5.55121L17.9909 4.7846C18.4256 4.75129 18.6262 5.01793 18.6262 5.55121V17.5504C18.6262 18.0838 18.5259 18.5171 17.8237 18.5504L5.18327 19.2837C4.48098 19.3503 4.14661 19.0837 4.14661 18.4504ZM16.6198 7.0178C16.6867 7.38443 16.6198 7.7511 16.252 7.78441L15.65 7.91776V16.8505C15.115 17.1505 14.6468 17.2838 14.2456 17.2838C13.6102 17.2838 13.443 17.0838 12.9414 16.4838L8.92856 10.2176V16.2506L10.1993 16.5505C10.1993 16.5505 10.1993 17.2838 9.19607 17.2838L6.38711 17.4505C6.32019 17.2838 6.38711 16.8838 6.65461 16.8171L7.39031 16.6172V8.61769L6.38711 8.51771C6.32019 8.15104 6.52083 7.61776 7.08935 7.58444L10.0989 7.38443L14.2456 13.7174V8.11773L13.1755 7.98438C13.1086 7.55109 13.4096 7.21777 13.8108 7.18446L16.6198 7.0178Z" fill="var(--fill-0, black)"/>
</g>
</svg>
