<svg preserveAspectRatio="none" width="100%" height="100%" overflow="visible" style="display: block;" viewBox="0 0 20 19.9954" fill="none" xmlns="http://www.w3.org/2000/svg">
<g id="Group">
<path id="Vector" d="M18.7761 0H1.225C0.5484 0 0 0.547253 0 1.22159V18.7715C0 19.447 0.5484 19.9954 1.225 19.9954H18.7761C19.4516 19.9954 20 19.447 20 18.7715V1.22276C20 0.547253 19.4516 0 18.7761 0Z" fill="var(--fill-0, #0C1B31)"/>
<path id="Vector_2" d="M16.1447 2.99771H3.85609C3.38236 2.99771 2.99839 3.38087 2.99839 3.85301V16.1408C2.99839 16.6137 3.38236 16.9977 3.85609 16.9977H16.1447C16.6176 16.9977 17.0016 16.6137 17.0016 16.1408V3.85384C17.0016 3.38087 16.6176 2.99771 16.1447 2.99771Z" fill="var(--fill-0, #2396ED)"/>
<g id="Union">
<path d="M7.10506 6.12987C8.22317 6.12993 8.85608 6.67554 8.85714 7.58657C8.85694 8.60256 8.12066 9.20503 6.92835 9.20503C6.6049 9.20502 6.37098 9.19113 6.17934 9.14789V6.21954C6.34011 6.17421 6.64949 6.12987 7.10506 6.12987Z" fill="var(--fill-0, #0C1B31)"/>
<path fill-rule="evenodd" clip-rule="evenodd" d="M17.9007 0.997559C18.5086 0.99768 19.0021 1.49023 19.0022 2.09822V17.896C19.0022 18.504 18.5086 18.9974 17.9007 18.9976H2.10022C1.49129 18.9974 0.997802 18.504 0.997802 17.896V2.09734C0.997802 1.49041 1.49129 0.997748 2.10022 0.997559H17.9007ZM14.2945 7.0714C12.5136 7.0714 11.3653 8.08967 11.3653 9.42745C11.3509 10.2808 11.9258 11.0912 13.4119 11.591C14.2496 11.8712 14.4702 12.0471 14.4703 12.4138C14.4703 12.7828 14.1898 13.0178 13.5147 13.0178C12.851 13.0177 11.9964 12.7229 11.5842 12.4745L11.1877 14.0789C11.7328 14.3746 12.5708 14.5782 13.5147 14.5782C15.5719 14.5782 16.6338 13.592 16.6338 12.2512C16.6204 11.1938 16.0454 10.5014 14.6769 10.0314C13.7938 9.72119 13.5166 9.54477 13.5165 9.20679C13.5165 8.83886 13.8243 8.61778 14.3675 8.61778C14.9868 8.6178 15.6043 8.85192 15.9279 9.02921L16.3244 7.48371C15.8833 7.2642 15.1333 7.07145 14.2945 7.0714ZM6.98725 4.4402C5.61749 4.4402 4.64587 4.52853 3.95429 4.64503V14.4323H6.17758V10.8842C6.38366 10.914 6.64762 10.929 6.9433 10.929C8.26561 10.929 9.40069 10.6052 10.1644 9.88371C10.7538 9.32311 11.0786 8.50186 11.0787 7.53119C11.0787 6.56032 10.6526 5.73581 10.0167 5.23492C9.3561 4.70416 8.36917 4.44024 6.98725 4.4402Z" fill="var(--fill-0, #0C1B31)"/>
</g>
</g>
</svg>
