<svg preserveAspectRatio="none" width="100%" height="100%" overflow="visible" style="display: block;" viewBox="0 0 12.1116 15.627" fill="none" xmlns="http://www.w3.org/2000/svg">
<g id="Group">
<path id="Vector" d="M9.90863 14.509C9.81402 15.2231 9.11519 15.7785 8.42246 15.5863C7.43363 15.3147 6.28926 14.8905 5.26082 14.8111L3.68305 14.6891C3.4286 14.6713 3.18959 14.5606 3.01166 14.3778L0.295601 11.5793C0.149905 11.4302 0.0524757 11.2408 0.016007 11.0356C-0.0204617 10.8304 0.00571804 10.6189 0.0911321 10.4288C0.0911321 10.4288 1.7696 6.73619 1.83369 6.54392C1.89472 6.35166 2.12665 4.67626 2.26093 3.77904C2.29755 3.53795 2.41352 3.32127 2.59662 3.15953L5.81012 0.266468C5.91605 0.171289 6.04043 0.0988744 6.17551 0.0537103C6.31058 0.00854623 6.45355 -0.00841464 6.59543 0.00389005C6.7373 0.0161869 6.87519 0.0574837 7.00043 0.125226C7.12574 0.19296 7.23582 0.285702 7.32379 0.397695L10.0215 3.82787C10.1716 4.02422 10.2531 4.26436 10.2535 4.51146C10.2535 5.16148 10.3084 6.49509 10.6686 7.35572C11.0195 8.18884 11.6603 9.09517 11.9961 9.53767C12.06 9.62048 12.0978 9.72033 12.1049 9.82462C12.1119 9.929 12.0879 10.0331 12.0357 10.1236C11.6002 10.8545 11.1443 11.5729 10.6686 12.2782C10.2107 12.9588 10.0002 13.801 9.90558 14.509H9.90863Z" fill="var(--fill-0, #6C31E3)"/>
<path id="Vector_2" d="M3.3056 14.5919C4.56906 12.0284 4.53242 10.1913 3.99531 8.88509C3.50091 7.67658 2.58233 6.91673 1.85907 6.44369C1.84076 6.51392 1.8194 6.57798 1.79193 6.64204L0.0920989 10.4324C0.00629417 10.6222 -0.0203777 10.8335 0.0155441 11.0386C0.051466 11.2438 0.148325 11.4335 0.293513 11.5828L3.01263 14.3813C3.09699 14.4692 3.19616 14.5415 3.3056 14.5949V14.5919Z" fill="url(#paint0_radial_379_3303)"/>
<path id="Vector_3" d="M6.73846 9.38901C7.08025 9.42565 7.41596 9.49893 7.73947 9.62096C8.77705 10.0085 9.72307 10.8783 10.5013 12.5598C10.5562 12.4652 10.6111 12.3706 10.6722 12.2791C11.1474 11.5734 11.6033 10.8549 12.0394 10.1245C12.0928 10.0342 12.1175 9.93002 12.1104 9.82541C12.1033 9.7208 12.0647 9.6208 11.9997 9.53854C11.664 9.09299 11.0231 8.18971 10.6722 7.35659C10.3121 6.49596 10.2602 5.1593 10.2571 4.51233C10.2571 4.26513 10.1778 4.02405 10.0252 3.82873L7.32439 0.398555C7.30971 0.380758 7.29447 0.363461 7.27861 0.34668C7.45635 0.87882 7.47752 1.4508 7.33963 1.99462C7.20893 2.43373 7.02869 2.85656 6.80252 3.25501L6.58283 3.68835C6.23057 4.35906 6.02854 5.09844 5.9908 5.8551C5.95416 6.75229 6.13729 7.88143 6.73846 9.38901Z" fill="url(#paint1_radial_379_3303)"/>
<path id="Vector_4" d="M6.73828 9.38836C6.13711 7.88078 5.95094 6.75164 5.99062 5.85141C6.02836 5.09474 6.23039 4.35537 6.58266 3.68466C6.65281 3.53817 6.72914 3.39473 6.80234 3.25436C7.01906 2.83016 7.22961 2.43038 7.33945 1.99093C7.47734 1.4471 7.45617 0.875116 7.27844 0.342976C7.09328 0.138944 6.83484 0.0166556 6.55961 0.00292123C6.28445 -0.0108053 6.01508 0.0851477 5.81055 0.269734L2.59399 3.1628C2.41459 3.32445 2.29699 3.54347 2.26135 3.78231L1.87073 6.37633L1.85547 6.44648C2.58179 6.91953 3.50342 7.67937 3.99477 8.88789C4.09633 9.13266 4.17594 9.38594 4.23281 9.64477C5.08727 9.43719 5.93266 9.30906 6.73828 9.39141V9.38836Z" fill="url(#paint2_radial_379_3303)"/>
<path id="Vector_5" d="M8.4235 15.5896C9.11623 15.7788 9.81506 15.2235 9.90967 14.5093C9.98842 13.8291 10.189 13.1685 10.5017 12.5592C9.72045 10.8808 8.77748 10.008 7.74295 9.62041C6.64428 9.21151 5.44803 9.3458 4.23342 9.64182C4.50498 10.8747 4.34327 12.4891 3.30566 14.5917C3.42773 14.6467 3.55286 14.6833 3.68713 14.6924C3.68713 14.6924 4.43178 14.7535 5.32287 14.8176C6.20787 14.8786 7.53233 15.3394 8.4235 15.5866V15.5896Z" fill="url(#paint3_radial_379_3303)"/>
<path id="Vector_6" fill-rule="evenodd" clip-rule="evenodd" d="M5.9961 5.79409C5.95642 6.68518 6.06931 7.71057 6.67056 9.2151L6.48134 9.19979C5.94118 7.62815 5.82517 6.81948 5.86485 5.91612C5.91126 5.14734 6.1236 4.39773 6.48743 3.71887C6.56064 3.56934 6.73157 3.28857 6.80782 3.14514C7.02454 2.72705 7.17103 2.50427 7.2961 2.11975C7.47009 1.5857 7.43345 1.32934 7.41212 1.0791C7.55251 1.99158 7.02454 2.78809 6.62782 3.59375C6.26298 4.27274 6.04759 5.02192 5.9961 5.79104V5.79409Z" fill="url(#paint4_radial_379_3303)"/>
<path id="Vector_7" fill-rule="evenodd" clip-rule="evenodd" d="M4.17192 8.94957C4.2452 9.11441 4.31231 9.24863 4.35504 9.45316L4.19333 9.48668C4.12926 9.24871 4.07731 9.07777 3.98583 8.87637C3.44258 7.59465 2.57283 6.93543 1.85872 6.4502C2.71932 6.9141 3.60433 7.64043 4.16887 8.94957H4.17192Z" fill="url(#paint5_radial_379_3303)"/>
<path id="Vector_8" fill-rule="evenodd" clip-rule="evenodd" d="M4.36358 9.611C4.66272 11.0148 4.32701 12.7909 3.33822 14.5212C4.16522 12.8062 4.56506 11.1613 4.2324 9.63842L4.36358 9.611Z" fill="url(#paint6_radial_379_3303)"/>
<path id="Vector_9" fill-rule="evenodd" clip-rule="evenodd" d="M7.77891 9.48587C9.39938 10.0932 10.025 11.4268 10.492 12.5377C9.91211 11.3749 9.11258 10.0871 7.72094 9.60798C6.65891 9.24782 5.76477 9.29055 4.23281 9.63844L4.19922 9.48587C5.82273 9.11665 6.67117 9.07391 7.77891 9.48587Z" fill="url(#paint7_radial_379_3303)"/>
</g>
<defs>
<radialGradient id="paint0_radial_379_3303" cx="0" cy="0" r="1" gradientUnits="userSpaceOnUse" gradientTransform="translate(3.16827 14.3386) rotate(-104.693) scale(7.0986 4.72982)">
<stop stop-color="white" stop-opacity="0.4"/>
<stop offset="1" stop-opacity="0.1"/>
</radialGradient>
<radialGradient id="paint1_radial_379_3303" cx="0" cy="0" r="1" gradientUnits="userSpaceOnUse" gradientTransform="translate(9.22869 11.4154) rotate(-82.4846) scale(11.6664 8.61922)">
<stop stop-color="white" stop-opacity="0.6"/>
<stop offset="1" stop-color="white" stop-opacity="0.1"/>
</radialGradient>
<radialGradient id="paint2_radial_379_3303" cx="0" cy="0" r="1" gradientUnits="userSpaceOnUse" gradientTransform="translate(3.59497 9.36398) rotate(-77.7949) scale(9.96024 6.8057)">
<stop stop-color="white" stop-opacity="0.8"/>
<stop offset="1" stop-color="white" stop-opacity="0.4"/>
</radialGradient>
<radialGradient id="paint3_radial_379_3303" cx="0" cy="0" r="1" gradientUnits="userSpaceOnUse" gradientTransform="translate(8.47537 15.6263) rotate(-120.496) scale(5.77298 6.63639)">
<stop stop-color="white" stop-opacity="0.3"/>
<stop offset="1" stop-opacity="0.3"/>
</radialGradient>
<radialGradient id="paint4_radial_379_3303" cx="0" cy="0" r="1" gradientUnits="userSpaceOnUse" gradientTransform="translate(7.70204 3.90808) rotate(102.236) scale(5.18368 3.49555)">
<stop stop-color="white" stop-opacity="0"/>
<stop offset="1" stop-color="white" stop-opacity="0.2"/>
</radialGradient>
<radialGradient id="paint5_radial_379_3303" cx="0" cy="0" r="1" gradientUnits="userSpaceOnUse" gradientTransform="translate(1.62984 6.71574) rotate(45.3237) scale(3.81958 8.13562)">
<stop stop-color="white" stop-opacity="0.2"/>
<stop offset="1" stop-color="white" stop-opacity="0.4"/>
</radialGradient>
<radialGradient id="paint6_radial_379_3303" cx="0" cy="0" r="1" gradientUnits="userSpaceOnUse" gradientTransform="translate(4.80303 8.66186) rotate(86.0397) scale(3.97678 8.44492)">
<stop stop-color="white" stop-opacity="0.2"/>
<stop offset="1" stop-color="white" stop-opacity="0.3"/>
</radialGradient>
<radialGradient id="paint7_radial_379_3303" cx="0" cy="0" r="1" gradientUnits="userSpaceOnUse" gradientTransform="translate(10.4492 12.1776) rotate(-152.289) scale(6.8253 21.4723)">
<stop stop-color="white" stop-opacity="0.2"/>
<stop offset="0.5" stop-color="white" stop-opacity="0.2"/>
<stop offset="1" stop-color="white" stop-opacity="0.3"/>
</radialGradient>
</defs>
</svg>
