<svg preserveAspectRatio="none" width="100%" height="100%" overflow="visible" style="display: block;" viewBox="0 0 24 24" fill="none" xmlns="http://www.w3.org/2000/svg">
<g id="VSCode-Light logo">
<path id="Vector" d="M17.3125 2H6.6875C4.09867 2 2 4.09867 2 6.6875V17.3125C2 19.9013 4.09867 22 6.6875 22H17.3125C19.9013 22 22 19.9013 22 17.3125V6.6875C22 4.09867 19.9013 2 17.3125 2Z" fill="var(--fill-0, #F4F2ED)"/>
<path id="Vector_2" d="M4.63472 9.82795C4.63472 9.82795 4.26484 9.5613 4.70869 9.2053L5.74281 8.2806C5.74281 8.2806 6.03871 7.96929 6.35157 8.24053L15.8944 15.4654V18.93C15.8944 18.93 15.8898 19.474 15.1916 19.4139L4.63472 9.82795Z" fill="var(--fill-0, #2489CA)"/>
<path id="Vector_3" d="M7.09318 12.0618L4.63349 14.298C4.63349 14.298 4.38074 14.4861 4.63349 14.8221L5.77549 15.8608C5.77549 15.8608 6.04673 16.1521 6.44743 15.8207L9.05507 13.8434L7.09318 12.0618Z" fill="var(--fill-0, #1070B3)"/>
<path id="Vector_4" d="M11.4121 12.0806L15.9231 8.63604L15.8938 5.19001C15.8938 5.19001 15.7011 4.43793 15.0585 4.82938L9.05566 10.2927L11.4121 12.0806Z" fill="var(--fill-0, #0877B9)"/>
<path id="Vector_5" d="M15.1908 19.4192C15.4528 19.6873 15.7703 19.5995 15.7703 19.5995L19.2857 17.8672C19.7357 17.5605 19.6725 17.1799 19.6725 17.1799V6.83557C19.6725 6.38093 19.207 6.22374 19.207 6.22374L16.1602 4.75501C15.4944 4.34353 15.0583 4.82899 15.0583 4.82899C15.0583 4.82899 15.6192 4.42521 15.8936 5.18962V18.8674C15.8936 18.9614 15.8735 19.0538 15.8335 19.1371C15.7533 19.2989 15.5792 19.4499 15.1616 19.3867L15.1908 19.4192Z" fill="var(--fill-0, #3C99D4)"/>
</g>
</svg>
