<svg preserveAspectRatio="none" width="100%" height="100%" overflow="visible" style="display: block;" viewBox="0 0 24 24" fill="none" xmlns="http://www.w3.org/2000/svg">
<g id="openai-light logo">
<path id="Vector" d="M20.6872 10.1585C20.913 9.47568 20.9909 8.75264 20.9157 8.0374C20.8405 7.32216 20.6141 6.6311 20.2513 6.01013C19.7118 5.07214 18.8886 4.32953 17.9002 3.88923C16.9118 3.44892 15.8092 3.33364 14.7511 3.55996C14.1501 2.89138 13.3838 2.39268 12.5291 2.11392C11.6744 1.83516 10.7614 1.78616 9.88183 1.97185C9.00221 2.15753 8.18693 2.57135 7.51784 3.17177C6.84874 3.77219 6.34938 4.53807 6.0699 5.39252C5.36524 5.53782 4.69958 5.83146 4.11717 6.25392C3.53477 6.67637 3.04896 7.21796 2.69205 7.84268C2.14758 8.77963 1.91496 9.86538 2.0278 10.9432C2.14063 12.0209 2.59307 13.035 3.3198 13.8388C3.09208 14.5212 3.01272 15.2444 3.08703 15.96C3.16134 16.6755 3.38761 17.367 3.75069 17.988C4.29037 18.9268 5.11425 19.67 6.10353 20.1103C7.09281 20.5507 8.19637 20.6655 9.25511 20.4382C9.73317 20.9756 10.3201 21.4051 10.9769 21.6982C11.6338 21.9913 12.3454 22.1412 13.0647 22.1381C14.1491 22.1386 15.2057 21.7947 16.0821 21.1561C16.9586 20.5174 17.6096 19.617 17.9414 18.5845C18.6459 18.4391 19.3114 18.1454 19.8936 17.723C20.4759 17.3005 20.9615 16.759 21.3184 16.1344C21.8564 15.1989 22.085 14.1173 21.9717 13.0441C21.8583 11.9709 21.4088 10.961 20.6872 10.1585ZM13.0647 20.8117C12.1767 20.8128 11.3166 20.5018 10.6348 19.933L10.7539 19.8645L14.7916 17.5343C14.8917 17.475 14.9747 17.3909 15.0327 17.2901C15.0908 17.1893 15.1218 17.0753 15.1228 16.959V11.267L16.8295 12.2538C16.838 12.258 16.8453 12.2642 16.8509 12.2719C16.8565 12.2795 16.8602 12.2884 16.8616 12.2978V17.0147C16.8594 18.0211 16.4586 18.9855 15.747 19.6971C15.0355 20.4087 14.071 20.8094 13.0647 20.8117ZM4.90311 17.3257C4.45744 16.5565 4.29737 15.6548 4.4511 14.7792L4.57107 14.851L8.61215 17.182C8.71205 17.2407 8.8258 17.2716 8.94166 17.2716C9.05751 17.2716 9.17127 17.2407 9.27116 17.182L14.2078 14.3356V16.3059C14.2075 16.3162 14.2048 16.3262 14.1999 16.3353C14.1951 16.3444 14.1883 16.3522 14.1799 16.3583L10.0907 18.7163C9.2181 19.2187 8.18187 19.3544 7.20935 19.0937C6.23682 18.833 5.40742 18.1971 4.90311 17.3257ZM3.83856 8.53211C4.28801 7.75857 4.99585 7.16831 5.83755 6.86515V11.6616C5.83629 11.7775 5.86601 11.8916 5.92364 11.9922C5.98128 12.0927 6.06473 12.1761 6.16537 12.2335L11.0784 15.0673L9.37171 16.0541C9.36238 16.0587 9.35212 16.0611 9.34171 16.0611C9.33131 16.0611 9.32104 16.0587 9.31172 16.0541L5.23093 13.7003C4.35963 13.1956 3.72386 12.3662 3.46288 11.3937C3.20191 10.4212 3.33699 9.38492 3.83856 8.51183V8.53211ZM17.8611 11.7891L12.9329 8.92751L14.6353 7.94407C14.6447 7.93945 14.6549 7.93705 14.6653 7.93705C14.6757 7.93705 14.686 7.93945 14.6953 7.94407L18.7761 10.3021C19.4004 10.662 19.9094 11.1921 20.2437 11.8305C20.578 12.4689 20.7237 13.1892 20.6638 13.9073C20.6039 14.6254 20.3409 15.3116 19.9055 15.8858C19.4701 16.46 18.8803 16.8985 18.205 17.1499V12.3527C18.2014 12.237 18.1679 12.1242 18.1076 12.0254C18.0473 11.9266 17.9624 11.8452 17.8611 11.7891ZM19.5593 9.23505L19.4402 9.16324L15.4067 6.81277C15.306 6.75414 15.1916 6.72325 15.0751 6.72325C14.9586 6.72325 14.8442 6.75414 14.7435 6.81277L9.81105 9.65918V7.68807C9.81036 7.67818 9.81216 7.66828 9.81629 7.65928C9.82043 7.65027 9.82676 7.64245 9.8347 7.63653L13.9155 5.28184C14.541 4.92185 15.2561 4.74734 15.9771 4.77869C16.6981 4.81004 17.3953 5.04595 17.9872 5.45887C18.5791 5.87179 19.0413 6.44464 19.3196 7.11049C19.598 7.77633 19.6812 8.50766 19.5593 9.219V9.23505ZM8.87998 12.7286L7.17332 11.7452C7.16473 11.7401 7.1574 11.7331 7.15185 11.7247C7.1463 11.7164 7.14266 11.7069 7.14121 11.697V6.99357C7.14263 6.27213 7.34928 5.56597 7.73704 4.95759C8.1248 4.3492 8.67766 3.8637 9.33104 3.55778C9.98442 3.25187 10.7114 3.13817 11.4269 3.22996C12.1425 3.32176 12.8172 3.61526 13.3722 4.07619L13.2523 4.14378L9.2154 6.47397C9.1152 6.53317 9.03199 6.61725 8.97382 6.71805C8.91565 6.81885 8.88449 6.93296 8.88336 7.04934L8.87998 12.7286ZM9.80682 10.7305L12.0052 9.46317L14.2078 10.7305V13.2643L12.0137 14.5316L9.81105 13.2643L9.80682 10.7305Z" fill="var(--fill-0, white)"/>
</g>
</svg>
