<svg preserveAspectRatio="none" width="100%" height="100%" overflow="visible" style="display: block;" viewBox="0 0 15.1319 15.1027" fill="none" xmlns="http://www.w3.org/2000/svg">
<g id="vector">
<path fill-rule="evenodd" clip-rule="evenodd" d="M0.889648 0.65332C1.54578 0.00798917 2.60059 0.0168417 3.24609 0.672852L7.13965 4.62988L7.1416 4.62891L14.6553 12.2646C14.9895 12.6045 15.1466 13.0516 15.1309 13.4932C15.1169 13.9048 14.9525 14.3122 14.6357 14.624C13.9797 15.2694 12.9249 15.2612 12.2793 14.6055L0.870117 3.01074C0.224535 2.35462 0.233526 1.2989 0.889648 0.65332ZM2.35547 1.5498C2.19426 1.38596 1.93067 1.38311 1.7666 1.54395C1.60257 1.70534 1.60032 1.96976 1.76172 2.13379L5.65527 6.09082L6.24902 5.50684L2.35547 1.5498Z" fill="var(--fill-0, white)"/>
<path d="M4.28906 12.292C4.63406 12.2922 4.91406 12.5719 4.91406 12.917C4.91406 13.262 4.63406 13.5418 4.28906 13.542H4.2793C3.93412 13.542 3.6543 13.2622 3.6543 12.917C3.6543 12.5718 3.93412 12.292 4.2793 12.292H4.28906Z" fill="var(--fill-0, white)"/>
<path d="M1.5127 7.75879C1.78784 7.75884 2.03036 7.93889 2.11035 8.20215C2.17928 8.42898 2.35652 8.606 2.58203 8.6748C2.84503 8.75493 3.02528 8.99754 3.02539 9.27246C3.02542 9.54746 2.84508 9.78993 2.58203 9.87012C2.35635 9.939 2.17926 10.117 2.11035 10.3438C2.03022 10.6068 1.78768 10.7871 1.5127 10.7871C1.23767 10.7871 0.995212 10.6068 0.915039 10.3438C0.84603 10.1168 0.668091 9.93894 0.442383 9.87012C0.179581 9.78979 -2.46608e-05 9.5473 2.53974e-09 9.27246C0.000106824 8.99769 0.179611 8.75506 0.442383 8.6748C0.667918 8.60608 0.845999 8.42917 0.915039 8.20215L0.952148 8.10742C1.05601 7.89661 1.27192 7.75877 1.5127 7.75879Z" fill="var(--fill-0, white)"/>
<path d="M11.4053 1.5625C11.6804 1.56255 11.9229 1.7426 12.0029 2.00586C12.0719 2.23269 12.2491 2.40971 12.4746 2.47852C12.7376 2.55864 12.9179 2.80125 12.918 3.07617C12.918 3.35117 12.7377 3.59364 12.4746 3.67383C12.2489 3.74272 12.0718 3.92069 12.0029 4.14746C11.9228 4.41048 11.6803 4.59077 11.4053 4.59082C11.1302 4.59084 10.8878 4.41051 10.8076 4.14746C10.7386 3.9205 10.5607 3.74265 10.335 3.67383C10.0722 3.5935 9.89255 3.35101 9.89258 3.07617C9.89268 2.8014 10.0722 2.55877 10.335 2.47852C10.5605 2.40979 10.7386 2.23288 10.8076 2.00586L10.8447 1.91113C10.9486 1.70032 11.1645 1.56248 11.4053 1.5625Z" fill="var(--fill-0, white)"/>
<path d="M8.44141 0C8.7864 0.000210898 9.06641 0.279952 9.06641 0.625C9.06641 0.970048 8.7864 1.24979 8.44141 1.25H8.43164C8.08646 1.25 7.80664 0.970178 7.80664 0.625C7.80664 0.279822 8.08646 0 8.43164 0H8.44141Z" fill="var(--fill-0, white)"/>
</g>
</svg>
