<svg preserveAspectRatio="none" width="100%" height="100%" overflow="visible" style="display: block;" viewBox="0 0 32 32" fill="none" xmlns="http://www.w3.org/2000/svg">
<g id="gurek.svg" clip-path="url(#clip0_256_1430)">
<path id="Vector" d="M32 16C32 7.16344 24.8366 0 16 0C7.16344 0 0 7.16344 0 16C0 24.8366 7.16344 32 16 32C24.8366 32 32 24.8366 32 16Z" fill="var(--fill-0, white)"/>
<path id="Vector_2" fill-rule="evenodd" clip-rule="evenodd" d="M14.4146 6.43642C15.2341 6.24448 16.0936 6.2843 16.9053 6.49524C18.5141 6.91336 19.8379 8.00067 20.9356 9.21305C22.0062 10.3955 22.8891 11.7511 23.5339 13.2114L23.5666 13.2857C24.0228 14.3267 24.4191 15.4087 24.4361 16.5549C24.4508 17.5414 24.3513 18.5692 24.0334 19.5074C23.7502 20.3433 23.2292 21.1856 22.3329 21.386C21.8161 22.7029 20.805 23.8433 19.5313 24.4535C18.7414 24.832 17.8738 25.001 17.0004 24.917C16.1093 24.8314 15.2769 24.4021 14.5805 23.8548C14.5614 23.8397 14.586 23.8107 14.6057 23.8221C15.4441 24.3064 16.4358 24.4795 17.3963 24.4477C18.9746 24.3954 20.4214 23.5414 21.2529 22.1991C21.4598 21.865 21.6441 21.5127 21.7912 21.1461C21.7826 21.1159 21.7776 21.0854 21.7776 21.0556C21.7776 20.9293 21.8852 20.9 21.9266 20.7705C21.9679 20.6409 22.0045 20.5099 22.0351 20.3774C22.1044 20.0772 22.143 19.7727 22.1663 19.4658C22.1853 19.2164 22.1748 18.9519 22.1998 18.6962C22.1906 18.4913 22.178 18.2865 22.1595 18.0823C22.0999 17.424 21.9793 16.7674 21.7471 16.147C21.5119 15.5187 21.1404 14.9645 20.6718 14.4876C19.6665 13.4646 18.4149 12.7177 17.4374 11.6668L17.3862 11.6112L17.3827 11.6101C17.2614 11.7347 17.1402 11.8594 17.0186 11.9838L16.4633 12.5516C15.3299 13.7117 14.2057 14.8832 13.2197 16.1741C12.6519 16.9175 12.1418 17.6968 11.7023 18.5231C11.4942 18.9145 11.3054 19.3157 11.1349 19.7249L11.0678 19.8877C10.9879 20.0827 10.9016 20.3009 10.8536 20.521C10.9963 20.6629 11.1006 20.8714 11.216 21.0324C11.3468 21.215 11.4978 21.3888 11.6531 21.551C11.8103 21.7152 11.9826 21.8727 12.1656 22.0075L12.1876 22.0234C12.3976 22.1728 12.6386 22.276 12.6701 22.5604C12.6838 22.6838 12.5736 22.7831 12.4717 22.8216C12.1926 22.9267 11.9034 22.6247 11.7174 22.4511C11.6014 22.3428 11.4948 22.226 11.3958 22.1028C11.2996 22.1166 11.2027 22.1235 11.1068 22.1121C10.9582 22.0944 10.811 22.0684 10.6663 22.0302C9.46563 21.7142 8.57694 20.715 8.09751 19.6023C7.45382 18.1084 7.46876 16.3863 7.73638 14.8065C8.22532 11.9195 9.80788 9.22336 12.1974 7.51649C12.8667 7.03842 13.6088 6.62511 14.4146 6.43642ZM15.7083 6.82261C14.1646 6.74105 12.7571 7.53905 11.6279 8.53236C9.57201 10.3409 8.30557 12.989 8.05082 15.7083C7.91544 17.1531 8.01676 18.7104 8.76826 19.9869C9.05982 20.4822 9.43538 20.9137 9.87869 21.2776C10.2964 21.6205 10.7725 21.8182 11.2816 21.9527C11.2584 21.9207 11.2355 21.8884 11.2133 21.8557C11.0948 21.6819 11.0008 21.4972 10.922 21.3037C10.9151 21.3107 10.902 21.312 10.8943 21.3014C10.5729 20.8595 10.6735 20.3322 10.8266 19.8462C10.9873 19.3365 11.1908 18.8405 11.423 18.3594C12.2696 16.6061 13.5289 15.0786 14.836 13.6533C15.5036 12.9254 16.1933 12.2185 16.8804 11.5093C17.2236 11.1551 17.5658 10.7999 17.9038 10.4407C18.0719 10.2618 18.2391 10.082 18.4047 9.9008C18.5685 9.72155 18.7159 9.5318 18.9198 9.39755C19.0824 9.29061 19.2446 9.49505 19.1687 9.64705C19.0518 9.88092 18.8508 10.0663 18.673 10.2565L18.6547 10.2762C18.4813 10.4637 18.3063 10.6499 18.1303 10.8349C17.9279 11.0478 17.7238 11.2592 17.5192 11.4701C17.6938 11.4498 17.8703 11.4382 18.0438 11.4117C18.2795 11.3759 18.5119 11.323 18.7432 11.2656C18.9869 11.2051 19.2275 11.1279 19.4597 11.0318C19.6778 10.9417 19.884 10.7972 20.1241 10.783C20.3273 10.771 20.3907 11.0232 20.2781 11.1559C20.1229 11.3387 19.8441 11.4107 19.6173 11.4786L19.5852 11.4883C19.3343 11.565 19.0776 11.6227 18.8181 11.6612C18.4766 11.7119 18.082 11.735 17.7167 11.6832C18.4462 12.1119 19.1175 12.6434 19.7869 13.1615L19.905 13.2529C20.559 13.7573 21.1973 14.301 21.6636 14.9912C22.0989 15.6354 22.3617 16.3855 22.5092 17.1455C22.5819 17.5205 22.63 17.8994 22.6622 18.2799C22.7823 18.6172 22.763 19.0183 22.7328 19.3894L22.7219 19.5174L22.7228 19.555C22.7273 19.787 22.8203 20.3037 22.6012 20.4789C22.5975 20.4976 22.594 20.5164 22.5901 20.535C22.6174 20.5182 22.6443 20.5008 22.671 20.4829C22.682 20.4755 22.6926 20.4674 22.7034 20.4595L22.7337 20.4345C22.7348 20.4336 22.7358 20.4327 22.7366 20.432C22.8046 20.3722 22.8695 20.3097 22.9299 20.2422C23.0417 20.1174 23.1479 19.9588 23.2484 19.7761C23.4695 19.3745 23.6107 18.938 23.7199 18.4866C23.9196 17.6614 24.0019 16.775 23.9109 15.9288C23.8981 15.8106 23.8721 15.6625 23.8316 15.5105C23.7355 15.1497 23.6249 14.7927 23.5012 14.4405C23.2536 13.7359 22.9501 13.0524 22.5963 12.395C21.8777 11.0599 20.9531 9.82555 19.8452 8.78967C18.7233 7.74067 17.2683 6.90499 15.7083 6.82261ZM13.5311 11.0886C13.5867 11.0545 13.644 11.1207 13.6164 11.1742C13.4827 11.4327 13.2579 11.651 13.0713 11.8725C12.8779 12.1019 12.686 12.3325 12.4946 12.5635C12.1048 13.0338 11.7243 13.5127 11.3589 14.0024L11.2624 14.1319C10.9411 14.5642 10.6237 15.0034 10.3428 15.4628C10.1959 15.7031 10.0664 15.9517 9.94882 16.2076C9.83688 16.4512 9.78526 16.7454 9.65076 16.9742C9.64226 16.9887 9.61607 16.9875 9.61282 16.9692C9.56888 16.7228 9.67732 16.426 9.75482 16.1952C9.84701 15.9208 9.97807 15.6594 10.1184 15.4069C10.4112 14.8803 10.762 14.3866 11.1144 13.899C11.4723 13.4037 11.8439 12.9187 12.2338 12.4483C12.4169 12.2273 12.6041 12.0108 12.7969 11.7985L12.8694 11.7191C13.0714 11.4995 13.275 11.2453 13.5311 11.0886ZM12.595 10.3229C12.6866 10.255 12.7647 10.3939 12.7063 10.4675C12.3575 10.9074 11.9606 11.3027 11.5788 11.7129C11.2122 12.1069 10.8618 12.5156 10.5312 12.9404C9.85701 13.8067 9.31732 14.7572 8.86026 15.7534C8.85163 15.7722 8.82451 15.7582 8.82857 15.74C9.07069 14.6625 9.63669 13.6838 10.2811 12.7995L10.3056 12.766C10.9575 11.8768 11.7068 10.9829 12.595 10.3229Z" fill="var(--fill-0, #0A0A0A)"/>
<path id="Vector_3" fill-rule="evenodd" clip-rule="evenodd" d="M18.3995 22.0901C18.1506 21.9886 17.9285 21.8191 17.7661 21.6026C17.7096 21.5274 17.695 21.4479 17.7068 21.3752C17.7202 21.2934 17.7685 21.2194 17.8344 21.1697C17.9005 21.1199 17.9833 21.0953 18.0632 21.1078C18.1327 21.1187 18.2019 21.1568 18.2566 21.2357L18.268 21.2515C18.3646 21.3821 18.4904 21.4893 18.6337 21.5584C18.7719 21.6251 18.9264 21.6561 19.0863 21.6381C19.3908 21.6036 19.6008 21.4389 19.8239 21.2151C19.8515 21.1869 19.8792 21.1578 19.907 21.1281C19.9246 21.1013 19.9489 21.0841 19.9759 21.075C20.006 21.0649 20.04 21.0655 20.0711 21.0764C20.1011 21.0869 20.128 21.1068 20.146 21.1332C20.1631 21.1583 20.1728 21.1893 20.1696 21.225C20.1492 21.4569 20.028 21.6639 19.8559 21.8263C19.6648 22.0068 19.4113 22.1316 19.1728 22.1754C18.9099 22.2237 18.6421 22.1891 18.3995 22.0901ZM19.2968 18.5135C19.5764 18.6836 20.0025 19.0801 19.7017 19.5016C19.3476 19.8733 18.8378 19.4472 18.5865 19.2544C18.3536 19.1051 18.0918 19.4893 18.3079 19.6636C20.1234 21.0083 20.8601 18.558 19.4383 18.3136C19.2817 18.2867 19.2236 18.4609 19.2968 18.5135ZM16.0433 16.9495C16.0742 16.5658 16.6583 16.4787 16.7164 16.8583C16.7684 17.1984 16.7072 17.5108 16.5541 17.817C16.4078 18.1095 16.04 17.9731 16.0122 17.7067C15.9749 17.3496 16.0241 17.1881 16.0433 16.9495ZM20.4897 16.7794C20.5711 16.6727 20.6888 16.5999 20.8296 16.641C21.2697 16.7697 21.14 17.3948 20.9854 17.699C20.9014 17.8643 20.6299 17.9061 20.5073 17.7607C20.3073 17.5234 20.2116 17.0496 20.4658 16.8159C20.4726 16.8039 20.4803 16.7917 20.4897 16.7794ZM16.5477 15.2708L16.6173 15.2586C16.8323 15.2213 17.0998 15.1856 17.2519 15.3586C17.3326 15.4503 17.3603 15.6208 17.2519 15.7086C17.0611 15.8631 16.8501 15.8032 16.6215 15.8163C16.4331 15.8271 16.252 15.8583 16.0705 15.9102C15.6724 16.024 15.3479 16.2318 15.0079 16.4601C14.9633 16.49 14.9177 16.4329 14.939 16.3911C15.1353 16.0065 15.5158 15.6905 15.8968 15.4979C16.1001 15.3951 16.3227 15.3098 16.5477 15.2708ZM20.0886 15.0984L20.1418 15.1093C20.7209 15.2304 21.4733 15.4723 21.7474 16.0413C21.7579 16.1218 21.7469 16.139 21.7379 16.1503L21.7349 16.154C21.7275 16.1636 21.7216 16.1769 21.6868 16.1879C21.6771 16.1856 21.6673 16.1831 21.6574 16.1805C21.5318 16.1476 21.4323 16.1022 21.336 16.0551L21.2316 16.0036C21.1105 15.9442 20.9883 15.8869 20.8588 15.8447C20.5825 15.7546 20.2983 15.691 20.0096 15.6571C19.9471 15.6498 19.8868 15.6286 19.8393 15.5924C19.7942 15.5581 19.7597 15.5105 19.744 15.4473C19.7236 15.3654 19.7295 15.3034 19.7734 15.2296C19.8064 15.1742 19.8536 15.1358 19.9078 15.1137C19.9631 15.0912 20.0261 15.0859 20.0886 15.0984Z" fill="var(--fill-0, #0A0A0A)"/>
<path id="Vector_4" fill-rule="evenodd" clip-rule="evenodd" d="M15.9969 22.3237C16.2967 21.621 16.9511 21.1046 17.7046 20.9158C18.2579 20.7775 18.8385 20.7819 19.4025 20.8368C19.6981 20.8654 20.015 20.8887 20.2935 20.9985C20.5313 21.0923 20.7251 21.2696 20.8708 21.4777C21.0443 21.7242 21.1623 22.0065 21.2451 22.2957C21.2569 22.3369 21.268 22.3783 21.2783 22.42C21.2423 22.6382 21.1658 22.824 20.9636 22.9612C20.7665 23.0952 20.5311 23.15 20.2966 23.1695C20.2736 23.1584 20.2514 23.147 20.231 23.1354C19.8655 22.9261 19.6082 22.4314 19.1469 22.4984C18.7351 22.5582 18.4641 23.0764 18.2193 23.3802C17.4334 23.4719 16.648 23.2356 16.0086 22.786C15.9761 22.6322 15.9742 22.477 15.9969 22.3237ZM21.8121 21.7904C21.7492 21.6139 21.67 21.443 21.5761 21.2819C21.2658 20.7494 20.7895 20.3251 20.224 20.0825C18.8863 19.5096 17.1554 19.9135 16.075 20.8532C15.706 21.1745 15.3328 21.6465 15.22 22.1543C15.1863 22.161 15.1545 22.1785 15.1283 22.2032C14.3478 21.7117 13.544 21.2387 12.9151 20.5573C12.4583 20.0622 12.1406 19.4762 11.946 18.8324C11.9301 18.7794 11.8447 18.7872 11.8473 18.8458C11.848 18.8595 11.8488 18.8732 11.8495 18.8869C11.8414 18.8617 11.8029 18.8747 11.8 18.8992C11.6953 19.6813 11.5644 20.5105 11.685 21.2967C11.7571 21.7659 11.9701 22.1094 12.2549 22.4802C12.56 22.8777 12.9055 23.2475 13.2586 23.602C13.4828 23.8271 13.7169 24.0867 13.9913 24.2517C14.3105 24.4435 14.6726 24.5893 15.0132 24.7372C15.3598 24.8882 15.7115 25.0276 16.0698 25.1485C16.7863 25.391 17.5267 25.5587 18.2801 25.6321C18.8833 25.6907 19.5727 25.7545 20.1508 25.5275C20.5938 25.3535 20.9515 25.0391 21.2351 24.6608C21.544 24.2488 21.7881 23.7795 21.9231 23.2845C22.0633 22.7705 21.8416 21.8732 21.8121 21.7904Z" fill="var(--fill-0, #0A0A0A)"/>
</g>
<defs>
<clipPath id="clip0_256_1430">
<rect width="32" height="32" fill="white"/>
</clipPath>
</defs>
</svg>
