<svg preserveAspectRatio="none" width="100%" height="100%" overflow="visible" style="display: block;" viewBox="0 0 20 20.0152" fill="none" xmlns="http://www.w3.org/2000/svg">
<g id="Group">
<path id="Vector" d="M3.92405 13.3063L7.85823 11.0987L7.92405 10.9063L7.85823 10.8H7.66582L7.00759 10.7595L4.75949 10.6987L2.81013 10.6177L0.921519 10.5165L0.44557 10.4152L0 9.82785L0.0455696 9.53418L0.44557 9.26582L1.01772 9.31645L2.28354 9.40253L4.18228 9.53418L5.55949 9.61519L7.6 9.82785H7.92405L7.96962 9.6962L7.85823 9.61519L7.77215 9.53418L5.80759 8.20253L3.68101 6.79494L2.56709 5.98481L1.96456 5.57468L1.66076 5.18987L1.52911 4.34937L2.07595 3.74684L2.81013 3.79747L2.99747 3.8481L3.74177 4.42025L5.33165 5.65063L7.40759 7.17975L7.71139 7.43291L7.83291 7.34684L7.8481 7.28608L7.71139 7.05823L6.58228 5.01772L5.37722 2.94177L4.84051 2.08101L4.69873 1.56456C4.6481 1.3519 4.61266 1.17468 4.61266 0.956962L5.23544 0.111392L5.57975 0L6.41013 0.111392L6.75949 0.41519L7.27595 1.59494L8.11139 3.45316L9.40759 5.97975L9.78734 6.72911L9.98987 7.42278L10.0658 7.63544H10.1975V7.51392L10.3038 6.09114L10.5013 4.3443L10.6937 2.0962L10.7595 1.46329L11.0734 0.703797L11.6962 0.293671L12.1823 0.526582L12.5823 1.09873L12.5266 1.46835L12.2886 3.01266L11.8228 5.43291L11.519 7.05316H11.6962L11.8987 6.85063L12.719 5.76202L14.0962 4.04051L14.7038 3.35696L15.4127 2.60253L15.8684 2.24304H16.7291L17.362 3.18481L17.0785 4.15696L16.1924 5.28101L15.4582 6.23291L14.4051 7.65063L13.7468 8.78481L13.8076 8.87595L13.9646 8.86076L16.3443 8.35443L17.6304 8.12152L19.1646 7.85823L19.8582 8.18228L19.9342 8.51139L19.6608 9.18481L18.0203 9.58987L16.0962 9.97468L13.2304 10.6532L13.1949 10.6785L13.2354 10.7291L14.5266 10.8506L15.0785 10.881H16.4304L18.9468 11.0684L19.6051 11.5038L20 12.0354L19.9342 12.4405L18.9215 12.957L17.5544 12.6329L14.3646 11.8734L13.2709 11.6H13.119V11.6911L14.0304 12.5823L15.7013 14.0911L17.7924 16.0354L17.8987 16.5165L17.6304 16.8962L17.3468 16.8557L15.5089 15.4734L14.8 14.8506L13.1949 13.4987H13.0886V13.6405L13.4582 14.1823L15.4127 17.119L15.5139 18.0203L15.3722 18.3139L14.8658 18.4911L14.3089 18.3899L13.1646 16.7848L11.9848 14.9772L11.0329 13.357L10.9165 13.4228L10.3544 19.4734L10.0911 19.7823L9.48354 20.0152L8.97722 19.6304L8.70886 19.0076L8.97722 17.7772L9.30127 16.1722L9.56456 14.8962L9.80253 13.3114L9.9443 12.7848L9.93418 12.7494L9.81772 12.7646L8.62278 14.4051L6.80506 16.8608L5.36709 18.4L5.02279 18.5367L4.42532 18.2278L4.48101 17.6759L4.81519 17.1848L6.80506 14.6532L8.00506 13.0835L8.77975 12.1772L8.77468 12.0456H8.72911L3.44304 15.4785L2.50127 15.6L2.0962 15.2203L2.14684 14.5975L2.33924 14.3949L3.92911 13.3013L3.92405 13.3063Z" fill="var(--fill-0, #D97757)"/>
</g>
</svg>
