<svg preserveAspectRatio="none" width="100%" height="100%" overflow="visible" style="display: block;" viewBox="0 0 24 24" fill="none" xmlns="http://www.w3.org/2000/svg">
<g id="python logo">
<path id="Vector" d="M1.99991 11.8296C2.00824 11.8021 2.01491 11.7737 2.01866 11.7454C2.03408 11.455 2.03741 11.1612 2.06866 10.8704C2.11741 9.92875 2.43158 9.02042 2.97491 8.24958C3.21984 7.91811 3.53914 7.64873 3.90712 7.46311C4.2751 7.27749 4.68151 7.18081 5.09366 7.18084H11.8374C11.9687 7.18084 11.9687 7.18084 11.9687 7.04959V6.58084C11.9687 6.48417 11.9403 6.4625 11.8499 6.4625H7.25949C7.18116 6.4625 7.15324 6.44042 7.15324 6.35917V4.06917C7.16824 3.7375 7.30658 3.42334 7.54074 3.18792C7.85173 2.85693 8.23895 2.60703 8.66866 2.46C9.19344 2.27132 9.73903 2.14654 10.2937 2.08834C11.0518 2.00178 11.8158 1.97878 12.5778 2.01959C13.3995 2.035 14.2124 2.18584 14.9845 2.46625C15.5141 2.64486 15.9822 2.96993 16.3345 3.40375C16.6178 3.76828 16.7578 4.22388 16.7282 4.68459C16.7095 5.07209 16.7282 5.4625 16.7282 5.85292V8.01542C16.7282 8.44 16.7282 8.86792 16.7095 9.28958C16.7064 9.74686 16.5647 10.1924 16.303 10.5674C16.0412 10.9424 15.6718 11.2291 15.2437 11.3896C14.8283 11.5597 14.3829 11.6445 13.9341 11.6392H9.15907C8.65415 11.6295 8.15646 11.7603 7.72158 12.0171C7.16543 12.3666 6.76923 12.921 6.61866 13.5604C6.52805 13.8827 6.48275 14.216 6.48408 14.5508V16.7158C6.48408 16.8596 6.48408 16.8567 6.34033 16.8596C5.82158 16.8596 5.30283 16.8754 4.77783 16.8596C4.26403 16.8388 3.77396 16.6378 3.39366 16.2917C2.95159 15.8896 2.62199 15.3792 2.43741 14.8108C2.25034 14.2942 2.13155 13.7553 2.08408 13.2079C2.05283 12.8579 2.04033 12.5079 2.01866 12.1612C2.0146 12.1225 2.00834 12.0839 1.99991 12.0458V11.8296Z" fill="var(--fill-0, #3772A4)"/>
<path id="Vector_2" d="M8.33454 4.39133C8.33578 4.5647 8.38831 4.73381 8.48553 4.87736C8.58274 5.02091 8.72028 5.13246 8.8808 5.19795C9.04133 5.26344 9.21765 5.27994 9.38753 5.24536C9.55742 5.21078 9.71326 5.12668 9.83542 5.00366C9.95757 4.88063 10.0406 4.7242 10.0739 4.55407C10.1073 4.38394 10.0896 4.20775 10.0229 4.04769C9.95631 3.88764 9.84378 3.75089 9.69955 3.6547C9.55531 3.55851 9.38583 3.50717 9.21246 3.50717C8.97908 3.50893 8.75586 3.60284 8.59142 3.76845C8.42698 3.93406 8.33465 4.15795 8.33454 4.39133Z" fill="var(--fill-0, black)"/>
<path id="Vector_3" d="M8.33454 4.39122C8.33454 4.27576 8.35728 4.16144 8.40147 4.05477C8.44565 3.94811 8.51041 3.85119 8.59205 3.76955C8.67368 3.68791 8.7706 3.62315 8.87727 3.57897C8.98393 3.53479 9.09826 3.51205 9.21371 3.51205C9.32916 3.51205 9.44349 3.53479 9.55015 3.57897C9.65682 3.62315 9.75374 3.68791 9.83537 3.76955C9.91701 3.85119 9.98177 3.94811 10.026 4.05477C10.0701 4.16144 10.0929 4.27576 10.0929 4.39122C10.0929 4.62438 10.0003 4.848 9.83537 5.01288C9.6705 5.17776 9.44688 5.27038 9.21371 5.27038C8.98054 5.27038 8.75692 5.17776 8.59205 5.01288C8.42717 4.848 8.33454 4.62438 8.33454 4.39122Z" fill="var(--fill-0, white)"/>
<path id="Vector_4" d="M21.999 12.1671C21.9906 12.1946 21.984 12.2229 21.9802 12.2516C21.9648 12.5421 21.9615 12.8358 21.9302 13.1266C21.8814 14.0682 21.5672 14.9768 21.024 15.7475C20.7793 16.0795 20.4602 16.3494 20.0922 16.5356C19.7242 16.7217 19.3176 16.8188 18.9052 16.8191H12.1615C12.0302 16.8191 12.0302 16.8191 12.0302 16.9504V17.4191C12.0302 17.5158 12.0586 17.5379 12.149 17.5379H16.7398C16.8177 17.5379 16.8461 17.5596 16.8461 17.6408V19.9308C16.8308 20.2625 16.6927 20.5766 16.4586 20.8121C16.1475 21.1431 15.7601 21.393 15.3302 21.54C14.8065 21.7284 14.2621 21.8532 13.7086 21.9116C12.9502 21.9983 12.1861 22.0212 11.424 21.9804C10.6028 21.9652 9.7897 21.8143 9.01773 21.5337C8.48816 21.3551 8.02006 21.03 7.66773 20.5962C7.38445 20.2317 7.24439 19.7761 7.27398 19.3154C7.29273 18.9279 7.27398 18.5375 7.27398 18.1471V15.9846C7.27398 15.56 7.27398 15.1321 7.29273 14.7104C7.29568 14.2532 7.43736 13.8076 7.69902 13.4326C7.96068 13.0576 8.33001 12.7709 8.75814 12.6104C9.17355 12.4403 9.61889 12.3555 10.0677 12.3608H14.8398C15.3447 12.3705 15.8424 12.2396 16.2773 11.9829C16.8341 11.6325 17.2304 11.0768 17.3802 10.4362C17.4708 10.1139 17.5161 9.7806 17.5148 9.44581V7.28081C17.5148 7.13706 17.5148 7.1404 17.6586 7.13706C18.1773 7.13706 18.6961 7.12165 19.2211 7.13706C19.735 7.15803 20.225 7.3594 20.6052 7.70581C21.0473 8.1079 21.3769 8.6183 21.5615 9.18665C21.7479 9.70532 21.8655 10.2462 21.9115 10.7954C21.9427 11.1454 21.9552 11.4954 21.9773 11.8421C21.9815 11.88 21.9877 11.9175 21.9961 11.9546C21.9981 12.0233 21.999 12.0941 21.999 12.1671Z" fill="var(--fill-0, #FFDA4B)"/>
<path id="Vector_5" d="M15.6665 19.496C15.6653 19.3227 15.6128 19.1535 15.5155 19.01C15.4183 18.8664 15.2808 18.7549 15.1203 18.6894C14.9597 18.6239 14.7834 18.6074 14.6135 18.642C14.4437 18.6766 14.2878 18.7607 14.1657 18.8837C14.0435 19.0067 13.9605 19.1632 13.9271 19.3333C13.8938 19.5034 13.9115 19.6796 13.9781 19.8397C14.0448 19.9997 14.1573 20.1365 14.3015 20.2326C14.4458 20.3288 14.6152 20.3802 14.7886 20.3802C15.022 20.3784 15.2452 20.2845 15.4097 20.1189C15.5741 19.9533 15.6664 19.7294 15.6665 19.496Z" fill="var(--fill-0, black)"/>
<path id="Vector_6" d="M15.6658 19.497C15.6658 19.7302 15.5732 19.9538 15.4083 20.1187C15.2434 20.2835 15.0198 20.3762 14.7866 20.3762C14.5535 20.3762 14.3298 20.2835 14.165 20.1187C14.0001 19.9538 13.9075 19.7302 13.9075 19.497C13.9075 19.2638 14.0001 19.0402 14.165 18.8753C14.3298 18.7105 14.5535 18.6178 14.7866 18.6178C15.0198 18.6178 15.2434 18.7105 15.4083 18.8753C15.5732 19.0402 15.6658 19.2638 15.6658 19.497Z" fill="var(--fill-0, white)"/>
</g>
</svg>
