<svg preserveAspectRatio="none" width="100%" height="100%" overflow="visible" style="display: block;" viewBox="0 0 14.8987 14.9059" fill="none" xmlns="http://www.w3.org/2000/svg">
<path id="vector" fill-rule="evenodd" clip-rule="evenodd" d="M8.71037 0.0127982C8.55976 -0.0137695 8.40477 0.00119892 8.26203 0.0560952C8.11929 0.110991 7.99421 0.203741 7.90021 0.324379C7.80622 0.445017 7.74688 0.588984 7.72855 0.740813C7.71023 0.892642 7.73361 1.04659 7.7962 1.18613C8.21141 2.11104 8.33564 3.14032 8.15242 4.13746C7.96919 5.13461 7.48717 6.05249 6.77028 6.76938C6.05339 7.48627 5.13551 7.96829 4.13837 8.15151C3.14123 8.33474 2.11195 8.21051 1.18704 7.7953C1.04747 7.7325 0.893411 7.70894 0.741449 7.72716C0.589488 7.74539 0.445372 7.8047 0.324607 7.89872C0.203843 7.99275 0.111002 8.11792 0.056073 8.26077C0.00114442 8.40363 -0.0137923 8.55876 0.01287 8.70947C0.339042 10.5575 1.34613 12.216 2.83535 13.3578C4.32457 14.4996 6.18771 15.0416 8.05702 14.8769C9.92633 14.7122 11.666 13.8527 12.9326 12.4681C14.1992 11.0835 14.9007 9.27435 14.8987 7.3978C14.8987 5.6361 14.2786 3.93061 13.1471 2.58031C12.0156 1.23001 10.4449 0.321062 8.71037 0.0127982Z" fill="var(--fill-0, white)"/>
</svg>
