<svg preserveAspectRatio="none" width="100%" height="100%" overflow="visible" style="display: block;" viewBox="0 0 20 20" fill="none" xmlns="http://www.w3.org/2000/svg">
<g id="menu / close">
<g id="Vector">
<mask id="path-1-inside-1_183_6053" fill="white">
<path d="M14.243 12.828C14.6335 13.2185 14.6335 13.8517 14.243 14.2422C13.8525 14.6327 13.2193 14.6327 12.8288 14.2422L5.75774 7.17112C5.36721 6.7806 5.36721 6.14744 5.75774 5.75691C6.14826 5.36639 6.78143 5.36639 7.17195 5.75691L14.243 12.828Z"/>
</mask>
<path d="M12.8288 14.2422L14.243 12.828L7.17195 5.75691L5.75774 7.17112L4.34352 8.58534L11.4146 15.6564L12.8288 14.2422ZM7.17195 5.75691L5.75774 7.17112L12.8288 14.2422L14.243 12.828L15.6572 11.4138L8.58616 4.3427L7.17195 5.75691ZM5.75774 5.75691L7.17195 7.17112C6.78143 7.56165 6.14826 7.56165 5.75774 7.17112L7.17195 5.75691L8.58616 4.3427C7.41459 3.17113 5.5151 3.17113 4.34352 4.3427L5.75774 5.75691ZM5.75774 7.17112L7.17195 5.75691C7.56248 6.14744 7.56247 6.7806 7.17195 7.17112L5.75774 5.75691L4.34352 4.3427C3.17195 5.51427 3.17195 7.41376 4.34352 8.58534L5.75774 7.17112ZM14.243 14.2422L12.8288 12.828C13.2193 12.4375 13.8525 12.4375 14.243 12.828L12.8288 14.2422L11.4146 15.6564C12.5862 16.828 14.4857 16.828 15.6572 15.6564L14.243 14.2422ZM14.243 14.2422L15.6572 15.6564C16.8288 14.4848 16.8288 12.5853 15.6572 11.4138L14.243 12.828L12.8288 14.2422C12.4383 13.8517 12.4383 13.2185 12.8288 12.828L14.243 14.2422Z" fill="var(--stroke-0, white)" mask="url(#path-1-inside-1_183_6053)"/>
</g>
<g id="Vector_2">
<mask id="path-3-inside-2_183_6053" fill="white">
<path d="M7.1721 14.2423L14.2432 7.1712C14.6337 6.78067 14.6337 6.14751 14.2432 5.75698C13.8526 5.36646 13.2195 5.36646 12.829 5.75698L5.75789 12.828C5.36736 13.2186 5.36736 13.8517 5.75789 14.2423C6.14841 14.6328 6.78158 14.6328 7.1721 14.2423Z"/>
</mask>
<path d="M14.2432 7.1712L12.829 5.75698L5.75789 12.828L7.1721 14.2423L8.58631 15.6565L15.6574 8.58541L14.2432 7.1712ZM5.75789 12.828L7.1721 14.2423L14.2432 7.1712L12.829 5.75698L11.4147 4.34277L4.34367 11.4138L5.75789 12.828ZM5.75789 14.2423L7.1721 12.828C7.56263 13.2186 7.56263 13.8517 7.1721 14.2423L5.75789 12.828L4.34367 11.4138C3.1721 12.5854 3.1721 14.4849 4.34367 15.6565L5.75789 14.2423ZM7.1721 14.2423L5.75789 12.828C6.14841 12.4375 6.78158 12.4375 7.1721 12.828L5.75789 14.2423L4.34367 15.6565C5.51525 16.828 7.41474 16.8281 8.58631 15.6565L7.1721 14.2423ZM14.2432 5.75698L12.829 7.1712C12.4384 6.78067 12.4384 6.14751 12.829 5.75698L14.2432 7.1712L15.6574 8.58541C16.829 7.41384 16.829 5.51434 15.6574 4.34277L14.2432 5.75698ZM14.2432 5.75698L15.6574 4.34277C14.4858 3.1712 12.5863 3.17119 11.4147 4.34277L12.829 5.75698L14.2432 7.1712C13.8526 7.56172 13.2195 7.56172 12.829 7.1712L14.2432 5.75698Z" fill="var(--stroke-0, white)" mask="url(#path-3-inside-2_183_6053)"/>
</g>
</g>
</svg>
