<svg preserveAspectRatio="none" width="100%" height="100%" overflow="visible" style="display: block;" viewBox="0 0 16.6667 16.1127" fill="none" xmlns="http://www.w3.org/2000/svg">
<path id="vector" d="M0 7.46568C0 6.3646 -2.48353e-08 5.814 0.157983 5.31928C0.2978 4.88149 0.526625 4.47734 0.830092 4.13222C1.17302 3.74222 1.64513 3.45895 2.58936 2.89242L5.58935 1.09242C6.58702 0.493817 7.08583 0.194517 7.61833 0.077575C8.08942 -0.0258583 8.57725 -0.0258583 9.04833 0.077575C9.58083 0.194517 10.0797 0.493817 11.0773 1.09242L14.0773 2.89242C15.0215 3.45895 15.4937 3.74222 15.8366 4.13222C16.1401 4.47734 16.3688 4.88149 16.5087 5.31928C16.6667 5.814 16.6667 6.3646 16.6667 7.46568V13.446C16.6667 14.3794 16.6667 14.8462 16.485 15.2027C16.3252 15.5163 16.0703 15.7713 15.7567 15.931C15.4002 16.1127 14.9334 16.1127 14 16.1127H13.5C12.5666 16.1127 12.0998 16.1127 11.7433 15.931C11.4297 15.7713 11.1748 15.5163 11.015 15.2027C10.8333 14.8462 10.8333 14.3794 10.8333 13.446V10.7794C10.8333 10.3127 10.8333 10.0793 10.7425 9.90102C10.6626 9.74427 10.5352 9.61677 10.3783 9.53685C10.2001 9.44602 9.96675 9.44602 9.5 9.44602H7.16667C6.69992 9.44602 6.4666 9.44602 6.28834 9.53685C6.13154 9.61677 6.00406 9.74427 5.92416 9.90102C5.83333 10.0793 5.83333 10.3127 5.83333 10.7794V13.446C5.83333 14.3794 5.83333 14.8462 5.65167 15.2027C5.49189 15.5163 5.23692 15.7713 4.92332 15.931C4.5668 16.1127 4.10008 16.1127 3.16667 16.1127H2.66667C1.73325 16.1127 1.26653 16.1127 0.910017 15.931C0.596408 15.7713 0.341442 15.5163 0.181658 15.2027C-6.20882e-08 14.8462 0 14.3794 0 13.446V7.46568Z" fill="var(--fill-0, black)"/>
</svg>
