<svg preserveAspectRatio="none" width="100%" height="100%" overflow="visible" style="display: block;" viewBox="0 0 20 20" fill="none" xmlns="http://www.w3.org/2000/svg">
<g id="SVG">
<path id="Vector" d="M3.74891 10.8398C3.61941 11.2658 3.28658 11.5992 2.86133 11.7288C3.28658 11.8584 3.61941 12.1918 3.74891 12.6177C3.87833 12.1918 4.21116 11.8584 4.63649 11.7288C4.21116 11.5992 3.87833 11.2658 3.74891 10.8398Z" stroke="var(--stroke-0, white)" stroke-width="1.25" stroke-linecap="round" stroke-linejoin="round"/>
<path id="Vector_2" d="M13.6415 4.64355C13.512 5.06947 13.1792 5.40289 12.7539 5.53247C13.1792 5.66214 13.512 5.99547 13.6415 6.42139C13.7709 5.99547 14.1037 5.66214 14.5291 5.53247C14.1037 5.40289 13.7709 5.06947 13.6415 4.64355Z" stroke="var(--stroke-0, white)" stroke-width="1.25" stroke-linecap="round" stroke-linejoin="round"/>
<path id="Vector_3" d="M6.51562 15.373H6.525" stroke="var(--stroke-0, white)" stroke-width="1.25" stroke-linecap="round" stroke-linejoin="round"/>
<path id="Vector_4" d="M10.6773 3.08105H10.668" stroke="var(--stroke-0, white)" stroke-width="1.25" stroke-linecap="round" stroke-linejoin="round"/>
<path id="Vector_5" d="M5.03787 3.5665C4.63438 3.15643 3.97485 3.15109 3.56477 3.55458C3.1547 3.95806 3.14936 4.61759 3.55285 5.02767L14.9615 16.6226C15.365 17.0327 16.0246 17.0381 16.4346 16.6346C16.8447 16.2311 16.8501 15.5715 16.4466 15.1615L5.03787 3.5665Z" stroke="var(--stroke-0, white)" stroke-width="1.25"/>
<path id="Vector_6" d="M7.00195 9.4228L9.37795 7.08496L16.8911 14.7207C17.5367 15.3769 17.5281 16.4321 16.872 17.0776C16.2159 17.7232 15.1606 17.7147 14.515 17.0586L7.00195 9.4228Z" fill="var(--fill-0, white)"/>
</g>
</svg>
