<svg preserveAspectRatio="none" width="100%" height="100%" overflow="visible" style="display: block;" viewBox="0 0 11.5715 15" fill="none" xmlns="http://www.w3.org/2000/svg">
<path id="vector" fill-rule="evenodd" clip-rule="evenodd" d="M6.22046 0C6.85607 0.000142975 7.46989 0.23112 7.94824 0.649658L10.675 3.03442C10.9568 3.28081 11.1825 3.58498 11.3372 3.92578C11.4918 4.2665 11.5715 4.63634 11.5715 5.0105V11.7854C11.5715 12.2075 11.4884 12.6259 11.3269 13.0159C11.1654 13.4058 10.9288 13.7604 10.6304 14.0588C10.3319 14.3573 9.97736 14.5938 9.5874 14.7554C9.1974 14.9169 8.77906 15 8.35693 15H3.2146C2.36206 15 1.544 14.6617 0.941162 14.0588C0.338326 13.456 0 12.6379 0 11.7854V3.2146C0 2.36206 0.338326 1.544 0.941162 0.941162C1.544 0.338326 2.36206 0 3.2146 0H6.22046ZM3.2146 1.5C2.75989 1.5 2.32397 1.68091 2.00244 2.00244C1.68091 2.32397 1.5 2.75989 1.5 3.2146V11.7854C1.5 12.0105 1.54421 12.2336 1.63037 12.4417C1.71653 12.6497 1.84324 12.8384 2.00244 12.9976C2.16165 13.1568 2.35034 13.2835 2.55835 13.3696C2.76636 13.4558 2.98945 13.5 3.2146 13.5H8.35693C8.58201 13.5 8.80523 13.4557 9.01318 13.3696C9.2212 13.2835 9.41062 13.1568 9.56982 12.9976C9.72889 12.8384 9.85505 12.6495 9.94116 12.4417C10.0273 12.2336 10.0715 12.0106 10.0715 11.7854V6H8.25C7.65326 6 7.08114 5.76278 6.65918 5.34082C6.23722 4.91886 6 4.34674 6 3.75V1.5H3.2146ZM7.5 3.75C7.5 3.94891 7.57907 4.13962 7.71973 4.28027C7.86038 4.42093 8.05109 4.5 8.25 4.5H9.94775C9.88271 4.37243 9.79508 4.25751 9.68701 4.16309L7.5 2.24927V3.75Z" fill="var(--fill-0, white)"/>
</svg>
