<svg preserveAspectRatio="none" width="100%" height="100%" overflow="visible" style="display: block;" viewBox="0 0 16.8754 19.3746" fill="none" xmlns="http://www.w3.org/2000/svg">
<g id="Union">
<path d="M12.5088 14.7636C12.5385 14.7741 12.565 14.7941 12.583 14.8203C12.6 14.8453 12.6104 14.8765 12.6074 14.912C12.5869 15.1439 12.4651 15.3512 12.2929 15.5136C12.1018 15.694 11.8488 15.8194 11.6103 15.8632C11.3474 15.9115 11.0794 15.8763 10.8369 15.7773C10.5881 15.6757 10.3655 15.5064 10.2031 15.29C10.1468 15.2148 10.1327 15.1351 10.1445 15.0624C10.1579 14.9809 10.2058 14.907 10.2714 14.8574C10.3375 14.8075 10.421 14.7823 10.5009 14.7949C10.5703 14.8058 10.6397 14.844 10.6943 14.9228L10.705 14.9384C10.8016 15.069 10.9279 15.1769 11.0713 15.246C11.2093 15.3126 11.3636 15.3431 11.5234 15.3251C11.8279 15.2907 12.0386 15.126 12.2617 14.9023C12.2892 14.8741 12.317 14.8449 12.3447 14.8154C12.3622 14.7888 12.3863 14.7717 12.413 14.7626C12.4431 14.7526 12.4776 14.7527 12.5088 14.7636Z" fill="var(--fill-0, #0A0A0A)"/>
<path d="M8.48043 10.6367C8.5115 10.2531 9.09621 10.1663 9.15426 10.5458C9.20627 10.8859 9.14427 11.1987 8.99117 11.5048C8.84476 11.7966 8.47726 11.6605 8.44918 11.3945C8.41187 11.0374 8.46118 10.8753 8.48043 10.6367Z" fill="var(--fill-0, #0A0A0A)"/>
<path d="M12.9267 10.4667C13.0081 10.3602 13.126 10.2872 13.2666 10.3281C13.7067 10.4568 13.5774 11.0824 13.4228 11.3867C13.3387 11.5517 13.0669 11.5935 12.9443 11.4482C12.7444 11.2109 12.6491 10.7365 12.9033 10.5029C12.9101 10.491 12.9175 10.4789 12.9267 10.4667Z" fill="var(--fill-0, #0A0A0A)"/>
<path d="M9.05465 8.94623C9.26971 8.90898 9.53729 8.87285 9.68942 9.04584C9.7701 9.13759 9.79785 9.30861 9.68942 9.39642C9.49865 9.55075 9.28712 9.49079 9.05856 9.50384C8.87032 9.51468 8.68915 9.54569 8.50778 9.59759C8.10972 9.71142 7.7853 9.91918 7.44528 10.1474C7.40065 10.1773 7.3556 10.1198 7.37692 10.0781C7.57327 9.69377 7.95322 9.37797 8.33395 9.18548C8.53732 9.08267 8.76032 8.99701 8.98532 8.95795L9.05465 8.94623Z" fill="var(--fill-0, #0A0A0A)"/>
<path d="M5.96871 4.77631C6.02428 4.7423 6.08109 4.80786 6.05367 4.86127C5.92004 5.11967 5.6954 5.33809 5.50875 5.55951C5.31544 5.78895 5.12304 6.01991 4.9316 6.25091C4.54185 6.7211 4.16125 7.19983 3.79586 7.68939L3.70016 7.81927C3.37891 8.25165 3.06111 8.69095 2.78024 9.15033C2.63333 9.3906 2.50429 9.63955 2.38668 9.89545C2.27481 10.139 2.22232 10.4332 2.08785 10.662C2.07907 10.676 2.05298 10.6742 2.04977 10.6562C2.00607 10.4099 2.1149 10.1133 2.19235 9.88275C2.28449 9.60845 2.41533 9.34698 2.55563 9.09466C2.84838 8.56804 3.19935 8.0735 3.55172 7.58588C3.90956 7.09078 4.28117 6.60592 4.67086 6.13568C4.85393 5.91475 5.04159 5.69851 5.23434 5.48627L5.3066 5.40619C5.5086 5.18657 5.71266 4.93299 5.96871 4.77631Z" fill="var(--fill-0, #0A0A0A)"/>
<path d="M5.03219 4.01068C5.12375 3.94274 5.20189 4.08152 5.14352 4.15521C4.7948 4.59492 4.39819 4.99022 4.01657 5.40033C3.64994 5.79433 3.29934 6.20306 2.96871 6.62787C2.29462 7.494 1.75484 8.44433 1.29782 9.44037C1.28924 9.45901 1.26191 9.44564 1.26559 9.42767C1.5077 8.35017 2.07432 7.37146 2.71871 6.48724L2.74313 6.45306C3.39487 5.56402 4.14424 4.67059 5.03219 4.01068Z" fill="var(--fill-0, #0A0A0A)"/>
<path fill-rule="evenodd" clip-rule="evenodd" d="M6.8525 0.123961C7.67189 -0.0678812 8.53118 -0.0283498 9.34274 0.182555C10.9516 0.60068 12.2754 1.68798 13.373 2.90033C14.4436 4.08276 15.3268 5.43816 15.9716 6.89838L16.0039 6.97357C16.4599 8.01436 16.857 9.09605 16.874 10.2421C16.8886 11.2286 16.7885 12.257 16.4707 13.1953C16.1874 14.0309 15.6665 14.8728 14.7705 15.0732C14.6538 15.3706 14.5101 15.6582 14.3457 15.9335C14.399 16.2547 14.4409 16.6761 14.3603 16.9716C14.2254 17.4666 13.9816 17.9366 13.6728 18.3486C13.3891 18.7268 13.0309 19.0409 12.5879 19.2148C12.0099 19.4416 11.3208 19.3778 10.7177 19.3193C9.96436 19.2458 9.22324 19.0784 8.5068 18.8359C8.14857 18.715 7.79659 18.5756 7.45016 18.4247C7.10966 18.2769 6.74774 18.1311 6.42867 17.9394C6.15424 17.7744 5.92038 17.5141 5.69625 17.289C5.43944 17.0312 5.18723 16.765 4.95114 16.4863C4.93675 16.4941 4.92357 16.5033 4.90914 16.5087C4.63016 16.6137 4.34131 16.3123 4.15524 16.1386C4.03924 16.0303 3.93191 15.9132 3.83297 15.79C3.7368 15.8038 3.63976 15.8112 3.54391 15.7997C3.39543 15.7821 3.24815 15.7558 3.10348 15.7177C1.90306 15.4017 1.01457 14.4025 0.53512 13.29C-0.108547 11.7962 -0.093808 10.0738 0.173792 8.49408C0.662717 5.60715 2.24527 2.91092 4.63473 1.20404C5.30398 0.725977 6.04669 0.312649 6.8525 0.123961ZM11.8398 14.5244C11.2758 14.4695 10.6948 14.4652 10.1416 14.6035C9.38847 14.7923 8.73436 15.3084 8.43453 16.0107C8.41185 16.1641 8.41375 16.3197 8.44625 16.4736C9.08565 16.923 9.87141 17.1589 10.6572 17.0673C10.9019 16.7635 11.1726 16.2454 11.5839 16.1855C12.0453 16.1185 12.3033 16.6139 12.6689 16.8232C12.6891 16.8347 12.7115 16.8454 12.7343 16.8564C12.7964 16.8512 12.8584 16.8429 12.9199 16.832C13.2014 16.5641 13.452 16.2607 13.664 15.9257C13.5822 15.6568 13.4704 15.3951 13.3086 15.165C13.1629 14.957 12.9691 14.7793 12.7314 14.6855C12.4529 14.5757 12.1354 14.5529 11.8398 14.5244ZM9.45602 5.67084L8.90035 6.2392C7.76713 7.39917 6.64307 8.57051 5.65719 9.86127C5.08944 10.6047 4.57911 11.3846 4.13961 12.2109C3.93159 12.6021 3.74273 13.003 3.57223 13.412L3.50485 13.5751C3.42504 13.7699 3.33893 13.988 3.29098 14.2079C3.43357 14.3498 3.53794 14.5587 3.65328 14.7197C3.7841 14.9023 3.93547 15.076 4.09078 15.2382C4.13229 15.2816 4.17713 15.3221 4.22067 15.3642C4.17768 15.2455 4.14298 15.1205 4.12203 14.9843C4.00149 14.1982 4.13259 13.3689 4.23727 12.5869C4.2402 12.5624 4.27888 12.5491 4.28707 12.5742C4.28633 12.5605 4.28581 12.5468 4.28512 12.5331C4.28251 12.4746 4.36771 12.4667 4.38375 12.5195C4.57832 13.1633 4.89569 13.7499 5.3525 14.2451C5.98134 14.9262 6.78506 15.3991 7.56539 15.8906C7.59151 15.8659 7.6236 15.8485 7.65719 15.8417C7.77 15.334 8.14368 14.8622 8.51266 14.541C9.17727 13.9629 10.0879 13.5884 11.0019 13.5185C10.9193 13.4706 10.8328 13.4165 10.7451 13.3515C10.529 13.1771 10.7914 12.792 11.0244 12.9413C11.2755 13.134 11.7845 13.5603 12.1386 13.1894C12.4394 12.7679 12.014 12.3712 11.7343 12.2011C11.6611 12.1485 11.7194 11.974 11.8759 12.0009C12.7962 12.1593 12.8107 13.2401 12.2148 13.6191C12.3671 13.6587 12.5166 13.7076 12.6611 13.7695C13.2266 14.012 13.7033 14.4372 14.0136 14.9697C14.0442 15.0222 14.0702 15.0773 14.0976 15.1318C14.1433 15.0334 14.1881 14.9345 14.2285 14.8339C14.2199 14.8038 14.2148 14.7728 14.2148 14.7431C14.2148 14.6168 14.3228 14.5874 14.3642 14.4579C14.4056 14.3284 14.4421 14.1969 14.4726 14.0644C14.5419 13.7644 14.5802 13.46 14.6035 13.1533C14.6224 12.9039 14.6127 12.6394 14.6377 12.3837C14.6285 12.1789 14.6151 11.9737 14.5966 11.7695C14.537 11.1114 14.4166 10.4551 14.1845 9.8349C14.1834 9.83175 14.1818 9.82828 14.1806 9.82513C14.1784 9.83015 14.1782 9.8348 14.1757 9.83783L14.1718 9.84173C14.1646 9.85132 14.1583 9.86417 14.124 9.87494C14.1144 9.87264 14.1045 9.8707 14.0947 9.8681C13.9691 9.83517 13.8696 9.78924 13.7734 9.74213L13.6689 9.69134C13.5478 9.63191 13.4254 9.57441 13.2959 9.53216C13.0197 9.44211 12.7357 9.37853 12.4472 9.34466C12.3847 9.33729 12.3238 9.3164 12.2763 9.28021C12.2313 9.24586 12.1973 9.19787 12.1816 9.1347C12.1612 9.05289 12.167 8.99074 12.2109 8.91693C12.2439 8.86155 12.2915 8.82277 12.3457 8.80072C12.4009 8.77838 12.464 8.77354 12.5263 8.78607L12.5791 8.79681C13.0801 8.90161 13.7103 9.09729 14.0488 9.51654C13.8162 9.01794 13.4971 8.56934 13.1093 8.17474C12.1042 7.15184 10.8524 6.40518 9.87496 5.35443L9.82321 5.29877L9.82028 5.29779C9.6991 5.42234 9.57751 5.54654 9.45602 5.67084ZM8.14547 0.509704C6.6019 0.428234 5.19452 1.22642 4.06539 2.21966C2.00951 4.02818 0.743044 6.67621 0.488245 9.39545C0.35287 10.8403 0.454519 12.3982 1.20602 13.6747C1.49754 14.1698 1.8732 14.601 2.31637 14.9648C2.73394 15.3076 3.20981 15.5051 3.71871 15.6396C3.69564 15.6077 3.6725 15.5754 3.65035 15.5429C3.53202 15.3692 3.4381 15.1846 3.35934 14.9911C3.35247 14.998 3.33974 14.9993 3.332 14.9892C3.01068 14.5473 3.11051 14.0191 3.26364 13.5331C3.42424 13.0235 3.62812 12.5278 3.86032 12.0468C4.70693 10.2935 5.9663 8.76605 7.2734 7.34076C7.94096 6.61282 8.63022 5.90548 9.31735 5.19623C9.6605 4.84207 10.0029 4.48708 10.3408 4.12787C10.509 3.94899 10.6761 3.76902 10.8418 3.58783C11.0056 3.40858 11.1535 3.21915 11.3574 3.0849C11.5199 2.97812 11.6823 3.18293 11.6064 3.3349C11.4895 3.56865 11.2881 3.75416 11.1103 3.94427L11.0918 3.9638C10.9185 4.15126 10.7432 4.33744 10.5673 4.5224C10.3651 4.73507 10.1614 4.94649 9.957 5.15716C10.1314 5.13688 10.308 5.12596 10.4814 5.09955C10.7171 5.06367 10.9494 5.01049 11.1806 4.95306C11.4244 4.89256 11.6652 4.81475 11.8974 4.71869C12.1154 4.62855 12.3216 4.48477 12.5615 4.47064C12.7647 4.45864 12.8283 4.71094 12.7158 4.84369C12.5606 5.02641 12.2814 5.09809 12.0547 5.16595L12.0224 5.17572C11.7717 5.25241 11.5151 5.31008 11.2558 5.34857C10.9144 5.39925 10.5195 5.42287 10.1543 5.37103C10.8836 5.79975 11.5553 6.33046 12.2246 6.84857L12.3427 6.94037C12.9967 7.44475 13.6353 7.98861 14.1015 8.67865C14.5367 9.32282 14.7988 10.073 14.9463 10.8329C15.019 11.2079 15.0674 11.5872 15.0996 11.9677C15.2195 12.305 15.2001 12.7062 15.1699 13.0771L15.1591 13.205L15.1601 13.2421C15.1646 13.474 15.2576 13.9904 15.039 14.166C15.0353 14.1846 15.0312 14.2039 15.0273 14.2226C15.0546 14.2057 15.0817 14.1877 15.1084 14.1699C15.1193 14.1625 15.1299 14.1543 15.1406 14.1464L15.1709 14.122L15.1738 14.1191C15.2417 14.0592 15.3067 13.9971 15.3672 13.9296C15.4788 13.8049 15.585 13.6463 15.6855 13.4638C15.9066 13.0622 16.048 12.6251 16.1572 12.1738C16.3568 11.3486 16.4397 10.4623 16.3486 9.61615C16.3358 9.49799 16.309 9.35014 16.2685 9.19818C16.1725 8.83737 16.0622 8.48006 15.9384 8.12787C15.6909 7.42328 15.3879 6.73931 15.0341 6.08197C14.3155 4.74692 13.39 3.5133 12.2822 2.47748C11.1603 1.42849 9.70546 0.592078 8.14547 0.509704Z" fill="var(--fill-0, #0A0A0A)"/>
</g>
</svg>
